G75*
%MOIN*%
%OFA0B0*%
%FSLAX25Y25*%
%IPPOS*%
%LPD*%
%AMOC8*
5,1,8,0,0,1.08239X$1,22.5*
%
%ADD10C,0.00000*%
D10*
X0003800Y0009800D02*
X0003800Y0210200D01*
X0228800Y0210200D01*
X0228800Y0009800D01*
X0003800Y0009800D01*
X0203894Y0117500D02*
X0203896Y0117653D01*
X0203902Y0117807D01*
X0203912Y0117960D01*
X0203926Y0118112D01*
X0203944Y0118265D01*
X0203966Y0118416D01*
X0203991Y0118567D01*
X0204021Y0118718D01*
X0204055Y0118868D01*
X0204092Y0119016D01*
X0204133Y0119164D01*
X0204178Y0119310D01*
X0204227Y0119456D01*
X0204280Y0119600D01*
X0204336Y0119742D01*
X0204396Y0119883D01*
X0204460Y0120023D01*
X0204527Y0120161D01*
X0204598Y0120297D01*
X0204673Y0120431D01*
X0204750Y0120563D01*
X0204832Y0120693D01*
X0204916Y0120821D01*
X0205004Y0120947D01*
X0205095Y0121070D01*
X0205189Y0121191D01*
X0205287Y0121309D01*
X0205387Y0121425D01*
X0205491Y0121538D01*
X0205597Y0121649D01*
X0205706Y0121757D01*
X0205818Y0121862D01*
X0205932Y0121963D01*
X0206050Y0122062D01*
X0206169Y0122158D01*
X0206291Y0122251D01*
X0206416Y0122340D01*
X0206543Y0122427D01*
X0206672Y0122509D01*
X0206803Y0122589D01*
X0206936Y0122665D01*
X0207071Y0122738D01*
X0207208Y0122807D01*
X0207347Y0122872D01*
X0207487Y0122934D01*
X0207629Y0122992D01*
X0207772Y0123047D01*
X0207917Y0123098D01*
X0208063Y0123145D01*
X0208210Y0123188D01*
X0208358Y0123227D01*
X0208507Y0123263D01*
X0208657Y0123294D01*
X0208808Y0123322D01*
X0208959Y0123346D01*
X0209112Y0123366D01*
X0209264Y0123382D01*
X0209417Y0123394D01*
X0209570Y0123402D01*
X0209723Y0123406D01*
X0209877Y0123406D01*
X0210030Y0123402D01*
X0210183Y0123394D01*
X0210336Y0123382D01*
X0210488Y0123366D01*
X0210641Y0123346D01*
X0210792Y0123322D01*
X0210943Y0123294D01*
X0211093Y0123263D01*
X0211242Y0123227D01*
X0211390Y0123188D01*
X0211537Y0123145D01*
X0211683Y0123098D01*
X0211828Y0123047D01*
X0211971Y0122992D01*
X0212113Y0122934D01*
X0212253Y0122872D01*
X0212392Y0122807D01*
X0212529Y0122738D01*
X0212664Y0122665D01*
X0212797Y0122589D01*
X0212928Y0122509D01*
X0213057Y0122427D01*
X0213184Y0122340D01*
X0213309Y0122251D01*
X0213431Y0122158D01*
X0213550Y0122062D01*
X0213668Y0121963D01*
X0213782Y0121862D01*
X0213894Y0121757D01*
X0214003Y0121649D01*
X0214109Y0121538D01*
X0214213Y0121425D01*
X0214313Y0121309D01*
X0214411Y0121191D01*
X0214505Y0121070D01*
X0214596Y0120947D01*
X0214684Y0120821D01*
X0214768Y0120693D01*
X0214850Y0120563D01*
X0214927Y0120431D01*
X0215002Y0120297D01*
X0215073Y0120161D01*
X0215140Y0120023D01*
X0215204Y0119883D01*
X0215264Y0119742D01*
X0215320Y0119600D01*
X0215373Y0119456D01*
X0215422Y0119310D01*
X0215467Y0119164D01*
X0215508Y0119016D01*
X0215545Y0118868D01*
X0215579Y0118718D01*
X0215609Y0118567D01*
X0215634Y0118416D01*
X0215656Y0118265D01*
X0215674Y0118112D01*
X0215688Y0117960D01*
X0215698Y0117807D01*
X0215704Y0117653D01*
X0215706Y0117500D01*
X0215704Y0117347D01*
X0215698Y0117193D01*
X0215688Y0117040D01*
X0215674Y0116888D01*
X0215656Y0116735D01*
X0215634Y0116584D01*
X0215609Y0116433D01*
X0215579Y0116282D01*
X0215545Y0116132D01*
X0215508Y0115984D01*
X0215467Y0115836D01*
X0215422Y0115690D01*
X0215373Y0115544D01*
X0215320Y0115400D01*
X0215264Y0115258D01*
X0215204Y0115117D01*
X0215140Y0114977D01*
X0215073Y0114839D01*
X0215002Y0114703D01*
X0214927Y0114569D01*
X0214850Y0114437D01*
X0214768Y0114307D01*
X0214684Y0114179D01*
X0214596Y0114053D01*
X0214505Y0113930D01*
X0214411Y0113809D01*
X0214313Y0113691D01*
X0214213Y0113575D01*
X0214109Y0113462D01*
X0214003Y0113351D01*
X0213894Y0113243D01*
X0213782Y0113138D01*
X0213668Y0113037D01*
X0213550Y0112938D01*
X0213431Y0112842D01*
X0213309Y0112749D01*
X0213184Y0112660D01*
X0213057Y0112573D01*
X0212928Y0112491D01*
X0212797Y0112411D01*
X0212664Y0112335D01*
X0212529Y0112262D01*
X0212392Y0112193D01*
X0212253Y0112128D01*
X0212113Y0112066D01*
X0211971Y0112008D01*
X0211828Y0111953D01*
X0211683Y0111902D01*
X0211537Y0111855D01*
X0211390Y0111812D01*
X0211242Y0111773D01*
X0211093Y0111737D01*
X0210943Y0111706D01*
X0210792Y0111678D01*
X0210641Y0111654D01*
X0210488Y0111634D01*
X0210336Y0111618D01*
X0210183Y0111606D01*
X0210030Y0111598D01*
X0209877Y0111594D01*
X0209723Y0111594D01*
X0209570Y0111598D01*
X0209417Y0111606D01*
X0209264Y0111618D01*
X0209112Y0111634D01*
X0208959Y0111654D01*
X0208808Y0111678D01*
X0208657Y0111706D01*
X0208507Y0111737D01*
X0208358Y0111773D01*
X0208210Y0111812D01*
X0208063Y0111855D01*
X0207917Y0111902D01*
X0207772Y0111953D01*
X0207629Y0112008D01*
X0207487Y0112066D01*
X0207347Y0112128D01*
X0207208Y0112193D01*
X0207071Y0112262D01*
X0206936Y0112335D01*
X0206803Y0112411D01*
X0206672Y0112491D01*
X0206543Y0112573D01*
X0206416Y0112660D01*
X0206291Y0112749D01*
X0206169Y0112842D01*
X0206050Y0112938D01*
X0205932Y0113037D01*
X0205818Y0113138D01*
X0205706Y0113243D01*
X0205597Y0113351D01*
X0205491Y0113462D01*
X0205387Y0113575D01*
X0205287Y0113691D01*
X0205189Y0113809D01*
X0205095Y0113930D01*
X0205004Y0114053D01*
X0204916Y0114179D01*
X0204832Y0114307D01*
X0204750Y0114437D01*
X0204673Y0114569D01*
X0204598Y0114703D01*
X0204527Y0114839D01*
X0204460Y0114977D01*
X0204396Y0115117D01*
X0204336Y0115258D01*
X0204280Y0115400D01*
X0204227Y0115544D01*
X0204178Y0115690D01*
X0204133Y0115836D01*
X0204092Y0115984D01*
X0204055Y0116132D01*
X0204021Y0116282D01*
X0203991Y0116433D01*
X0203966Y0116584D01*
X0203944Y0116735D01*
X0203926Y0116888D01*
X0203912Y0117040D01*
X0203902Y0117193D01*
X0203896Y0117347D01*
X0203894Y0117500D01*
M02*
