G75*
%MOIN*%
%OFA0B0*%
%FSLAX25Y25*%
%IPPOS*%
%LPD*%
%AMOC8*
5,1,8,0,0,1.08239X$1,22.5*
%
%ADD10R,0.03750X0.05324*%
%ADD11R,0.06624X0.06624*%
%ADD12C,0.06624*%
%ADD13C,0.12411*%
%ADD14R,0.04931X0.04537*%
%ADD15C,0.08000*%
%ADD16R,0.04537X0.04931*%
%ADD17OC8,0.04362*%
D10*
X0130257Y0130000D03*
X0137343Y0130000D03*
D11*
X0192792Y0123406D03*
D12*
X0192792Y0111594D03*
D13*
X0209800Y0117500D03*
D14*
X0137146Y0120000D03*
X0130454Y0120000D03*
X0130454Y0150000D03*
X0137146Y0150000D03*
D15*
X0043800Y0015000D03*
X0053800Y0015000D03*
X0063800Y0015000D03*
X0073800Y0015000D03*
X0083800Y0015000D03*
X0093800Y0015000D03*
X0103800Y0015000D03*
X0113800Y0015000D03*
X0128800Y0015000D03*
X0138800Y0015000D03*
X0148800Y0015000D03*
X0158800Y0015000D03*
X0168800Y0015000D03*
X0178800Y0015000D03*
X0188800Y0015000D03*
X0198800Y0015000D03*
X0208800Y0015000D03*
X0218800Y0015000D03*
X0063800Y0110000D03*
X0056300Y0115000D03*
X0063800Y0120000D03*
X0063800Y0195000D03*
X0063800Y0205000D03*
X0053800Y0205000D03*
X0053800Y0195000D03*
X0043800Y0195000D03*
X0043800Y0205000D03*
X0033800Y0205000D03*
X0033800Y0195000D03*
X0023800Y0195000D03*
X0023800Y0205000D03*
X0013800Y0205000D03*
X0013800Y0195000D03*
X0073800Y0195000D03*
X0073800Y0205000D03*
X0083800Y0205000D03*
X0083800Y0195000D03*
X0093800Y0195000D03*
X0093800Y0205000D03*
X0113800Y0205000D03*
X0123800Y0205000D03*
X0133800Y0205000D03*
X0143800Y0205000D03*
X0153800Y0205000D03*
X0163800Y0205000D03*
X0173800Y0205000D03*
X0183800Y0205000D03*
D16*
X0084300Y0118846D03*
X0084300Y0112154D03*
X0074800Y0112154D03*
X0074800Y0118846D03*
D17*
X0066800Y0133000D03*
X0051300Y0140000D03*
X0043300Y0125500D03*
X0042300Y0114500D03*
X0048800Y0099500D03*
X0066800Y0098000D03*
X0091300Y0104000D03*
X0095800Y0115000D03*
X0093800Y0127000D03*
X0115200Y0107350D03*
X0115300Y0123500D03*
X0115300Y0136500D03*
X0150300Y0138500D03*
X0151300Y0125000D03*
X0134300Y0103500D03*
X0179300Y0156000D03*
X0161300Y0171000D03*
X0104300Y0175500D03*
M02*
