G75*
%MOIN*%
%OFA0B0*%
%FSLAX25Y25*%
%IPPOS*%
%LPD*%
%AMOC8*
5,1,8,0,0,1.08239X$1,22.5*
%
%ADD10C,0.00000*%
%ADD11R,0.03150X0.04724*%
%ADD12R,0.06024X0.06024*%
%ADD13C,0.06024*%
%ADD14R,0.04331X0.03937*%
%ADD15C,0.07400*%
%ADD16R,0.03937X0.04331*%
%ADD17R,0.03543X0.03150*%
%ADD18OC8,0.08500*%
%ADD19C,0.01600*%
%ADD20C,0.03762*%
%ADD21C,0.01000*%
%ADD22C,0.06000*%
%ADD23C,0.05000*%
%ADD24C,0.04000*%
%ADD25C,0.00800*%
D10*
X0003800Y0009800D02*
X0003800Y0210200D01*
X0228800Y0210200D01*
X0228800Y0009800D01*
X0003800Y0009800D01*
X0203894Y0117500D02*
X0203896Y0117653D01*
X0203902Y0117807D01*
X0203912Y0117960D01*
X0203926Y0118112D01*
X0203944Y0118265D01*
X0203966Y0118416D01*
X0203991Y0118567D01*
X0204021Y0118718D01*
X0204055Y0118868D01*
X0204092Y0119016D01*
X0204133Y0119164D01*
X0204178Y0119310D01*
X0204227Y0119456D01*
X0204280Y0119600D01*
X0204336Y0119742D01*
X0204396Y0119883D01*
X0204460Y0120023D01*
X0204527Y0120161D01*
X0204598Y0120297D01*
X0204673Y0120431D01*
X0204750Y0120563D01*
X0204832Y0120693D01*
X0204916Y0120821D01*
X0205004Y0120947D01*
X0205095Y0121070D01*
X0205189Y0121191D01*
X0205287Y0121309D01*
X0205387Y0121425D01*
X0205491Y0121538D01*
X0205597Y0121649D01*
X0205706Y0121757D01*
X0205818Y0121862D01*
X0205932Y0121963D01*
X0206050Y0122062D01*
X0206169Y0122158D01*
X0206291Y0122251D01*
X0206416Y0122340D01*
X0206543Y0122427D01*
X0206672Y0122509D01*
X0206803Y0122589D01*
X0206936Y0122665D01*
X0207071Y0122738D01*
X0207208Y0122807D01*
X0207347Y0122872D01*
X0207487Y0122934D01*
X0207629Y0122992D01*
X0207772Y0123047D01*
X0207917Y0123098D01*
X0208063Y0123145D01*
X0208210Y0123188D01*
X0208358Y0123227D01*
X0208507Y0123263D01*
X0208657Y0123294D01*
X0208808Y0123322D01*
X0208959Y0123346D01*
X0209112Y0123366D01*
X0209264Y0123382D01*
X0209417Y0123394D01*
X0209570Y0123402D01*
X0209723Y0123406D01*
X0209877Y0123406D01*
X0210030Y0123402D01*
X0210183Y0123394D01*
X0210336Y0123382D01*
X0210488Y0123366D01*
X0210641Y0123346D01*
X0210792Y0123322D01*
X0210943Y0123294D01*
X0211093Y0123263D01*
X0211242Y0123227D01*
X0211390Y0123188D01*
X0211537Y0123145D01*
X0211683Y0123098D01*
X0211828Y0123047D01*
X0211971Y0122992D01*
X0212113Y0122934D01*
X0212253Y0122872D01*
X0212392Y0122807D01*
X0212529Y0122738D01*
X0212664Y0122665D01*
X0212797Y0122589D01*
X0212928Y0122509D01*
X0213057Y0122427D01*
X0213184Y0122340D01*
X0213309Y0122251D01*
X0213431Y0122158D01*
X0213550Y0122062D01*
X0213668Y0121963D01*
X0213782Y0121862D01*
X0213894Y0121757D01*
X0214003Y0121649D01*
X0214109Y0121538D01*
X0214213Y0121425D01*
X0214313Y0121309D01*
X0214411Y0121191D01*
X0214505Y0121070D01*
X0214596Y0120947D01*
X0214684Y0120821D01*
X0214768Y0120693D01*
X0214850Y0120563D01*
X0214927Y0120431D01*
X0215002Y0120297D01*
X0215073Y0120161D01*
X0215140Y0120023D01*
X0215204Y0119883D01*
X0215264Y0119742D01*
X0215320Y0119600D01*
X0215373Y0119456D01*
X0215422Y0119310D01*
X0215467Y0119164D01*
X0215508Y0119016D01*
X0215545Y0118868D01*
X0215579Y0118718D01*
X0215609Y0118567D01*
X0215634Y0118416D01*
X0215656Y0118265D01*
X0215674Y0118112D01*
X0215688Y0117960D01*
X0215698Y0117807D01*
X0215704Y0117653D01*
X0215706Y0117500D01*
X0215704Y0117347D01*
X0215698Y0117193D01*
X0215688Y0117040D01*
X0215674Y0116888D01*
X0215656Y0116735D01*
X0215634Y0116584D01*
X0215609Y0116433D01*
X0215579Y0116282D01*
X0215545Y0116132D01*
X0215508Y0115984D01*
X0215467Y0115836D01*
X0215422Y0115690D01*
X0215373Y0115544D01*
X0215320Y0115400D01*
X0215264Y0115258D01*
X0215204Y0115117D01*
X0215140Y0114977D01*
X0215073Y0114839D01*
X0215002Y0114703D01*
X0214927Y0114569D01*
X0214850Y0114437D01*
X0214768Y0114307D01*
X0214684Y0114179D01*
X0214596Y0114053D01*
X0214505Y0113930D01*
X0214411Y0113809D01*
X0214313Y0113691D01*
X0214213Y0113575D01*
X0214109Y0113462D01*
X0214003Y0113351D01*
X0213894Y0113243D01*
X0213782Y0113138D01*
X0213668Y0113037D01*
X0213550Y0112938D01*
X0213431Y0112842D01*
X0213309Y0112749D01*
X0213184Y0112660D01*
X0213057Y0112573D01*
X0212928Y0112491D01*
X0212797Y0112411D01*
X0212664Y0112335D01*
X0212529Y0112262D01*
X0212392Y0112193D01*
X0212253Y0112128D01*
X0212113Y0112066D01*
X0211971Y0112008D01*
X0211828Y0111953D01*
X0211683Y0111902D01*
X0211537Y0111855D01*
X0211390Y0111812D01*
X0211242Y0111773D01*
X0211093Y0111737D01*
X0210943Y0111706D01*
X0210792Y0111678D01*
X0210641Y0111654D01*
X0210488Y0111634D01*
X0210336Y0111618D01*
X0210183Y0111606D01*
X0210030Y0111598D01*
X0209877Y0111594D01*
X0209723Y0111594D01*
X0209570Y0111598D01*
X0209417Y0111606D01*
X0209264Y0111618D01*
X0209112Y0111634D01*
X0208959Y0111654D01*
X0208808Y0111678D01*
X0208657Y0111706D01*
X0208507Y0111737D01*
X0208358Y0111773D01*
X0208210Y0111812D01*
X0208063Y0111855D01*
X0207917Y0111902D01*
X0207772Y0111953D01*
X0207629Y0112008D01*
X0207487Y0112066D01*
X0207347Y0112128D01*
X0207208Y0112193D01*
X0207071Y0112262D01*
X0206936Y0112335D01*
X0206803Y0112411D01*
X0206672Y0112491D01*
X0206543Y0112573D01*
X0206416Y0112660D01*
X0206291Y0112749D01*
X0206169Y0112842D01*
X0206050Y0112938D01*
X0205932Y0113037D01*
X0205818Y0113138D01*
X0205706Y0113243D01*
X0205597Y0113351D01*
X0205491Y0113462D01*
X0205387Y0113575D01*
X0205287Y0113691D01*
X0205189Y0113809D01*
X0205095Y0113930D01*
X0205004Y0114053D01*
X0204916Y0114179D01*
X0204832Y0114307D01*
X0204750Y0114437D01*
X0204673Y0114569D01*
X0204598Y0114703D01*
X0204527Y0114839D01*
X0204460Y0114977D01*
X0204396Y0115117D01*
X0204336Y0115258D01*
X0204280Y0115400D01*
X0204227Y0115544D01*
X0204178Y0115690D01*
X0204133Y0115836D01*
X0204092Y0115984D01*
X0204055Y0116132D01*
X0204021Y0116282D01*
X0203991Y0116433D01*
X0203966Y0116584D01*
X0203944Y0116735D01*
X0203926Y0116888D01*
X0203912Y0117040D01*
X0203902Y0117193D01*
X0203896Y0117347D01*
X0203894Y0117500D01*
D11*
X0137343Y0130000D03*
X0130257Y0130000D03*
D12*
X0192792Y0123406D03*
D13*
X0192792Y0111594D03*
D14*
X0137146Y0120000D03*
X0130454Y0120000D03*
X0130454Y0150000D03*
X0137146Y0150000D03*
D15*
X0093800Y0195000D03*
X0093800Y0205000D03*
X0083800Y0205000D03*
X0083800Y0195000D03*
X0073800Y0195000D03*
X0073800Y0205000D03*
X0063800Y0205000D03*
X0063800Y0195000D03*
X0053800Y0195000D03*
X0053800Y0205000D03*
X0043800Y0205000D03*
X0043800Y0195000D03*
X0033800Y0195000D03*
X0033800Y0205000D03*
X0023800Y0205000D03*
X0023800Y0195000D03*
X0013800Y0195000D03*
X0013800Y0205000D03*
X0063800Y0120000D03*
X0056300Y0115000D03*
X0063800Y0110000D03*
X0063800Y0015000D03*
X0053800Y0015000D03*
X0043800Y0015000D03*
X0073800Y0015000D03*
X0083800Y0015000D03*
X0093800Y0015000D03*
X0103800Y0015000D03*
X0113800Y0015000D03*
X0128800Y0015000D03*
X0138800Y0015000D03*
X0148800Y0015000D03*
X0158800Y0015000D03*
X0168800Y0015000D03*
X0178800Y0015000D03*
X0188800Y0015000D03*
X0198800Y0015000D03*
X0208800Y0015000D03*
X0218800Y0015000D03*
X0183800Y0205000D03*
X0173800Y0205000D03*
X0163800Y0205000D03*
X0153800Y0205000D03*
X0143800Y0205000D03*
X0133800Y0205000D03*
X0123800Y0205000D03*
X0113800Y0205000D03*
D16*
X0084300Y0118846D03*
X0084300Y0112154D03*
X0074800Y0112154D03*
X0074800Y0118846D03*
D17*
X0178900Y0145350D03*
X0184900Y0145350D03*
D18*
X0110350Y0176100D03*
X0031550Y0101350D03*
X0017950Y0130750D03*
D19*
X0018150Y0130950D02*
X0024000Y0130950D01*
X0024000Y0133256D01*
X0020456Y0136800D01*
X0018150Y0136800D01*
X0018150Y0130950D01*
X0018150Y0130550D01*
X0024000Y0130550D01*
X0024000Y0128244D01*
X0020456Y0124700D01*
X0018150Y0124700D01*
X0018150Y0130550D01*
X0017750Y0130550D01*
X0017750Y0124700D01*
X0015444Y0124700D01*
X0011900Y0128244D01*
X0011900Y0130550D01*
X0017750Y0130550D01*
X0017750Y0130950D01*
X0017750Y0136800D01*
X0015444Y0136800D01*
X0011900Y0133256D01*
X0011900Y0130950D01*
X0017750Y0130950D01*
X0018150Y0130950D01*
X0018150Y0131487D02*
X0017750Y0131487D01*
X0017750Y0133085D02*
X0018150Y0133085D01*
X0018150Y0134684D02*
X0017750Y0134684D01*
X0017750Y0136282D02*
X0018150Y0136282D01*
X0014926Y0136282D02*
X0006100Y0136282D01*
X0006100Y0134684D02*
X0013328Y0134684D01*
X0011900Y0133085D02*
X0006100Y0133085D01*
X0006100Y0131487D02*
X0011900Y0131487D01*
X0011900Y0129888D02*
X0006100Y0129888D01*
X0006100Y0128290D02*
X0011900Y0128290D01*
X0013453Y0126691D02*
X0006100Y0126691D01*
X0006100Y0125093D02*
X0015051Y0125093D01*
X0017750Y0125093D02*
X0018150Y0125093D01*
X0018150Y0126691D02*
X0017750Y0126691D01*
X0017750Y0128290D02*
X0018150Y0128290D01*
X0018150Y0129888D02*
X0017750Y0129888D01*
X0022447Y0126691D02*
X0055600Y0126691D01*
X0055600Y0125093D02*
X0020849Y0125093D01*
X0024000Y0128290D02*
X0055600Y0128290D01*
X0055600Y0129888D02*
X0024000Y0129888D01*
X0024000Y0131487D02*
X0055600Y0131487D01*
X0055600Y0133085D02*
X0024000Y0133085D01*
X0022572Y0134684D02*
X0055600Y0134684D01*
X0055600Y0136282D02*
X0020974Y0136282D01*
X0006100Y0137881D02*
X0055600Y0137881D01*
X0055600Y0139479D02*
X0006100Y0139479D01*
X0006100Y0141078D02*
X0055600Y0141078D01*
X0055600Y0142676D02*
X0006100Y0142676D01*
X0006100Y0144275D02*
X0055600Y0144275D01*
X0055600Y0145873D02*
X0006100Y0145873D01*
X0006100Y0147472D02*
X0055600Y0147472D01*
X0055600Y0149070D02*
X0006100Y0149070D01*
X0006100Y0150669D02*
X0055600Y0150669D01*
X0055600Y0152268D02*
X0006100Y0152268D01*
X0006100Y0153866D02*
X0055600Y0153866D01*
X0055600Y0155465D02*
X0006100Y0155465D01*
X0006100Y0157063D02*
X0055600Y0157063D01*
X0055600Y0158662D02*
X0006100Y0158662D01*
X0006100Y0160260D02*
X0055600Y0160260D01*
X0055600Y0161859D02*
X0006100Y0161859D01*
X0006100Y0163457D02*
X0055600Y0163457D01*
X0055600Y0165056D02*
X0006100Y0165056D01*
X0006100Y0166654D02*
X0055600Y0166654D01*
X0055600Y0168253D02*
X0006100Y0168253D01*
X0006100Y0169851D02*
X0055600Y0169851D01*
X0055600Y0171450D02*
X0006100Y0171450D01*
X0006100Y0173048D02*
X0055600Y0173048D01*
X0055600Y0174647D02*
X0006100Y0174647D01*
X0006100Y0176245D02*
X0055600Y0176245D01*
X0055600Y0177844D02*
X0006100Y0177844D01*
X0006100Y0179442D02*
X0055600Y0179442D01*
X0055600Y0181041D02*
X0006100Y0181041D01*
X0006100Y0182639D02*
X0055600Y0182639D01*
X0055600Y0184238D02*
X0006100Y0184238D01*
X0006100Y0185836D02*
X0055600Y0185836D01*
X0055600Y0187411D02*
X0055600Y0120500D01*
X0055206Y0120500D01*
X0053184Y0119663D01*
X0051637Y0118115D01*
X0050800Y0116094D01*
X0050800Y0113906D01*
X0051637Y0111884D01*
X0052500Y0111022D01*
X0052500Y0105150D01*
X0036306Y0105150D01*
X0034056Y0107400D01*
X0029044Y0107400D01*
X0025500Y0103856D01*
X0025500Y0098844D01*
X0029044Y0095300D01*
X0034056Y0095300D01*
X0036306Y0097550D01*
X0057056Y0097550D01*
X0058453Y0098129D01*
X0059521Y0099197D01*
X0060100Y0100594D01*
X0060100Y0105922D01*
X0060684Y0105337D01*
X0062706Y0104500D01*
X0064894Y0104500D01*
X0066915Y0105337D01*
X0067578Y0106000D01*
X0071461Y0106000D01*
X0071667Y0105935D01*
X0072410Y0106000D01*
X0073155Y0106000D01*
X0073354Y0106083D01*
X0073570Y0106102D01*
X0074231Y0106446D01*
X0074919Y0106731D01*
X0075072Y0106884D01*
X0075968Y0107350D01*
X0082967Y0107350D01*
X0082988Y0107342D01*
X0083921Y0107350D01*
X0084855Y0107350D01*
X0084875Y0107358D01*
X0085297Y0107362D01*
X0087055Y0108109D01*
X0088393Y0109471D01*
X0089108Y0111241D01*
X0089091Y0113151D01*
X0088345Y0114908D01*
X0087687Y0115554D01*
X0087709Y0115576D01*
X0087946Y0115986D01*
X0088068Y0116444D01*
X0088068Y0118662D01*
X0084484Y0118662D01*
X0084484Y0119031D01*
X0084116Y0119031D01*
X0084116Y0122812D01*
X0082095Y0122812D01*
X0081637Y0122689D01*
X0081226Y0122452D01*
X0080891Y0122117D01*
X0080654Y0121707D01*
X0080531Y0121249D01*
X0080531Y0119031D01*
X0084116Y0119031D01*
X0084116Y0118662D01*
X0080531Y0118662D01*
X0080531Y0116950D01*
X0078568Y0116950D01*
X0078568Y0118662D01*
X0074984Y0118662D01*
X0074984Y0119031D01*
X0074616Y0119031D01*
X0074616Y0122812D01*
X0072595Y0122812D01*
X0072137Y0122689D01*
X0071726Y0122452D01*
X0071391Y0122117D01*
X0071154Y0121707D01*
X0071031Y0121249D01*
X0071031Y0119031D01*
X0074616Y0119031D01*
X0074616Y0118662D01*
X0071031Y0118662D01*
X0071031Y0116444D01*
X0071154Y0115986D01*
X0071296Y0115741D01*
X0071025Y0115600D01*
X0067101Y0115600D01*
X0067383Y0115805D01*
X0067995Y0116417D01*
X0068504Y0117117D01*
X0068897Y0117889D01*
X0069165Y0118712D01*
X0069300Y0119567D01*
X0069300Y0120000D01*
X0069300Y0120433D01*
X0069165Y0121288D01*
X0068897Y0122111D01*
X0068504Y0122883D01*
X0067995Y0123583D01*
X0067383Y0124195D01*
X0066683Y0124704D01*
X0065911Y0125097D01*
X0065088Y0125365D01*
X0064233Y0125500D01*
X0063800Y0125500D01*
X0063800Y0120000D01*
X0063800Y0120000D01*
X0069300Y0120000D01*
X0063800Y0120000D01*
X0063800Y0120000D01*
X0063800Y0125500D01*
X0063367Y0125500D01*
X0062512Y0125365D01*
X0061689Y0125097D01*
X0060917Y0124704D01*
X0060217Y0124195D01*
X0060000Y0123978D01*
X0060000Y0185589D01*
X0060711Y0186300D01*
X0079211Y0186300D01*
X0079711Y0186800D01*
X0081000Y0188089D01*
X0081000Y0190207D01*
X0082706Y0189500D01*
X0084894Y0189500D01*
X0086915Y0190337D01*
X0088463Y0191884D01*
X0088800Y0192699D01*
X0089137Y0191884D01*
X0090684Y0190337D01*
X0092706Y0189500D01*
X0094894Y0189500D01*
X0096915Y0190337D01*
X0098463Y0191884D01*
X0099300Y0193906D01*
X0099300Y0196094D01*
X0099262Y0196185D01*
X0110225Y0185222D01*
X0110225Y0182150D01*
X0107844Y0182150D01*
X0104300Y0178606D01*
X0104300Y0173594D01*
X0107844Y0170050D01*
X0112856Y0170050D01*
X0115336Y0172530D01*
X0116178Y0172879D01*
X0117246Y0173947D01*
X0117825Y0175344D01*
X0117825Y0177622D01*
X0128150Y0167297D01*
X0128150Y0153768D01*
X0127543Y0153768D01*
X0126488Y0152714D01*
X0126488Y0147286D01*
X0127543Y0146231D01*
X0133364Y0146231D01*
X0133800Y0146667D01*
X0134236Y0146231D01*
X0134900Y0146231D01*
X0134900Y0134039D01*
X0133969Y0133108D01*
X0133969Y0126892D01*
X0134900Y0125961D01*
X0134900Y0123768D01*
X0134236Y0123768D01*
X0133800Y0123333D01*
X0133724Y0123409D01*
X0133314Y0123646D01*
X0132856Y0123768D01*
X0130638Y0123768D01*
X0130638Y0120184D01*
X0130269Y0120184D01*
X0130269Y0119816D01*
X0126488Y0119816D01*
X0126488Y0117795D01*
X0126611Y0117337D01*
X0126848Y0116926D01*
X0127183Y0116591D01*
X0127593Y0116354D01*
X0128051Y0116231D01*
X0130269Y0116231D01*
X0130269Y0119816D01*
X0130638Y0119816D01*
X0130638Y0116231D01*
X0132856Y0116231D01*
X0133314Y0116354D01*
X0133724Y0116591D01*
X0133800Y0116667D01*
X0134236Y0116231D01*
X0137766Y0116231D01*
X0144597Y0109400D01*
X0188493Y0109400D01*
X0188713Y0108869D01*
X0190066Y0107515D01*
X0191835Y0106783D01*
X0193749Y0106783D01*
X0195518Y0107515D01*
X0196871Y0108869D01*
X0197604Y0110637D01*
X0197604Y0112552D01*
X0196871Y0114320D01*
X0195518Y0115674D01*
X0193749Y0116406D01*
X0191835Y0116406D01*
X0190066Y0115674D01*
X0188713Y0114320D01*
X0188580Y0114000D01*
X0146503Y0114000D01*
X0141112Y0119391D01*
X0141112Y0122714D01*
X0140057Y0123768D01*
X0139500Y0123768D01*
X0139500Y0125838D01*
X0139664Y0125838D01*
X0140718Y0126892D01*
X0140718Y0133108D01*
X0139664Y0134162D01*
X0139500Y0134162D01*
X0139500Y0146231D01*
X0140057Y0146231D01*
X0141112Y0147286D01*
X0141112Y0152714D01*
X0140057Y0153768D01*
X0134236Y0153768D01*
X0133800Y0153333D01*
X0133364Y0153768D01*
X0132750Y0153768D01*
X0132750Y0169203D01*
X0117825Y0184128D01*
X0117825Y0185431D01*
X0117246Y0186828D01*
X0116178Y0187896D01*
X0114781Y0188475D01*
X0113478Y0188475D01*
X0098933Y0203020D01*
X0099300Y0203906D01*
X0099300Y0206094D01*
X0098552Y0207900D01*
X0109048Y0207900D01*
X0108300Y0206094D01*
X0108300Y0203906D01*
X0109137Y0201884D01*
X0109600Y0201422D01*
X0109600Y0198095D01*
X0110255Y0196514D01*
X0164605Y0142164D01*
X0185799Y0120970D01*
X0187009Y0119760D01*
X0188476Y0119152D01*
X0189035Y0118594D01*
X0196550Y0118594D01*
X0197604Y0119648D01*
X0197604Y0127163D01*
X0196550Y0128217D01*
X0190714Y0128217D01*
X0177381Y0141550D01*
X0179656Y0141550D01*
X0180682Y0141975D01*
X0181417Y0141975D01*
X0181900Y0142458D01*
X0182023Y0142335D01*
X0182434Y0142098D01*
X0182891Y0141975D01*
X0184900Y0141975D01*
X0186909Y0141975D01*
X0187366Y0142098D01*
X0187777Y0142335D01*
X0188112Y0142670D01*
X0188349Y0143080D01*
X0188472Y0143538D01*
X0188472Y0145350D01*
X0188472Y0147162D01*
X0188349Y0147620D01*
X0188112Y0148030D01*
X0187777Y0148365D01*
X0187366Y0148602D01*
X0186909Y0148725D01*
X0184900Y0148725D01*
X0184900Y0145350D01*
X0184900Y0145350D01*
X0188472Y0145350D01*
X0184900Y0145350D01*
X0184900Y0145350D01*
X0184900Y0148725D01*
X0182891Y0148725D01*
X0182434Y0148602D01*
X0182023Y0148365D01*
X0181900Y0148242D01*
X0181417Y0148725D01*
X0180682Y0148725D01*
X0179656Y0149150D01*
X0169781Y0149150D01*
X0118200Y0200731D01*
X0118200Y0201622D01*
X0118463Y0201884D01*
X0118800Y0202699D01*
X0119096Y0202117D01*
X0119605Y0201417D01*
X0120217Y0200805D01*
X0120917Y0200296D01*
X0121689Y0199903D01*
X0122512Y0199635D01*
X0123367Y0199500D01*
X0123600Y0199500D01*
X0123600Y0204800D01*
X0124000Y0204800D01*
X0124000Y0205200D01*
X0128300Y0205200D01*
X0133600Y0205200D01*
X0133600Y0204800D01*
X0124000Y0204800D01*
X0124000Y0199500D01*
X0124233Y0199500D01*
X0125088Y0199635D01*
X0125911Y0199903D01*
X0126683Y0200296D01*
X0127383Y0200805D01*
X0127995Y0201417D01*
X0128504Y0202117D01*
X0128800Y0202698D01*
X0129096Y0202117D01*
X0129605Y0201417D01*
X0130217Y0200805D01*
X0130917Y0200296D01*
X0131689Y0199903D01*
X0132512Y0199635D01*
X0133367Y0199500D01*
X0133600Y0199500D01*
X0133600Y0204800D01*
X0134000Y0204800D01*
X0134000Y0199500D01*
X0134233Y0199500D01*
X0135088Y0199635D01*
X0135911Y0199903D01*
X0136683Y0200296D01*
X0137383Y0200805D01*
X0137995Y0201417D01*
X0138504Y0202117D01*
X0138800Y0202699D01*
X0139137Y0201884D01*
X0140684Y0200337D01*
X0142706Y0199500D01*
X0144894Y0199500D01*
X0146915Y0200337D01*
X0148463Y0201884D01*
X0148800Y0202699D01*
X0149137Y0201884D01*
X0150684Y0200337D01*
X0152706Y0199500D01*
X0154894Y0199500D01*
X0156915Y0200337D01*
X0158463Y0201884D01*
X0158800Y0202699D01*
X0159137Y0201884D01*
X0160684Y0200337D01*
X0162706Y0199500D01*
X0164894Y0199500D01*
X0166915Y0200337D01*
X0168463Y0201884D01*
X0168800Y0202699D01*
X0169137Y0201884D01*
X0170684Y0200337D01*
X0172706Y0199500D01*
X0174894Y0199500D01*
X0176915Y0200337D01*
X0178463Y0201884D01*
X0178800Y0202699D01*
X0179137Y0201884D01*
X0180684Y0200337D01*
X0182706Y0199500D01*
X0184894Y0199500D01*
X0186915Y0200337D01*
X0188463Y0201884D01*
X0189300Y0203906D01*
X0189300Y0206094D01*
X0188552Y0207900D01*
X0226500Y0207900D01*
X0226500Y0012100D01*
X0223552Y0012100D01*
X0224300Y0013906D01*
X0224300Y0016094D01*
X0223463Y0018115D01*
X0221915Y0019663D01*
X0219894Y0020500D01*
X0217706Y0020500D01*
X0215684Y0019663D01*
X0214137Y0018115D01*
X0213800Y0017301D01*
X0213463Y0018115D01*
X0211915Y0019663D01*
X0209894Y0020500D01*
X0207706Y0020500D01*
X0205684Y0019663D01*
X0204137Y0018115D01*
X0203800Y0017301D01*
X0203463Y0018115D01*
X0201915Y0019663D01*
X0199894Y0020500D01*
X0197706Y0020500D01*
X0195684Y0019663D01*
X0194137Y0018115D01*
X0193800Y0017301D01*
X0193504Y0017883D01*
X0192995Y0018583D01*
X0192383Y0019195D01*
X0191683Y0019704D01*
X0190911Y0020097D01*
X0190088Y0020365D01*
X0189233Y0020500D01*
X0189000Y0020500D01*
X0189000Y0015200D01*
X0188600Y0015200D01*
X0188600Y0020500D01*
X0188367Y0020500D01*
X0187512Y0020365D01*
X0186689Y0020097D01*
X0185917Y0019704D01*
X0185217Y0019195D01*
X0184605Y0018583D01*
X0184096Y0017883D01*
X0183800Y0017301D01*
X0183463Y0018115D01*
X0181915Y0019663D01*
X0179894Y0020500D01*
X0177706Y0020500D01*
X0175684Y0019663D01*
X0174137Y0018115D01*
X0173800Y0017301D01*
X0173463Y0018115D01*
X0171915Y0019663D01*
X0169894Y0020500D01*
X0167706Y0020500D01*
X0165684Y0019663D01*
X0164137Y0018115D01*
X0163800Y0017301D01*
X0163463Y0018115D01*
X0161915Y0019663D01*
X0159894Y0020500D01*
X0157706Y0020500D01*
X0155684Y0019663D01*
X0154137Y0018115D01*
X0153800Y0017301D01*
X0153463Y0018115D01*
X0151915Y0019663D01*
X0149894Y0020500D01*
X0147706Y0020500D01*
X0145684Y0019663D01*
X0144137Y0018115D01*
X0143800Y0017301D01*
X0143463Y0018115D01*
X0141915Y0019663D01*
X0139894Y0020500D01*
X0137706Y0020500D01*
X0135684Y0019663D01*
X0134137Y0018115D01*
X0133800Y0017301D01*
X0133463Y0018115D01*
X0131915Y0019663D01*
X0129894Y0020500D01*
X0127706Y0020500D01*
X0125684Y0019663D01*
X0124137Y0018115D01*
X0123300Y0016094D01*
X0123300Y0013906D01*
X0124048Y0012100D01*
X0118552Y0012100D01*
X0119300Y0013906D01*
X0119300Y0016094D01*
X0118463Y0018115D01*
X0116915Y0019663D01*
X0114894Y0020500D01*
X0112706Y0020500D01*
X0110684Y0019663D01*
X0109137Y0018115D01*
X0108800Y0017301D01*
X0108463Y0018115D01*
X0106915Y0019663D01*
X0104894Y0020500D01*
X0102706Y0020500D01*
X0100684Y0019663D01*
X0099137Y0018115D01*
X0098800Y0017301D01*
X0098463Y0018115D01*
X0096915Y0019663D01*
X0094894Y0020500D01*
X0092706Y0020500D01*
X0090684Y0019663D01*
X0089137Y0018115D01*
X0088800Y0017301D01*
X0088463Y0018115D01*
X0086915Y0019663D01*
X0084894Y0020500D01*
X0082706Y0020500D01*
X0080684Y0019663D01*
X0079137Y0018115D01*
X0078800Y0017301D01*
X0078463Y0018115D01*
X0076915Y0019663D01*
X0074894Y0020500D01*
X0072706Y0020500D01*
X0070684Y0019663D01*
X0069137Y0018115D01*
X0068800Y0017301D01*
X0068463Y0018115D01*
X0066915Y0019663D01*
X0064894Y0020500D01*
X0062706Y0020500D01*
X0060684Y0019663D01*
X0059137Y0018115D01*
X0058800Y0017301D01*
X0058463Y0018115D01*
X0056915Y0019663D01*
X0054894Y0020500D01*
X0052706Y0020500D01*
X0050684Y0019663D01*
X0049137Y0018115D01*
X0048800Y0017301D01*
X0048463Y0018115D01*
X0046915Y0019663D01*
X0044894Y0020500D01*
X0042706Y0020500D01*
X0040684Y0019663D01*
X0039137Y0018115D01*
X0038300Y0016094D01*
X0038300Y0013906D01*
X0039048Y0012100D01*
X0006100Y0012100D01*
X0006100Y0207900D01*
X0009048Y0207900D01*
X0008300Y0206094D01*
X0008300Y0203906D01*
X0009137Y0201884D01*
X0010684Y0200337D01*
X0011499Y0200000D01*
X0010684Y0199663D01*
X0009137Y0198115D01*
X0008300Y0196094D01*
X0008300Y0193906D01*
X0009137Y0191884D01*
X0010684Y0190337D01*
X0012706Y0189500D01*
X0014894Y0189500D01*
X0016915Y0190337D01*
X0018463Y0191884D01*
X0018800Y0192699D01*
X0019137Y0191884D01*
X0020684Y0190337D01*
X0022706Y0189500D01*
X0024894Y0189500D01*
X0026915Y0190337D01*
X0028463Y0191884D01*
X0028800Y0192699D01*
X0029096Y0192117D01*
X0029605Y0191417D01*
X0030217Y0190805D01*
X0030917Y0190296D01*
X0031689Y0189903D01*
X0032512Y0189635D01*
X0033367Y0189500D01*
X0033600Y0189500D01*
X0033600Y0194800D01*
X0034000Y0194800D01*
X0034000Y0189500D01*
X0034233Y0189500D01*
X0035088Y0189635D01*
X0035911Y0189903D01*
X0036683Y0190296D01*
X0037383Y0190805D01*
X0037995Y0191417D01*
X0038504Y0192117D01*
X0038800Y0192699D01*
X0039137Y0191884D01*
X0040684Y0190337D01*
X0042706Y0189500D01*
X0044894Y0189500D01*
X0046915Y0190337D01*
X0048463Y0191884D01*
X0048800Y0192699D01*
X0049137Y0191884D01*
X0050684Y0190337D01*
X0052706Y0189500D01*
X0054894Y0189500D01*
X0056915Y0190337D01*
X0058463Y0191884D01*
X0058800Y0192699D01*
X0059137Y0191884D01*
X0060322Y0190700D01*
X0058889Y0190700D01*
X0057600Y0189411D01*
X0055600Y0187411D01*
X0055623Y0187435D02*
X0006100Y0187435D01*
X0006100Y0189033D02*
X0057222Y0189033D01*
X0057210Y0190632D02*
X0058821Y0190632D01*
X0058994Y0192230D02*
X0058606Y0192230D01*
X0060248Y0185836D02*
X0109611Y0185836D01*
X0110225Y0184238D02*
X0060000Y0184238D01*
X0060000Y0182639D02*
X0110225Y0182639D01*
X0106735Y0181041D02*
X0060000Y0181041D01*
X0060000Y0179442D02*
X0105136Y0179442D01*
X0104300Y0177844D02*
X0060000Y0177844D01*
X0060000Y0176245D02*
X0104300Y0176245D01*
X0104300Y0174647D02*
X0060000Y0174647D01*
X0060000Y0173048D02*
X0104846Y0173048D01*
X0106444Y0171450D02*
X0060000Y0171450D01*
X0060000Y0169851D02*
X0125596Y0169851D01*
X0123998Y0171450D02*
X0114256Y0171450D01*
X0116347Y0173048D02*
X0122399Y0173048D01*
X0120801Y0174647D02*
X0117536Y0174647D01*
X0117825Y0176245D02*
X0119202Y0176245D01*
X0122510Y0179442D02*
X0127327Y0179442D01*
X0128925Y0177844D02*
X0124109Y0177844D01*
X0125707Y0176245D02*
X0130524Y0176245D01*
X0132122Y0174647D02*
X0127306Y0174647D01*
X0128905Y0173048D02*
X0133721Y0173048D01*
X0135319Y0171450D02*
X0130503Y0171450D01*
X0132102Y0169851D02*
X0136918Y0169851D01*
X0138516Y0168253D02*
X0132750Y0168253D01*
X0132750Y0166654D02*
X0140115Y0166654D01*
X0141713Y0165056D02*
X0132750Y0165056D01*
X0132750Y0163457D02*
X0143312Y0163457D01*
X0144910Y0161859D02*
X0132750Y0161859D01*
X0132750Y0160260D02*
X0146509Y0160260D01*
X0148107Y0158662D02*
X0132750Y0158662D01*
X0132750Y0157063D02*
X0149706Y0157063D01*
X0151304Y0155465D02*
X0132750Y0155465D01*
X0132750Y0153866D02*
X0152903Y0153866D01*
X0154501Y0152268D02*
X0141112Y0152268D01*
X0141112Y0150669D02*
X0156100Y0150669D01*
X0157698Y0149070D02*
X0141112Y0149070D01*
X0141112Y0147472D02*
X0159297Y0147472D01*
X0160895Y0145873D02*
X0139500Y0145873D01*
X0139500Y0144275D02*
X0162494Y0144275D01*
X0164092Y0142676D02*
X0139500Y0142676D01*
X0139500Y0141078D02*
X0165691Y0141078D01*
X0167289Y0139479D02*
X0139500Y0139479D01*
X0139500Y0137881D02*
X0168888Y0137881D01*
X0170486Y0136282D02*
X0139500Y0136282D01*
X0139500Y0134684D02*
X0172085Y0134684D01*
X0173684Y0133085D02*
X0140718Y0133085D01*
X0140718Y0131487D02*
X0175282Y0131487D01*
X0176881Y0129888D02*
X0140718Y0129888D01*
X0140718Y0128290D02*
X0178479Y0128290D01*
X0180078Y0126691D02*
X0140517Y0126691D01*
X0139500Y0125093D02*
X0181676Y0125093D01*
X0183275Y0123494D02*
X0140332Y0123494D01*
X0141112Y0121896D02*
X0184873Y0121896D01*
X0186472Y0120297D02*
X0141112Y0120297D01*
X0141804Y0118699D02*
X0188930Y0118699D01*
X0189894Y0115502D02*
X0145001Y0115502D01*
X0143402Y0117100D02*
X0201594Y0117100D01*
X0201594Y0115868D02*
X0202844Y0112852D01*
X0205152Y0110544D01*
X0208168Y0109294D01*
X0211432Y0109294D01*
X0214448Y0110544D01*
X0216756Y0112852D01*
X0218005Y0115868D01*
X0218005Y0119132D01*
X0216756Y0122148D01*
X0214448Y0124456D01*
X0211432Y0125705D01*
X0208168Y0125705D01*
X0205152Y0124456D01*
X0202844Y0122148D01*
X0201594Y0119132D01*
X0201594Y0115868D01*
X0201746Y0115502D02*
X0195690Y0115502D01*
X0197044Y0113903D02*
X0202408Y0113903D01*
X0203391Y0112305D02*
X0197604Y0112305D01*
X0197604Y0110706D02*
X0204989Y0110706D01*
X0196970Y0109108D02*
X0226500Y0109108D01*
X0226500Y0110706D02*
X0214611Y0110706D01*
X0216209Y0112305D02*
X0226500Y0112305D01*
X0226500Y0113903D02*
X0217192Y0113903D01*
X0217854Y0115502D02*
X0226500Y0115502D01*
X0226500Y0117100D02*
X0218005Y0117100D01*
X0218005Y0118699D02*
X0226500Y0118699D01*
X0226500Y0120297D02*
X0217523Y0120297D01*
X0216861Y0121896D02*
X0226500Y0121896D01*
X0226500Y0123494D02*
X0215410Y0123494D01*
X0212911Y0125093D02*
X0226500Y0125093D01*
X0226500Y0126691D02*
X0197604Y0126691D01*
X0197604Y0125093D02*
X0206689Y0125093D01*
X0204190Y0123494D02*
X0197604Y0123494D01*
X0197604Y0121896D02*
X0202739Y0121896D01*
X0202077Y0120297D02*
X0197604Y0120297D01*
X0196655Y0118699D02*
X0201594Y0118699D01*
X0190641Y0128290D02*
X0226500Y0128290D01*
X0226500Y0129888D02*
X0189043Y0129888D01*
X0187444Y0131487D02*
X0226500Y0131487D01*
X0226500Y0133085D02*
X0185846Y0133085D01*
X0184247Y0134684D02*
X0226500Y0134684D01*
X0226500Y0136282D02*
X0182649Y0136282D01*
X0181050Y0137881D02*
X0226500Y0137881D01*
X0226500Y0139479D02*
X0179452Y0139479D01*
X0177853Y0141078D02*
X0226500Y0141078D01*
X0226500Y0142676D02*
X0188116Y0142676D01*
X0188472Y0144275D02*
X0226500Y0144275D01*
X0226500Y0145873D02*
X0188472Y0145873D01*
X0188389Y0147472D02*
X0226500Y0147472D01*
X0226500Y0149070D02*
X0179848Y0149070D01*
X0184900Y0147472D02*
X0184900Y0147472D01*
X0184900Y0145873D02*
X0184900Y0145873D01*
X0184900Y0145350D02*
X0184900Y0141975D01*
X0184900Y0145350D01*
X0184900Y0145350D01*
X0184900Y0144275D02*
X0184900Y0144275D01*
X0184900Y0142676D02*
X0184900Y0142676D01*
X0168262Y0150669D02*
X0226500Y0150669D01*
X0226500Y0152268D02*
X0166664Y0152268D01*
X0165065Y0153866D02*
X0226500Y0153866D01*
X0226500Y0155465D02*
X0163467Y0155465D01*
X0161868Y0157063D02*
X0226500Y0157063D01*
X0226500Y0158662D02*
X0160270Y0158662D01*
X0158671Y0160260D02*
X0226500Y0160260D01*
X0226500Y0161859D02*
X0157073Y0161859D01*
X0155474Y0163457D02*
X0226500Y0163457D01*
X0226500Y0165056D02*
X0153876Y0165056D01*
X0152277Y0166654D02*
X0226500Y0166654D01*
X0226500Y0168253D02*
X0150678Y0168253D01*
X0149080Y0169851D02*
X0226500Y0169851D01*
X0226500Y0171450D02*
X0147481Y0171450D01*
X0145883Y0173048D02*
X0226500Y0173048D01*
X0226500Y0174647D02*
X0144284Y0174647D01*
X0142686Y0176245D02*
X0226500Y0176245D01*
X0226500Y0177844D02*
X0141087Y0177844D01*
X0139489Y0179442D02*
X0226500Y0179442D01*
X0226500Y0181041D02*
X0137890Y0181041D01*
X0136292Y0182639D02*
X0226500Y0182639D01*
X0226500Y0184238D02*
X0134693Y0184238D01*
X0133095Y0185836D02*
X0226500Y0185836D01*
X0226500Y0187435D02*
X0131496Y0187435D01*
X0129898Y0189033D02*
X0226500Y0189033D01*
X0226500Y0190632D02*
X0128299Y0190632D01*
X0126701Y0192230D02*
X0226500Y0192230D01*
X0226500Y0193829D02*
X0125102Y0193829D01*
X0123504Y0195427D02*
X0226500Y0195427D01*
X0226500Y0197026D02*
X0121905Y0197026D01*
X0120307Y0198624D02*
X0226500Y0198624D01*
X0226500Y0200223D02*
X0186639Y0200223D01*
X0188400Y0201821D02*
X0226500Y0201821D01*
X0226500Y0203420D02*
X0189099Y0203420D01*
X0189300Y0205018D02*
X0226500Y0205018D01*
X0226500Y0206617D02*
X0189083Y0206617D01*
X0180961Y0200223D02*
X0176639Y0200223D01*
X0178400Y0201821D02*
X0179200Y0201821D01*
X0170961Y0200223D02*
X0166639Y0200223D01*
X0168400Y0201821D02*
X0169200Y0201821D01*
X0160961Y0200223D02*
X0156639Y0200223D01*
X0158400Y0201821D02*
X0159200Y0201821D01*
X0150961Y0200223D02*
X0146639Y0200223D01*
X0148400Y0201821D02*
X0149200Y0201821D01*
X0140961Y0200223D02*
X0136539Y0200223D01*
X0138289Y0201821D02*
X0139200Y0201821D01*
X0134000Y0201821D02*
X0133600Y0201821D01*
X0133600Y0200223D02*
X0134000Y0200223D01*
X0131061Y0200223D02*
X0126539Y0200223D01*
X0128289Y0201821D02*
X0129311Y0201821D01*
X0133600Y0203420D02*
X0134000Y0203420D01*
X0133600Y0205018D02*
X0124000Y0205018D01*
X0124000Y0203420D02*
X0123600Y0203420D01*
X0123600Y0201821D02*
X0124000Y0201821D01*
X0124000Y0200223D02*
X0123600Y0200223D01*
X0121061Y0200223D02*
X0118708Y0200223D01*
X0118400Y0201821D02*
X0119311Y0201821D01*
X0111342Y0195427D02*
X0106525Y0195427D01*
X0104927Y0197026D02*
X0110043Y0197026D01*
X0109600Y0198624D02*
X0103328Y0198624D01*
X0101730Y0200223D02*
X0109600Y0200223D01*
X0109200Y0201821D02*
X0100131Y0201821D01*
X0099099Y0203420D02*
X0108501Y0203420D01*
X0108300Y0205018D02*
X0099300Y0205018D01*
X0099083Y0206617D02*
X0108517Y0206617D01*
X0100020Y0195427D02*
X0099300Y0195427D01*
X0099268Y0193829D02*
X0101619Y0193829D01*
X0103217Y0192230D02*
X0098606Y0192230D01*
X0097210Y0190632D02*
X0104816Y0190632D01*
X0106414Y0189033D02*
X0081000Y0189033D01*
X0080346Y0187435D02*
X0108013Y0187435D01*
X0111321Y0190632D02*
X0116137Y0190632D01*
X0114539Y0192230D02*
X0109722Y0192230D01*
X0108124Y0193829D02*
X0112940Y0193829D01*
X0112919Y0189033D02*
X0117736Y0189033D01*
X0116639Y0187435D02*
X0119334Y0187435D01*
X0120933Y0185836D02*
X0117657Y0185836D01*
X0117825Y0184238D02*
X0122531Y0184238D01*
X0124130Y0182639D02*
X0119313Y0182639D01*
X0120912Y0181041D02*
X0125728Y0181041D01*
X0127195Y0168253D02*
X0060000Y0168253D01*
X0060000Y0166654D02*
X0128150Y0166654D01*
X0128150Y0165056D02*
X0060000Y0165056D01*
X0060000Y0163457D02*
X0128150Y0163457D01*
X0128150Y0161859D02*
X0060000Y0161859D01*
X0060000Y0160260D02*
X0128150Y0160260D01*
X0128150Y0158662D02*
X0060000Y0158662D01*
X0060000Y0157063D02*
X0128150Y0157063D01*
X0128150Y0155465D02*
X0060000Y0155465D01*
X0060000Y0153866D02*
X0128150Y0153866D01*
X0126488Y0152268D02*
X0060000Y0152268D01*
X0060000Y0150669D02*
X0126488Y0150669D01*
X0126488Y0149070D02*
X0060000Y0149070D01*
X0060000Y0147472D02*
X0126488Y0147472D01*
X0134900Y0145873D02*
X0060000Y0145873D01*
X0060000Y0144275D02*
X0134900Y0144275D01*
X0134900Y0142676D02*
X0060000Y0142676D01*
X0060000Y0141078D02*
X0134900Y0141078D01*
X0134900Y0139479D02*
X0060000Y0139479D01*
X0060000Y0137881D02*
X0134900Y0137881D01*
X0134900Y0136282D02*
X0060000Y0136282D01*
X0060000Y0134684D02*
X0134900Y0134684D01*
X0133969Y0133085D02*
X0133492Y0133085D01*
X0133509Y0133057D02*
X0133272Y0133467D01*
X0132937Y0133803D01*
X0132526Y0134040D01*
X0132068Y0134162D01*
X0130257Y0134162D01*
X0130257Y0130000D01*
X0133631Y0130000D01*
X0133631Y0132599D01*
X0133509Y0133057D01*
X0133631Y0131487D02*
X0133969Y0131487D01*
X0133631Y0130000D02*
X0130257Y0130000D01*
X0130257Y0130000D01*
X0130257Y0125838D01*
X0132068Y0125838D01*
X0132526Y0125960D01*
X0132937Y0126197D01*
X0133272Y0126533D01*
X0133509Y0126943D01*
X0133631Y0127401D01*
X0133631Y0130000D01*
X0133631Y0129888D02*
X0133969Y0129888D01*
X0133969Y0128290D02*
X0133631Y0128290D01*
X0133364Y0126691D02*
X0134169Y0126691D01*
X0134900Y0125093D02*
X0065920Y0125093D01*
X0063800Y0125093D02*
X0063800Y0125093D01*
X0063800Y0123494D02*
X0063800Y0123494D01*
X0063800Y0121896D02*
X0063800Y0121896D01*
X0063800Y0120297D02*
X0063800Y0120297D01*
X0068060Y0123494D02*
X0127331Y0123494D01*
X0127183Y0123409D02*
X0126848Y0123074D01*
X0126611Y0122663D01*
X0126488Y0122205D01*
X0126488Y0120184D01*
X0130269Y0120184D01*
X0130269Y0123768D01*
X0128051Y0123768D01*
X0127593Y0123646D01*
X0127183Y0123409D01*
X0126488Y0121896D02*
X0087837Y0121896D01*
X0087946Y0121707D02*
X0087709Y0122117D01*
X0087374Y0122452D01*
X0086963Y0122689D01*
X0086505Y0122812D01*
X0084484Y0122812D01*
X0084484Y0119031D01*
X0088068Y0119031D01*
X0088068Y0121249D01*
X0087946Y0121707D01*
X0088068Y0120297D02*
X0126488Y0120297D01*
X0126488Y0118699D02*
X0084484Y0118699D01*
X0084116Y0118699D02*
X0074984Y0118699D01*
X0074984Y0119031D02*
X0078568Y0119031D01*
X0078568Y0121249D01*
X0078446Y0121707D01*
X0078209Y0122117D01*
X0077874Y0122452D01*
X0077463Y0122689D01*
X0077005Y0122812D01*
X0074984Y0122812D01*
X0074984Y0119031D01*
X0074616Y0118699D02*
X0069160Y0118699D01*
X0069300Y0120297D02*
X0071031Y0120297D01*
X0071263Y0121896D02*
X0068967Y0121896D01*
X0068492Y0117100D02*
X0071031Y0117100D01*
X0074616Y0120297D02*
X0074984Y0120297D01*
X0074984Y0121896D02*
X0074616Y0121896D01*
X0078337Y0121896D02*
X0080763Y0121896D01*
X0080531Y0120297D02*
X0078568Y0120297D01*
X0078568Y0117100D02*
X0080531Y0117100D01*
X0084116Y0120297D02*
X0084484Y0120297D01*
X0084484Y0121896D02*
X0084116Y0121896D01*
X0088068Y0117100D02*
X0126747Y0117100D01*
X0130269Y0117100D02*
X0130638Y0117100D01*
X0130638Y0118699D02*
X0130269Y0118699D01*
X0130269Y0120297D02*
X0130638Y0120297D01*
X0130638Y0121896D02*
X0130269Y0121896D01*
X0130269Y0123494D02*
X0130638Y0123494D01*
X0130257Y0125838D02*
X0128445Y0125838D01*
X0127987Y0125960D01*
X0127577Y0126197D01*
X0127242Y0126533D01*
X0127005Y0126943D01*
X0126882Y0127401D01*
X0126882Y0130000D01*
X0130257Y0130000D01*
X0130257Y0130000D01*
X0130257Y0130000D01*
X0130257Y0125838D01*
X0130257Y0126691D02*
X0130257Y0126691D01*
X0130257Y0128290D02*
X0130257Y0128290D01*
X0130257Y0129888D02*
X0130257Y0129888D01*
X0130257Y0130000D02*
X0130257Y0130000D01*
X0130257Y0134162D01*
X0128445Y0134162D01*
X0127987Y0134040D01*
X0127577Y0133803D01*
X0127242Y0133467D01*
X0127005Y0133057D01*
X0126882Y0132599D01*
X0126882Y0130000D01*
X0130257Y0130000D01*
X0130257Y0131487D02*
X0130257Y0131487D01*
X0130257Y0133085D02*
X0130257Y0133085D01*
X0127021Y0133085D02*
X0060000Y0133085D01*
X0060000Y0131487D02*
X0126882Y0131487D01*
X0126882Y0129888D02*
X0060000Y0129888D01*
X0060000Y0128290D02*
X0126882Y0128290D01*
X0127150Y0126691D02*
X0060000Y0126691D01*
X0060000Y0125093D02*
X0061680Y0125093D01*
X0055600Y0123494D02*
X0006100Y0123494D01*
X0006100Y0121896D02*
X0055600Y0121896D01*
X0054717Y0120297D02*
X0006100Y0120297D01*
X0006100Y0118699D02*
X0052221Y0118699D01*
X0051217Y0117100D02*
X0006100Y0117100D01*
X0006100Y0115502D02*
X0050800Y0115502D01*
X0050801Y0113903D02*
X0006100Y0113903D01*
X0006100Y0112305D02*
X0051463Y0112305D01*
X0052500Y0110706D02*
X0006100Y0110706D01*
X0006100Y0109108D02*
X0052500Y0109108D01*
X0052500Y0107509D02*
X0006100Y0107509D01*
X0006100Y0105911D02*
X0027555Y0105911D01*
X0025956Y0104312D02*
X0006100Y0104312D01*
X0006100Y0102714D02*
X0025500Y0102714D01*
X0025500Y0101115D02*
X0006100Y0101115D01*
X0006100Y0099517D02*
X0025500Y0099517D01*
X0026426Y0097918D02*
X0006100Y0097918D01*
X0006100Y0096320D02*
X0028024Y0096320D01*
X0035076Y0096320D02*
X0226500Y0096320D01*
X0226500Y0097918D02*
X0057945Y0097918D01*
X0059654Y0099517D02*
X0226500Y0099517D01*
X0226500Y0101115D02*
X0060100Y0101115D01*
X0060100Y0102714D02*
X0226500Y0102714D01*
X0226500Y0104312D02*
X0060100Y0104312D01*
X0060100Y0105911D02*
X0060111Y0105911D01*
X0067489Y0105911D02*
X0226500Y0105911D01*
X0226500Y0107509D02*
X0195503Y0107509D01*
X0190081Y0107509D02*
X0085643Y0107509D01*
X0088037Y0109108D02*
X0188614Y0109108D01*
X0226500Y0094721D02*
X0006100Y0094721D01*
X0006100Y0093123D02*
X0226500Y0093123D01*
X0226500Y0091524D02*
X0006100Y0091524D01*
X0006100Y0089926D02*
X0226500Y0089926D01*
X0226500Y0088327D02*
X0006100Y0088327D01*
X0006100Y0086729D02*
X0226500Y0086729D01*
X0226500Y0085130D02*
X0006100Y0085130D01*
X0006100Y0083532D02*
X0226500Y0083532D01*
X0226500Y0081933D02*
X0006100Y0081933D01*
X0006100Y0080334D02*
X0226500Y0080334D01*
X0226500Y0078736D02*
X0006100Y0078736D01*
X0006100Y0077137D02*
X0226500Y0077137D01*
X0226500Y0075539D02*
X0006100Y0075539D01*
X0006100Y0073940D02*
X0226500Y0073940D01*
X0226500Y0072342D02*
X0006100Y0072342D01*
X0006100Y0070743D02*
X0226500Y0070743D01*
X0226500Y0069145D02*
X0006100Y0069145D01*
X0006100Y0067546D02*
X0226500Y0067546D01*
X0226500Y0065948D02*
X0006100Y0065948D01*
X0006100Y0064349D02*
X0226500Y0064349D01*
X0226500Y0062751D02*
X0006100Y0062751D01*
X0006100Y0061152D02*
X0226500Y0061152D01*
X0226500Y0059554D02*
X0006100Y0059554D01*
X0006100Y0057955D02*
X0226500Y0057955D01*
X0226500Y0056357D02*
X0006100Y0056357D01*
X0006100Y0054758D02*
X0226500Y0054758D01*
X0226500Y0053160D02*
X0006100Y0053160D01*
X0006100Y0051561D02*
X0226500Y0051561D01*
X0226500Y0049963D02*
X0006100Y0049963D01*
X0006100Y0048364D02*
X0226500Y0048364D01*
X0226500Y0046766D02*
X0006100Y0046766D01*
X0006100Y0045167D02*
X0226500Y0045167D01*
X0226500Y0043569D02*
X0006100Y0043569D01*
X0006100Y0041970D02*
X0226500Y0041970D01*
X0226500Y0040372D02*
X0006100Y0040372D01*
X0006100Y0038773D02*
X0226500Y0038773D01*
X0226500Y0037175D02*
X0006100Y0037175D01*
X0006100Y0035576D02*
X0226500Y0035576D01*
X0226500Y0033978D02*
X0006100Y0033978D01*
X0006100Y0032379D02*
X0226500Y0032379D01*
X0226500Y0030781D02*
X0006100Y0030781D01*
X0006100Y0029182D02*
X0226500Y0029182D01*
X0226500Y0027584D02*
X0006100Y0027584D01*
X0006100Y0025985D02*
X0226500Y0025985D01*
X0226500Y0024387D02*
X0006100Y0024387D01*
X0006100Y0022788D02*
X0226500Y0022788D01*
X0226500Y0021190D02*
X0006100Y0021190D01*
X0006100Y0019591D02*
X0040613Y0019591D01*
X0039086Y0017993D02*
X0006100Y0017993D01*
X0006100Y0016394D02*
X0038424Y0016394D01*
X0038300Y0014796D02*
X0006100Y0014796D01*
X0006100Y0013197D02*
X0038594Y0013197D01*
X0046987Y0019591D02*
X0050613Y0019591D01*
X0049086Y0017993D02*
X0048514Y0017993D01*
X0056987Y0019591D02*
X0060613Y0019591D01*
X0059086Y0017993D02*
X0058514Y0017993D01*
X0066987Y0019591D02*
X0070613Y0019591D01*
X0069086Y0017993D02*
X0068514Y0017993D01*
X0076987Y0019591D02*
X0080613Y0019591D01*
X0079086Y0017993D02*
X0078514Y0017993D01*
X0086987Y0019591D02*
X0090613Y0019591D01*
X0089086Y0017993D02*
X0088514Y0017993D01*
X0096987Y0019591D02*
X0100613Y0019591D01*
X0099086Y0017993D02*
X0098514Y0017993D01*
X0106987Y0019591D02*
X0110613Y0019591D01*
X0109086Y0017993D02*
X0108514Y0017993D01*
X0116987Y0019591D02*
X0125613Y0019591D01*
X0124086Y0017993D02*
X0118514Y0017993D01*
X0119176Y0016394D02*
X0123424Y0016394D01*
X0123300Y0014796D02*
X0119300Y0014796D01*
X0119006Y0013197D02*
X0123594Y0013197D01*
X0131987Y0019591D02*
X0135613Y0019591D01*
X0134086Y0017993D02*
X0133514Y0017993D01*
X0141987Y0019591D02*
X0145613Y0019591D01*
X0144086Y0017993D02*
X0143514Y0017993D01*
X0151987Y0019591D02*
X0155613Y0019591D01*
X0154086Y0017993D02*
X0153514Y0017993D01*
X0161987Y0019591D02*
X0165613Y0019591D01*
X0164086Y0017993D02*
X0163514Y0017993D01*
X0171987Y0019591D02*
X0175613Y0019591D01*
X0174086Y0017993D02*
X0173514Y0017993D01*
X0181987Y0019591D02*
X0185762Y0019591D01*
X0184176Y0017993D02*
X0183514Y0017993D01*
X0188600Y0017993D02*
X0189000Y0017993D01*
X0189000Y0019591D02*
X0188600Y0019591D01*
X0188600Y0016394D02*
X0189000Y0016394D01*
X0191838Y0019591D02*
X0195613Y0019591D01*
X0194086Y0017993D02*
X0193424Y0017993D01*
X0201987Y0019591D02*
X0205613Y0019591D01*
X0204086Y0017993D02*
X0203514Y0017993D01*
X0211987Y0019591D02*
X0215613Y0019591D01*
X0214086Y0017993D02*
X0213514Y0017993D01*
X0221987Y0019591D02*
X0226500Y0019591D01*
X0226500Y0017993D02*
X0223514Y0017993D01*
X0224176Y0016394D02*
X0226500Y0016394D01*
X0226500Y0014796D02*
X0224300Y0014796D01*
X0224006Y0013197D02*
X0226500Y0013197D01*
X0143291Y0110706D02*
X0088892Y0110706D01*
X0089099Y0112305D02*
X0141693Y0112305D01*
X0140094Y0113903D02*
X0088772Y0113903D01*
X0087741Y0115502D02*
X0138496Y0115502D01*
X0133961Y0123494D02*
X0133576Y0123494D01*
X0090390Y0190632D02*
X0087210Y0190632D01*
X0088606Y0192230D02*
X0088994Y0192230D01*
X0050390Y0190632D02*
X0047210Y0190632D01*
X0048606Y0192230D02*
X0048994Y0192230D01*
X0040390Y0190632D02*
X0037145Y0190632D01*
X0038562Y0192230D02*
X0038994Y0192230D01*
X0034000Y0192230D02*
X0033600Y0192230D01*
X0033600Y0190632D02*
X0034000Y0190632D01*
X0034000Y0193829D02*
X0033600Y0193829D01*
X0030455Y0190632D02*
X0027210Y0190632D01*
X0028606Y0192230D02*
X0029038Y0192230D01*
X0020390Y0190632D02*
X0017210Y0190632D01*
X0018606Y0192230D02*
X0018994Y0192230D01*
X0010390Y0190632D02*
X0006100Y0190632D01*
X0006100Y0192230D02*
X0008994Y0192230D01*
X0008332Y0193829D02*
X0006100Y0193829D01*
X0006100Y0195427D02*
X0008300Y0195427D01*
X0008686Y0197026D02*
X0006100Y0197026D01*
X0006100Y0198624D02*
X0009646Y0198624D01*
X0010961Y0200223D02*
X0006100Y0200223D01*
X0006100Y0201821D02*
X0009200Y0201821D01*
X0008501Y0203420D02*
X0006100Y0203420D01*
X0006100Y0205018D02*
X0008300Y0205018D01*
X0008517Y0206617D02*
X0006100Y0206617D01*
X0035545Y0105911D02*
X0052500Y0105911D01*
D20*
X0045400Y0110250D03*
X0046000Y0123050D03*
X0047900Y0129850D03*
X0048800Y0135750D03*
X0048450Y0142550D03*
X0040950Y0139600D03*
X0063650Y0137500D03*
X0070400Y0131100D03*
X0063500Y0145450D03*
X0087200Y0126050D03*
X0094150Y0119100D03*
X0094150Y0111800D03*
X0085800Y0101700D03*
X0074500Y0102950D03*
X0057550Y0093650D03*
X0041300Y0093650D03*
X0092150Y0134250D03*
X0101900Y0134050D03*
X0111300Y0137350D03*
X0122100Y0140500D03*
X0122600Y0149050D03*
X0109550Y0160050D03*
X0102850Y0159700D03*
X0100750Y0175750D03*
X0103800Y0184950D03*
X0119900Y0171750D03*
X0133450Y0193950D03*
X0151000Y0176600D03*
X0156400Y0169300D03*
X0161900Y0163950D03*
X0166600Y0156250D03*
X0180050Y0155400D03*
X0188800Y0153850D03*
X0193800Y0145750D03*
X0181200Y0119800D03*
X0181550Y0104850D03*
X0163700Y0118050D03*
X0148250Y0118900D03*
X0144100Y0130900D03*
X0153150Y0146350D03*
X0144100Y0150400D03*
X0121050Y0130400D03*
X0121600Y0120150D03*
X0121450Y0112500D03*
X0141800Y0103650D03*
X0202400Y0105550D03*
X0079800Y0184500D03*
X0069350Y0184650D03*
X0037100Y0186800D03*
X0010600Y0039600D03*
X0012000Y0019050D03*
X0021900Y0018550D03*
X0030750Y0018550D03*
D21*
X0137146Y0120000D02*
X0137450Y0119800D01*
X0145550Y0111700D01*
X0192350Y0111700D01*
X0192792Y0111594D01*
X0137200Y0120100D02*
X0137146Y0120000D01*
X0137200Y0120100D02*
X0137200Y0130000D01*
X0137343Y0130000D01*
X0137200Y0130450D01*
X0137200Y0149800D01*
X0137146Y0150000D01*
X0130454Y0150000D02*
X0130450Y0150250D01*
X0130450Y0168250D01*
X0114025Y0184675D01*
X0094000Y0204700D01*
X0093800Y0205000D01*
D22*
X0084300Y0112154D02*
X0083900Y0112150D01*
X0074900Y0112150D01*
X0074800Y0112154D01*
X0072200Y0110800D01*
X0064550Y0110800D01*
X0064100Y0110350D01*
X0063800Y0110000D01*
D23*
X0113900Y0198950D02*
X0168250Y0144600D01*
X0189444Y0123406D01*
X0192792Y0123406D01*
X0113900Y0198950D02*
X0113900Y0204900D01*
X0113800Y0205000D01*
D24*
X0114025Y0184675D02*
X0114025Y0176100D01*
X0110350Y0176100D01*
X0168250Y0145350D02*
X0168250Y0144600D01*
X0168250Y0145350D02*
X0178900Y0145350D01*
X0056300Y0115000D02*
X0056300Y0101350D01*
X0031550Y0101350D01*
D25*
X0056300Y0115000D02*
X0057800Y0116500D01*
X0057800Y0186500D01*
X0059800Y0188500D01*
X0078300Y0188500D01*
X0078800Y0189000D01*
X0078800Y0201500D01*
X0082300Y0205000D01*
X0083800Y0205000D01*
M02*
