%
M48
M72
T01C0.0236
T02C0.0320
T03C0.0400
T04C0.0402
T05C0.1181
%
T01
X1200Y1905
X2190Y1855
X3075Y1855
X1060Y3960
X4130Y9365
X5755Y9365
X7450Y10295
X8580Y10170
X9415Y11180
X9415Y11910
X8720Y12605
X9215Y13425
X10190Y13405
X11130Y13735
X12210Y14050
X12260Y14905
X10955Y16005
X10285Y15970
X10075Y17575
X10380Y18495
X11990Y17175
X13345Y19395
X15100Y17660
X15640Y16930
X16190Y16395
X16660Y15625
X18005Y15540
X18880Y15385
X19380Y14575
X18120Y11980
X18155Y10485
X16370Y11805
X14825Y11890
X14410Y13090
X15315Y14635
X14410Y15040
X12105Y13040
X12160Y12015
X12145Y11250
X14180Y10365
X20240Y10555
X7980Y18450
X6935Y18465
X3710Y18680
X6350Y14545
X6365Y13750
X7040Y13110
X4880Y13575
X4790Y12985
X4600Y12305
X4540Y11025
X4095Y13960
X4845Y14255
T02
X6380Y12000
X5630Y11500
X6380Y11000
T03
X3155Y10135
X1795Y13075
X1380Y19500
X1380Y20500
X2380Y20500
X2380Y19500
X3380Y19500
X3380Y20500
X4380Y20500
X4380Y19500
X5380Y19500
X5380Y20500
X6380Y20500
X6380Y19500
X7380Y19500
X7380Y20500
X8380Y20500
X8380Y19500
X9380Y19500
X9380Y20500
X11380Y20500
X12380Y20500
X13380Y20500
X14380Y20500
X15380Y20500
X16380Y20500
X17380Y20500
X18380Y20500
X11035Y17610
X11380Y1500
X10380Y1500
X9380Y1500
X8380Y1500
X7380Y1500
X6380Y1500
X5380Y1500
X4380Y1500
X12880Y1500
X13880Y1500
X14880Y1500
X15880Y1500
X16880Y1500
X17880Y1500
X18880Y1500
X19880Y1500
X20880Y1500
X21880Y1500
T04
X19279Y11159
X19279Y12341
T05
X20980Y11750
M30
