%
M48
M72
T01C0.0236
T02C0.0320
T03C0.0400
T04C0.0402
T05C0.1181
%
T01
X4880Y9950
X6680Y9800
X4230Y11450
X4330Y12550
X5130Y14000
X6680Y13300
X9380Y12700
X9580Y11500
X9130Y10400
X11520Y10735
X11530Y12350
X11530Y13650
X15030Y13850
X15130Y12500
X13430Y10350
X17930Y15600
X16130Y17100
X10430Y17550
T02
X6380Y12000
X5630Y11500
X6380Y11000
T03
X4380Y1500
X5380Y1500
X6380Y1500
X7380Y1500
X8380Y1500
X9380Y1500
X10380Y1500
X11380Y1500
X12880Y1500
X13880Y1500
X14880Y1500
X15880Y1500
X16880Y1500
X17880Y1500
X18880Y1500
X19880Y1500
X20880Y1500
X21880Y1500
X9380Y19500
X9380Y20500
X8380Y20500
X8380Y19500
X7380Y19500
X7380Y20500
X6380Y20500
X6380Y19500
X5380Y19500
X5380Y20500
X4380Y20500
X4380Y19500
X3380Y19500
X3380Y20500
X2380Y20500
X2380Y19500
X1380Y19500
X1380Y20500
X11380Y20500
X12380Y20500
X13380Y20500
X14380Y20500
X15380Y20500
X16380Y20500
X17380Y20500
X18380Y20500
T04
X19279Y12341
X19279Y11159
T05
X20980Y11750
M30
