G75*
%MOIN*%
%OFA0B0*%
%FSLAX25Y25*%
%IPPOS*%
%LPD*%
%AMOC8*
5,1,8,0,0,1.08239X$1,22.5*
%
%ADD10C,0.00000*%
%ADD11R,0.06024X0.06024*%
%ADD12C,0.06024*%
%ADD13C,0.07400*%
%ADD14C,0.01600*%
%ADD15OC8,0.03762*%
%ADD16C,0.05000*%
D10*
X0003800Y0009800D02*
X0003800Y0210200D01*
X0228800Y0210200D01*
X0228800Y0009800D01*
X0003800Y0009800D01*
X0203894Y0117500D02*
X0203896Y0117653D01*
X0203902Y0117807D01*
X0203912Y0117960D01*
X0203926Y0118112D01*
X0203944Y0118265D01*
X0203966Y0118416D01*
X0203991Y0118567D01*
X0204021Y0118718D01*
X0204055Y0118868D01*
X0204092Y0119016D01*
X0204133Y0119164D01*
X0204178Y0119310D01*
X0204227Y0119456D01*
X0204280Y0119600D01*
X0204336Y0119742D01*
X0204396Y0119883D01*
X0204460Y0120023D01*
X0204527Y0120161D01*
X0204598Y0120297D01*
X0204673Y0120431D01*
X0204750Y0120563D01*
X0204832Y0120693D01*
X0204916Y0120821D01*
X0205004Y0120947D01*
X0205095Y0121070D01*
X0205189Y0121191D01*
X0205287Y0121309D01*
X0205387Y0121425D01*
X0205491Y0121538D01*
X0205597Y0121649D01*
X0205706Y0121757D01*
X0205818Y0121862D01*
X0205932Y0121963D01*
X0206050Y0122062D01*
X0206169Y0122158D01*
X0206291Y0122251D01*
X0206416Y0122340D01*
X0206543Y0122427D01*
X0206672Y0122509D01*
X0206803Y0122589D01*
X0206936Y0122665D01*
X0207071Y0122738D01*
X0207208Y0122807D01*
X0207347Y0122872D01*
X0207487Y0122934D01*
X0207629Y0122992D01*
X0207772Y0123047D01*
X0207917Y0123098D01*
X0208063Y0123145D01*
X0208210Y0123188D01*
X0208358Y0123227D01*
X0208507Y0123263D01*
X0208657Y0123294D01*
X0208808Y0123322D01*
X0208959Y0123346D01*
X0209112Y0123366D01*
X0209264Y0123382D01*
X0209417Y0123394D01*
X0209570Y0123402D01*
X0209723Y0123406D01*
X0209877Y0123406D01*
X0210030Y0123402D01*
X0210183Y0123394D01*
X0210336Y0123382D01*
X0210488Y0123366D01*
X0210641Y0123346D01*
X0210792Y0123322D01*
X0210943Y0123294D01*
X0211093Y0123263D01*
X0211242Y0123227D01*
X0211390Y0123188D01*
X0211537Y0123145D01*
X0211683Y0123098D01*
X0211828Y0123047D01*
X0211971Y0122992D01*
X0212113Y0122934D01*
X0212253Y0122872D01*
X0212392Y0122807D01*
X0212529Y0122738D01*
X0212664Y0122665D01*
X0212797Y0122589D01*
X0212928Y0122509D01*
X0213057Y0122427D01*
X0213184Y0122340D01*
X0213309Y0122251D01*
X0213431Y0122158D01*
X0213550Y0122062D01*
X0213668Y0121963D01*
X0213782Y0121862D01*
X0213894Y0121757D01*
X0214003Y0121649D01*
X0214109Y0121538D01*
X0214213Y0121425D01*
X0214313Y0121309D01*
X0214411Y0121191D01*
X0214505Y0121070D01*
X0214596Y0120947D01*
X0214684Y0120821D01*
X0214768Y0120693D01*
X0214850Y0120563D01*
X0214927Y0120431D01*
X0215002Y0120297D01*
X0215073Y0120161D01*
X0215140Y0120023D01*
X0215204Y0119883D01*
X0215264Y0119742D01*
X0215320Y0119600D01*
X0215373Y0119456D01*
X0215422Y0119310D01*
X0215467Y0119164D01*
X0215508Y0119016D01*
X0215545Y0118868D01*
X0215579Y0118718D01*
X0215609Y0118567D01*
X0215634Y0118416D01*
X0215656Y0118265D01*
X0215674Y0118112D01*
X0215688Y0117960D01*
X0215698Y0117807D01*
X0215704Y0117653D01*
X0215706Y0117500D01*
X0215704Y0117347D01*
X0215698Y0117193D01*
X0215688Y0117040D01*
X0215674Y0116888D01*
X0215656Y0116735D01*
X0215634Y0116584D01*
X0215609Y0116433D01*
X0215579Y0116282D01*
X0215545Y0116132D01*
X0215508Y0115984D01*
X0215467Y0115836D01*
X0215422Y0115690D01*
X0215373Y0115544D01*
X0215320Y0115400D01*
X0215264Y0115258D01*
X0215204Y0115117D01*
X0215140Y0114977D01*
X0215073Y0114839D01*
X0215002Y0114703D01*
X0214927Y0114569D01*
X0214850Y0114437D01*
X0214768Y0114307D01*
X0214684Y0114179D01*
X0214596Y0114053D01*
X0214505Y0113930D01*
X0214411Y0113809D01*
X0214313Y0113691D01*
X0214213Y0113575D01*
X0214109Y0113462D01*
X0214003Y0113351D01*
X0213894Y0113243D01*
X0213782Y0113138D01*
X0213668Y0113037D01*
X0213550Y0112938D01*
X0213431Y0112842D01*
X0213309Y0112749D01*
X0213184Y0112660D01*
X0213057Y0112573D01*
X0212928Y0112491D01*
X0212797Y0112411D01*
X0212664Y0112335D01*
X0212529Y0112262D01*
X0212392Y0112193D01*
X0212253Y0112128D01*
X0212113Y0112066D01*
X0211971Y0112008D01*
X0211828Y0111953D01*
X0211683Y0111902D01*
X0211537Y0111855D01*
X0211390Y0111812D01*
X0211242Y0111773D01*
X0211093Y0111737D01*
X0210943Y0111706D01*
X0210792Y0111678D01*
X0210641Y0111654D01*
X0210488Y0111634D01*
X0210336Y0111618D01*
X0210183Y0111606D01*
X0210030Y0111598D01*
X0209877Y0111594D01*
X0209723Y0111594D01*
X0209570Y0111598D01*
X0209417Y0111606D01*
X0209264Y0111618D01*
X0209112Y0111634D01*
X0208959Y0111654D01*
X0208808Y0111678D01*
X0208657Y0111706D01*
X0208507Y0111737D01*
X0208358Y0111773D01*
X0208210Y0111812D01*
X0208063Y0111855D01*
X0207917Y0111902D01*
X0207772Y0111953D01*
X0207629Y0112008D01*
X0207487Y0112066D01*
X0207347Y0112128D01*
X0207208Y0112193D01*
X0207071Y0112262D01*
X0206936Y0112335D01*
X0206803Y0112411D01*
X0206672Y0112491D01*
X0206543Y0112573D01*
X0206416Y0112660D01*
X0206291Y0112749D01*
X0206169Y0112842D01*
X0206050Y0112938D01*
X0205932Y0113037D01*
X0205818Y0113138D01*
X0205706Y0113243D01*
X0205597Y0113351D01*
X0205491Y0113462D01*
X0205387Y0113575D01*
X0205287Y0113691D01*
X0205189Y0113809D01*
X0205095Y0113930D01*
X0205004Y0114053D01*
X0204916Y0114179D01*
X0204832Y0114307D01*
X0204750Y0114437D01*
X0204673Y0114569D01*
X0204598Y0114703D01*
X0204527Y0114839D01*
X0204460Y0114977D01*
X0204396Y0115117D01*
X0204336Y0115258D01*
X0204280Y0115400D01*
X0204227Y0115544D01*
X0204178Y0115690D01*
X0204133Y0115836D01*
X0204092Y0115984D01*
X0204055Y0116132D01*
X0204021Y0116282D01*
X0203991Y0116433D01*
X0203966Y0116584D01*
X0203944Y0116735D01*
X0203926Y0116888D01*
X0203912Y0117040D01*
X0203902Y0117193D01*
X0203896Y0117347D01*
X0203894Y0117500D01*
D11*
X0192792Y0123406D03*
D12*
X0192792Y0111594D03*
D13*
X0093800Y0195000D03*
X0093800Y0205000D03*
X0083800Y0205000D03*
X0083800Y0195000D03*
X0073800Y0195000D03*
X0073800Y0205000D03*
X0063800Y0205000D03*
X0063800Y0195000D03*
X0053800Y0195000D03*
X0053800Y0205000D03*
X0043800Y0205000D03*
X0043800Y0195000D03*
X0033800Y0195000D03*
X0033800Y0205000D03*
X0023800Y0205000D03*
X0023800Y0195000D03*
X0013800Y0195000D03*
X0013800Y0205000D03*
X0063800Y0120000D03*
X0056300Y0115000D03*
X0063800Y0110000D03*
X0063800Y0015000D03*
X0053800Y0015000D03*
X0043800Y0015000D03*
X0073800Y0015000D03*
X0083800Y0015000D03*
X0093800Y0015000D03*
X0103800Y0015000D03*
X0113800Y0015000D03*
X0128800Y0015000D03*
X0138800Y0015000D03*
X0148800Y0015000D03*
X0158800Y0015000D03*
X0168800Y0015000D03*
X0178800Y0015000D03*
X0188800Y0015000D03*
X0198800Y0015000D03*
X0208800Y0015000D03*
X0218800Y0015000D03*
X0183800Y0205000D03*
X0173800Y0205000D03*
X0163800Y0205000D03*
X0153800Y0205000D03*
X0143800Y0205000D03*
X0133800Y0205000D03*
X0123800Y0205000D03*
X0113800Y0205000D03*
D14*
X0118800Y0207301D02*
X0118552Y0207900D01*
X0119109Y0207900D01*
X0119096Y0207883D01*
X0118800Y0207301D01*
X0118800Y0202699D02*
X0119096Y0202117D01*
X0119605Y0201417D01*
X0120217Y0200805D01*
X0120917Y0200296D01*
X0121689Y0199903D01*
X0122512Y0199635D01*
X0123367Y0199500D01*
X0123600Y0199500D01*
X0123600Y0204800D01*
X0124000Y0204800D01*
X0124000Y0205200D01*
X0129300Y0205200D01*
X0133600Y0205200D01*
X0133600Y0204800D01*
X0134000Y0204800D01*
X0134000Y0199500D01*
X0134233Y0199500D01*
X0135088Y0199635D01*
X0135911Y0199903D01*
X0136683Y0200296D01*
X0137383Y0200805D01*
X0137995Y0201417D01*
X0138504Y0202117D01*
X0138800Y0202699D01*
X0139137Y0201884D01*
X0140684Y0200337D01*
X0142706Y0199500D01*
X0144894Y0199500D01*
X0146915Y0200337D01*
X0148463Y0201884D01*
X0148800Y0202699D01*
X0149137Y0201884D01*
X0149150Y0201872D01*
X0149150Y0193131D01*
X0102719Y0146700D01*
X0080595Y0146700D01*
X0079014Y0146045D01*
X0076814Y0143845D01*
X0075605Y0142636D01*
X0074950Y0141055D01*
X0074950Y0107645D01*
X0075605Y0106064D01*
X0076814Y0104855D01*
X0078395Y0104200D01*
X0080105Y0104200D01*
X0081686Y0104855D01*
X0082895Y0106064D01*
X0083550Y0107645D01*
X0083550Y0138100D01*
X0105355Y0138100D01*
X0106936Y0138755D01*
X0108145Y0139964D01*
X0157095Y0188914D01*
X0157750Y0190495D01*
X0157750Y0201172D01*
X0158463Y0201884D01*
X0158800Y0202699D01*
X0159137Y0201884D01*
X0160684Y0200337D01*
X0162706Y0199500D01*
X0164894Y0199500D01*
X0166915Y0200337D01*
X0168463Y0201884D01*
X0168800Y0202699D01*
X0169137Y0201884D01*
X0170684Y0200337D01*
X0172706Y0199500D01*
X0174894Y0199500D01*
X0176915Y0200337D01*
X0178463Y0201884D01*
X0178800Y0202699D01*
X0179137Y0201884D01*
X0180684Y0200337D01*
X0182706Y0199500D01*
X0184894Y0199500D01*
X0186915Y0200337D01*
X0188463Y0201884D01*
X0189300Y0203906D01*
X0189300Y0206094D01*
X0188552Y0207900D01*
X0226500Y0207900D01*
X0226500Y0012100D01*
X0223552Y0012100D01*
X0224300Y0013906D01*
X0224300Y0016094D01*
X0223463Y0018115D01*
X0221915Y0019663D01*
X0219894Y0020500D01*
X0217706Y0020500D01*
X0215684Y0019663D01*
X0214137Y0018115D01*
X0213800Y0017301D01*
X0213463Y0018115D01*
X0211915Y0019663D01*
X0209894Y0020500D01*
X0207706Y0020500D01*
X0205684Y0019663D01*
X0204137Y0018115D01*
X0203800Y0017301D01*
X0203463Y0018115D01*
X0201915Y0019663D01*
X0199894Y0020500D01*
X0197706Y0020500D01*
X0195684Y0019663D01*
X0194137Y0018115D01*
X0193800Y0017301D01*
X0193504Y0017883D01*
X0192995Y0018583D01*
X0192383Y0019195D01*
X0191683Y0019704D01*
X0190911Y0020097D01*
X0190088Y0020365D01*
X0189233Y0020500D01*
X0189000Y0020500D01*
X0189000Y0015200D01*
X0188600Y0015200D01*
X0188600Y0020500D01*
X0188367Y0020500D01*
X0187512Y0020365D01*
X0186689Y0020097D01*
X0185917Y0019704D01*
X0185217Y0019195D01*
X0184605Y0018583D01*
X0184096Y0017883D01*
X0183800Y0017301D01*
X0183463Y0018115D01*
X0181915Y0019663D01*
X0179894Y0020500D01*
X0177706Y0020500D01*
X0175684Y0019663D01*
X0174137Y0018115D01*
X0173800Y0017301D01*
X0173463Y0018115D01*
X0171915Y0019663D01*
X0169894Y0020500D01*
X0167706Y0020500D01*
X0165684Y0019663D01*
X0164137Y0018115D01*
X0163800Y0017301D01*
X0163463Y0018115D01*
X0161915Y0019663D01*
X0159894Y0020500D01*
X0157706Y0020500D01*
X0155684Y0019663D01*
X0154137Y0018115D01*
X0153800Y0017301D01*
X0153463Y0018115D01*
X0151915Y0019663D01*
X0149894Y0020500D01*
X0147706Y0020500D01*
X0145684Y0019663D01*
X0144137Y0018115D01*
X0143800Y0017301D01*
X0143463Y0018115D01*
X0141915Y0019663D01*
X0139894Y0020500D01*
X0137706Y0020500D01*
X0135684Y0019663D01*
X0134137Y0018115D01*
X0133800Y0017301D01*
X0133463Y0018115D01*
X0131915Y0019663D01*
X0129894Y0020500D01*
X0127706Y0020500D01*
X0125684Y0019663D01*
X0124137Y0018115D01*
X0123300Y0016094D01*
X0123300Y0013906D01*
X0124048Y0012100D01*
X0118552Y0012100D01*
X0119300Y0013906D01*
X0119300Y0016094D01*
X0118463Y0018115D01*
X0116915Y0019663D01*
X0114894Y0020500D01*
X0112706Y0020500D01*
X0110684Y0019663D01*
X0109137Y0018115D01*
X0108800Y0017301D01*
X0108463Y0018115D01*
X0106915Y0019663D01*
X0104894Y0020500D01*
X0102706Y0020500D01*
X0100684Y0019663D01*
X0099137Y0018115D01*
X0098800Y0017301D01*
X0098463Y0018115D01*
X0096915Y0019663D01*
X0094894Y0020500D01*
X0092706Y0020500D01*
X0090684Y0019663D01*
X0089137Y0018115D01*
X0088800Y0017301D01*
X0088463Y0018115D01*
X0086915Y0019663D01*
X0084894Y0020500D01*
X0082706Y0020500D01*
X0080684Y0019663D01*
X0079137Y0018115D01*
X0078800Y0017301D01*
X0078463Y0018115D01*
X0076915Y0019663D01*
X0074894Y0020500D01*
X0072706Y0020500D01*
X0070684Y0019663D01*
X0069137Y0018115D01*
X0068800Y0017301D01*
X0068463Y0018115D01*
X0066915Y0019663D01*
X0064894Y0020500D01*
X0062706Y0020500D01*
X0060684Y0019663D01*
X0059137Y0018115D01*
X0058800Y0017301D01*
X0058463Y0018115D01*
X0056915Y0019663D01*
X0054894Y0020500D01*
X0052706Y0020500D01*
X0050684Y0019663D01*
X0049137Y0018115D01*
X0048800Y0017301D01*
X0048463Y0018115D01*
X0046915Y0019663D01*
X0044894Y0020500D01*
X0042706Y0020500D01*
X0040684Y0019663D01*
X0039137Y0018115D01*
X0038300Y0016094D01*
X0038300Y0013906D01*
X0039048Y0012100D01*
X0006100Y0012100D01*
X0006100Y0207900D01*
X0009048Y0207900D01*
X0008300Y0206094D01*
X0008300Y0203906D01*
X0009137Y0201884D01*
X0010684Y0200337D01*
X0011499Y0200000D01*
X0010684Y0199663D01*
X0009137Y0198115D01*
X0008300Y0196094D01*
X0008300Y0193906D01*
X0009137Y0191884D01*
X0010684Y0190337D01*
X0012706Y0189500D01*
X0014894Y0189500D01*
X0016915Y0190337D01*
X0018463Y0191884D01*
X0018800Y0192699D01*
X0019137Y0191884D01*
X0020684Y0190337D01*
X0022706Y0189500D01*
X0024894Y0189500D01*
X0026915Y0190337D01*
X0028463Y0191884D01*
X0028800Y0192699D01*
X0029096Y0192117D01*
X0029605Y0191417D01*
X0030217Y0190805D01*
X0030917Y0190296D01*
X0031689Y0189903D01*
X0032512Y0189635D01*
X0033367Y0189500D01*
X0033600Y0189500D01*
X0033600Y0194800D01*
X0034000Y0194800D01*
X0034000Y0189500D01*
X0034233Y0189500D01*
X0035088Y0189635D01*
X0035911Y0189903D01*
X0036683Y0190296D01*
X0037383Y0190805D01*
X0037995Y0191417D01*
X0038504Y0192117D01*
X0038800Y0192699D01*
X0039137Y0191884D01*
X0040684Y0190337D01*
X0042706Y0189500D01*
X0044894Y0189500D01*
X0046915Y0190337D01*
X0048463Y0191884D01*
X0048800Y0192699D01*
X0049137Y0191884D01*
X0050684Y0190337D01*
X0052706Y0189500D01*
X0054894Y0189500D01*
X0056915Y0190337D01*
X0058463Y0191884D01*
X0058800Y0192699D01*
X0059137Y0191884D01*
X0060684Y0190337D01*
X0062706Y0189500D01*
X0064894Y0189500D01*
X0066915Y0190337D01*
X0068463Y0191884D01*
X0068800Y0192699D01*
X0069137Y0191884D01*
X0070684Y0190337D01*
X0072706Y0189500D01*
X0074894Y0189500D01*
X0076915Y0190337D01*
X0078463Y0191884D01*
X0078800Y0192699D01*
X0079137Y0191884D01*
X0080684Y0190337D01*
X0082706Y0189500D01*
X0084894Y0189500D01*
X0086915Y0190337D01*
X0088463Y0191884D01*
X0088800Y0192699D01*
X0089137Y0191884D01*
X0090684Y0190337D01*
X0092706Y0189500D01*
X0094894Y0189500D01*
X0096915Y0190337D01*
X0098463Y0191884D01*
X0099300Y0193906D01*
X0099300Y0196094D01*
X0098463Y0198115D01*
X0096915Y0199663D01*
X0096101Y0200000D01*
X0096915Y0200337D01*
X0098463Y0201884D01*
X0099300Y0203906D01*
X0099300Y0206094D01*
X0098552Y0207900D01*
X0109048Y0207900D01*
X0108300Y0206094D01*
X0108300Y0203906D01*
X0109137Y0201884D01*
X0110684Y0200337D01*
X0112706Y0199500D01*
X0114894Y0199500D01*
X0116915Y0200337D01*
X0118463Y0201884D01*
X0118800Y0202699D01*
X0118400Y0201821D02*
X0119311Y0201821D01*
X0121061Y0200223D02*
X0116639Y0200223D01*
X0110961Y0200223D02*
X0096639Y0200223D01*
X0097954Y0198624D02*
X0149150Y0198624D01*
X0149150Y0197026D02*
X0098914Y0197026D01*
X0099300Y0195427D02*
X0149150Y0195427D01*
X0149150Y0193829D02*
X0099268Y0193829D01*
X0098606Y0192230D02*
X0148249Y0192230D01*
X0146651Y0190632D02*
X0097210Y0190632D01*
X0090390Y0190632D02*
X0087210Y0190632D01*
X0088606Y0192230D02*
X0088994Y0192230D01*
X0088800Y0197301D02*
X0088463Y0198115D01*
X0086915Y0199663D01*
X0086101Y0200000D01*
X0086915Y0200337D01*
X0088463Y0201884D01*
X0088800Y0202699D01*
X0089137Y0201884D01*
X0090684Y0200337D01*
X0091499Y0200000D01*
X0090684Y0199663D01*
X0089137Y0198115D01*
X0088800Y0197301D01*
X0087954Y0198624D02*
X0089646Y0198624D01*
X0090961Y0200223D02*
X0086639Y0200223D01*
X0088400Y0201821D02*
X0089200Y0201821D01*
X0088800Y0207301D02*
X0088552Y0207900D01*
X0089048Y0207900D01*
X0088800Y0207301D01*
X0081499Y0200000D02*
X0080684Y0199663D01*
X0079137Y0198115D01*
X0078800Y0197301D01*
X0078463Y0198115D01*
X0076915Y0199663D01*
X0076101Y0200000D01*
X0076915Y0200337D01*
X0078463Y0201884D01*
X0078800Y0202699D01*
X0079137Y0201884D01*
X0080684Y0200337D01*
X0081499Y0200000D01*
X0080961Y0200223D02*
X0076639Y0200223D01*
X0077954Y0198624D02*
X0079646Y0198624D01*
X0079200Y0201821D02*
X0078400Y0201821D01*
X0078800Y0207301D02*
X0078552Y0207900D01*
X0079048Y0207900D01*
X0078800Y0207301D01*
X0071499Y0200000D02*
X0070684Y0199663D01*
X0069137Y0198115D01*
X0068800Y0197301D01*
X0068463Y0198115D01*
X0066915Y0199663D01*
X0066101Y0200000D01*
X0066915Y0200337D01*
X0068463Y0201884D01*
X0068800Y0202699D01*
X0069137Y0201884D01*
X0070684Y0200337D01*
X0071499Y0200000D01*
X0070961Y0200223D02*
X0066639Y0200223D01*
X0067954Y0198624D02*
X0069646Y0198624D01*
X0069200Y0201821D02*
X0068400Y0201821D01*
X0068800Y0207301D02*
X0068552Y0207900D01*
X0069048Y0207900D01*
X0068800Y0207301D01*
X0061499Y0200000D02*
X0060684Y0199663D01*
X0059137Y0198115D01*
X0058800Y0197301D01*
X0058463Y0198115D01*
X0056915Y0199663D01*
X0056101Y0200000D01*
X0056915Y0200337D01*
X0058463Y0201884D01*
X0058800Y0202699D01*
X0059137Y0201884D01*
X0060684Y0200337D01*
X0061499Y0200000D01*
X0060961Y0200223D02*
X0056639Y0200223D01*
X0057954Y0198624D02*
X0059646Y0198624D01*
X0059200Y0201821D02*
X0058400Y0201821D01*
X0058800Y0207301D02*
X0058552Y0207900D01*
X0059048Y0207900D01*
X0058800Y0207301D01*
X0051499Y0200000D02*
X0050684Y0199663D01*
X0049137Y0198115D01*
X0048800Y0197301D01*
X0048463Y0198115D01*
X0046915Y0199663D01*
X0046101Y0200000D01*
X0046915Y0200337D01*
X0048463Y0201884D01*
X0048800Y0202699D01*
X0049137Y0201884D01*
X0050684Y0200337D01*
X0051499Y0200000D01*
X0050961Y0200223D02*
X0046639Y0200223D01*
X0047954Y0198624D02*
X0049646Y0198624D01*
X0049200Y0201821D02*
X0048400Y0201821D01*
X0048800Y0207301D02*
X0048552Y0207900D01*
X0049048Y0207900D01*
X0048800Y0207301D01*
X0041499Y0200000D02*
X0040684Y0199663D01*
X0039137Y0198115D01*
X0038800Y0197301D01*
X0038504Y0197883D01*
X0037995Y0198583D01*
X0037383Y0199195D01*
X0036683Y0199704D01*
X0036101Y0200000D01*
X0036915Y0200337D01*
X0038463Y0201884D01*
X0038800Y0202699D01*
X0039137Y0201884D01*
X0040684Y0200337D01*
X0041499Y0200000D01*
X0040961Y0200223D02*
X0036639Y0200223D01*
X0037954Y0198624D02*
X0039646Y0198624D01*
X0039200Y0201821D02*
X0038400Y0201821D01*
X0038800Y0207301D02*
X0038552Y0207900D01*
X0039048Y0207900D01*
X0038800Y0207301D01*
X0031499Y0200000D02*
X0030917Y0199704D01*
X0030217Y0199195D01*
X0029605Y0198583D01*
X0029096Y0197883D01*
X0028800Y0197301D01*
X0028463Y0198115D01*
X0026915Y0199663D01*
X0026101Y0200000D01*
X0026915Y0200337D01*
X0028463Y0201884D01*
X0028800Y0202699D01*
X0029137Y0201884D01*
X0030684Y0200337D01*
X0031499Y0200000D01*
X0030961Y0200223D02*
X0026639Y0200223D01*
X0027954Y0198624D02*
X0029646Y0198624D01*
X0029200Y0201821D02*
X0028400Y0201821D01*
X0028800Y0207301D02*
X0028552Y0207900D01*
X0029048Y0207900D01*
X0028800Y0207301D01*
X0021499Y0200000D02*
X0020684Y0199663D01*
X0019137Y0198115D01*
X0018800Y0197301D01*
X0018463Y0198115D01*
X0016915Y0199663D01*
X0016101Y0200000D01*
X0016915Y0200337D01*
X0018463Y0201884D01*
X0018800Y0202699D01*
X0019137Y0201884D01*
X0020684Y0200337D01*
X0021499Y0200000D01*
X0020961Y0200223D02*
X0016639Y0200223D01*
X0017954Y0198624D02*
X0019646Y0198624D01*
X0019200Y0201821D02*
X0018400Y0201821D01*
X0018800Y0207301D02*
X0018552Y0207900D01*
X0019048Y0207900D01*
X0018800Y0207301D01*
X0010961Y0200223D02*
X0006100Y0200223D01*
X0006100Y0201821D02*
X0009200Y0201821D01*
X0008501Y0203420D02*
X0006100Y0203420D01*
X0006100Y0205018D02*
X0008300Y0205018D01*
X0008517Y0206617D02*
X0006100Y0206617D01*
X0006100Y0198624D02*
X0009646Y0198624D01*
X0008686Y0197026D02*
X0006100Y0197026D01*
X0006100Y0195427D02*
X0008300Y0195427D01*
X0008332Y0193829D02*
X0006100Y0193829D01*
X0006100Y0192230D02*
X0008994Y0192230D01*
X0010390Y0190632D02*
X0006100Y0190632D01*
X0006100Y0189033D02*
X0145052Y0189033D01*
X0143454Y0187435D02*
X0006100Y0187435D01*
X0006100Y0185836D02*
X0141855Y0185836D01*
X0140257Y0184238D02*
X0006100Y0184238D01*
X0006100Y0182639D02*
X0138658Y0182639D01*
X0137060Y0181041D02*
X0006100Y0181041D01*
X0006100Y0179442D02*
X0135461Y0179442D01*
X0133863Y0177844D02*
X0006100Y0177844D01*
X0006100Y0176245D02*
X0132264Y0176245D01*
X0130666Y0174647D02*
X0006100Y0174647D01*
X0006100Y0173048D02*
X0129067Y0173048D01*
X0127469Y0171450D02*
X0006100Y0171450D01*
X0006100Y0169851D02*
X0125870Y0169851D01*
X0124272Y0168253D02*
X0006100Y0168253D01*
X0006100Y0166654D02*
X0122673Y0166654D01*
X0121074Y0165056D02*
X0006100Y0165056D01*
X0006100Y0163457D02*
X0119476Y0163457D01*
X0117877Y0161859D02*
X0006100Y0161859D01*
X0006100Y0160260D02*
X0116279Y0160260D01*
X0114680Y0158662D02*
X0006100Y0158662D01*
X0006100Y0157063D02*
X0113082Y0157063D01*
X0111483Y0155465D02*
X0006100Y0155465D01*
X0006100Y0153866D02*
X0109885Y0153866D01*
X0108286Y0152268D02*
X0006100Y0152268D01*
X0006100Y0150669D02*
X0106688Y0150669D01*
X0105089Y0149070D02*
X0006100Y0149070D01*
X0006100Y0147472D02*
X0103491Y0147472D01*
X0109259Y0141078D02*
X0226500Y0141078D01*
X0226500Y0142676D02*
X0110858Y0142676D01*
X0112456Y0144275D02*
X0226500Y0144275D01*
X0226500Y0145873D02*
X0114055Y0145873D01*
X0115653Y0147472D02*
X0226500Y0147472D01*
X0226500Y0149070D02*
X0117252Y0149070D01*
X0118850Y0150669D02*
X0226500Y0150669D01*
X0226500Y0152268D02*
X0120449Y0152268D01*
X0122047Y0153866D02*
X0226500Y0153866D01*
X0226500Y0155465D02*
X0123646Y0155465D01*
X0125244Y0157063D02*
X0226500Y0157063D01*
X0226500Y0158662D02*
X0126843Y0158662D01*
X0128441Y0160260D02*
X0226500Y0160260D01*
X0226500Y0161859D02*
X0130040Y0161859D01*
X0131638Y0163457D02*
X0226500Y0163457D01*
X0226500Y0165056D02*
X0133237Y0165056D01*
X0134835Y0166654D02*
X0226500Y0166654D01*
X0226500Y0168253D02*
X0136434Y0168253D01*
X0138032Y0169851D02*
X0226500Y0169851D01*
X0226500Y0171450D02*
X0139631Y0171450D01*
X0141229Y0173048D02*
X0226500Y0173048D01*
X0226500Y0174647D02*
X0142828Y0174647D01*
X0144426Y0176245D02*
X0226500Y0176245D01*
X0226500Y0177844D02*
X0146025Y0177844D01*
X0147623Y0179442D02*
X0226500Y0179442D01*
X0226500Y0181041D02*
X0149222Y0181041D01*
X0150820Y0182639D02*
X0226500Y0182639D01*
X0226500Y0184238D02*
X0152419Y0184238D01*
X0154017Y0185836D02*
X0226500Y0185836D01*
X0226500Y0187435D02*
X0155616Y0187435D01*
X0157145Y0189033D02*
X0226500Y0189033D01*
X0226500Y0190632D02*
X0157750Y0190632D01*
X0157750Y0192230D02*
X0226500Y0192230D01*
X0226500Y0193829D02*
X0157750Y0193829D01*
X0157750Y0195427D02*
X0226500Y0195427D01*
X0226500Y0197026D02*
X0157750Y0197026D01*
X0157750Y0198624D02*
X0226500Y0198624D01*
X0226500Y0200223D02*
X0186639Y0200223D01*
X0188400Y0201821D02*
X0226500Y0201821D01*
X0226500Y0203420D02*
X0189099Y0203420D01*
X0189300Y0205018D02*
X0226500Y0205018D01*
X0226500Y0206617D02*
X0189083Y0206617D01*
X0180961Y0200223D02*
X0176639Y0200223D01*
X0178400Y0201821D02*
X0179200Y0201821D01*
X0178800Y0207301D02*
X0178552Y0207900D01*
X0179048Y0207900D01*
X0178800Y0207301D01*
X0170961Y0200223D02*
X0166639Y0200223D01*
X0168400Y0201821D02*
X0169200Y0201821D01*
X0168800Y0207301D02*
X0168552Y0207900D01*
X0169048Y0207900D01*
X0168800Y0207301D01*
X0160961Y0200223D02*
X0157750Y0200223D01*
X0158400Y0201821D02*
X0159200Y0201821D01*
X0158800Y0207301D02*
X0158552Y0207900D01*
X0159048Y0207900D01*
X0158800Y0207301D01*
X0149048Y0207900D02*
X0148800Y0207301D01*
X0148552Y0207900D01*
X0149048Y0207900D01*
X0149150Y0201821D02*
X0148400Y0201821D01*
X0149150Y0200223D02*
X0146639Y0200223D01*
X0140961Y0200223D02*
X0136539Y0200223D01*
X0138289Y0201821D02*
X0139200Y0201821D01*
X0134000Y0201821D02*
X0133600Y0201821D01*
X0133600Y0200223D02*
X0134000Y0200223D01*
X0133600Y0199500D02*
X0133600Y0204800D01*
X0124000Y0204800D01*
X0124000Y0199500D01*
X0124233Y0199500D01*
X0125088Y0199635D01*
X0125911Y0199903D01*
X0126683Y0200296D01*
X0127383Y0200805D01*
X0127995Y0201417D01*
X0128504Y0202117D01*
X0128800Y0202698D01*
X0129096Y0202117D01*
X0129605Y0201417D01*
X0130217Y0200805D01*
X0130917Y0200296D01*
X0131689Y0199903D01*
X0132512Y0199635D01*
X0133367Y0199500D01*
X0133600Y0199500D01*
X0131061Y0200223D02*
X0126539Y0200223D01*
X0128289Y0201821D02*
X0129311Y0201821D01*
X0133600Y0203420D02*
X0134000Y0203420D01*
X0133600Y0205018D02*
X0124000Y0205018D01*
X0124000Y0203420D02*
X0123600Y0203420D01*
X0123600Y0201821D02*
X0124000Y0201821D01*
X0124000Y0200223D02*
X0123600Y0200223D01*
X0128800Y0207302D02*
X0128504Y0207883D01*
X0128491Y0207900D01*
X0129109Y0207900D01*
X0129096Y0207883D01*
X0128800Y0207302D01*
X0138491Y0207900D02*
X0139048Y0207900D01*
X0138800Y0207301D01*
X0138504Y0207883D01*
X0138491Y0207900D01*
X0109200Y0201821D02*
X0098400Y0201821D01*
X0099099Y0203420D02*
X0108501Y0203420D01*
X0108300Y0205018D02*
X0099300Y0205018D01*
X0099083Y0206617D02*
X0108517Y0206617D01*
X0080390Y0190632D02*
X0077210Y0190632D01*
X0078606Y0192230D02*
X0078994Y0192230D01*
X0070390Y0190632D02*
X0067210Y0190632D01*
X0068606Y0192230D02*
X0068994Y0192230D01*
X0060390Y0190632D02*
X0057210Y0190632D01*
X0058606Y0192230D02*
X0058994Y0192230D01*
X0050390Y0190632D02*
X0047210Y0190632D01*
X0048606Y0192230D02*
X0048994Y0192230D01*
X0040390Y0190632D02*
X0037145Y0190632D01*
X0038562Y0192230D02*
X0038994Y0192230D01*
X0034000Y0192230D02*
X0033600Y0192230D01*
X0033600Y0190632D02*
X0034000Y0190632D01*
X0034000Y0193829D02*
X0033600Y0193829D01*
X0030455Y0190632D02*
X0027210Y0190632D01*
X0028606Y0192230D02*
X0029038Y0192230D01*
X0020390Y0190632D02*
X0017210Y0190632D01*
X0018606Y0192230D02*
X0018994Y0192230D01*
X0006100Y0145873D02*
X0078842Y0145873D01*
X0077244Y0144275D02*
X0006100Y0144275D01*
X0006100Y0142676D02*
X0075645Y0142676D01*
X0074959Y0141078D02*
X0006100Y0141078D01*
X0006100Y0139479D02*
X0074950Y0139479D01*
X0074950Y0137881D02*
X0006100Y0137881D01*
X0006100Y0136282D02*
X0074950Y0136282D01*
X0074950Y0134684D02*
X0006100Y0134684D01*
X0006100Y0133085D02*
X0074950Y0133085D01*
X0074950Y0131487D02*
X0006100Y0131487D01*
X0006100Y0129888D02*
X0074950Y0129888D01*
X0074950Y0128290D02*
X0006100Y0128290D01*
X0006100Y0126691D02*
X0074950Y0126691D01*
X0074950Y0125093D02*
X0065920Y0125093D01*
X0065911Y0125097D02*
X0065088Y0125365D01*
X0064233Y0125500D01*
X0063800Y0125500D01*
X0063800Y0120000D01*
X0063800Y0120000D01*
X0069300Y0120000D01*
X0069300Y0120433D01*
X0069165Y0121288D01*
X0068897Y0122111D01*
X0068504Y0122883D01*
X0067995Y0123583D01*
X0067383Y0124195D01*
X0066683Y0124704D01*
X0065911Y0125097D01*
X0063800Y0125093D02*
X0063800Y0125093D01*
X0063800Y0125500D02*
X0063367Y0125500D01*
X0062512Y0125365D01*
X0061689Y0125097D01*
X0060917Y0124704D01*
X0060217Y0124195D01*
X0059605Y0123583D01*
X0059096Y0122883D01*
X0058703Y0122111D01*
X0058435Y0121288D01*
X0058300Y0120433D01*
X0058300Y0120125D01*
X0057394Y0120500D01*
X0055206Y0120500D01*
X0053184Y0119663D01*
X0051637Y0118115D01*
X0050800Y0116094D01*
X0050800Y0113906D01*
X0051637Y0111884D01*
X0053184Y0110337D01*
X0055206Y0109500D01*
X0057394Y0109500D01*
X0058300Y0109875D01*
X0058300Y0108906D01*
X0059137Y0106884D01*
X0060684Y0105337D01*
X0062706Y0104500D01*
X0064894Y0104500D01*
X0066915Y0105337D01*
X0068463Y0106884D01*
X0069300Y0108906D01*
X0069300Y0111094D01*
X0068463Y0113115D01*
X0066915Y0114663D01*
X0066101Y0115000D01*
X0066683Y0115296D01*
X0067383Y0115805D01*
X0067995Y0116417D01*
X0068504Y0117117D01*
X0068897Y0117889D01*
X0069165Y0118712D01*
X0069300Y0119567D01*
X0069300Y0120000D01*
X0063800Y0120000D01*
X0063800Y0120000D01*
X0063800Y0125500D01*
X0063800Y0123494D02*
X0063800Y0123494D01*
X0063800Y0121896D02*
X0063800Y0121896D01*
X0063800Y0120297D02*
X0063800Y0120297D01*
X0059540Y0123494D02*
X0006100Y0123494D01*
X0006100Y0121896D02*
X0058633Y0121896D01*
X0058300Y0120297D02*
X0057883Y0120297D01*
X0054717Y0120297D02*
X0006100Y0120297D01*
X0006100Y0118699D02*
X0052221Y0118699D01*
X0051217Y0117100D02*
X0006100Y0117100D01*
X0006100Y0115502D02*
X0050800Y0115502D01*
X0050801Y0113903D02*
X0006100Y0113903D01*
X0006100Y0112305D02*
X0051463Y0112305D01*
X0052816Y0110706D02*
X0006100Y0110706D01*
X0006100Y0109108D02*
X0058300Y0109108D01*
X0058879Y0107509D02*
X0006100Y0107509D01*
X0006100Y0105911D02*
X0060111Y0105911D01*
X0067489Y0105911D02*
X0075758Y0105911D01*
X0075006Y0107509D02*
X0068721Y0107509D01*
X0069300Y0109108D02*
X0074950Y0109108D01*
X0074950Y0110706D02*
X0069300Y0110706D01*
X0068798Y0112305D02*
X0074950Y0112305D01*
X0074950Y0113903D02*
X0067675Y0113903D01*
X0066966Y0115502D02*
X0074950Y0115502D01*
X0074950Y0117100D02*
X0068492Y0117100D01*
X0069160Y0118699D02*
X0074950Y0118699D01*
X0074950Y0120297D02*
X0069300Y0120297D01*
X0068967Y0121896D02*
X0074950Y0121896D01*
X0074950Y0123494D02*
X0068060Y0123494D01*
X0061680Y0125093D02*
X0006100Y0125093D01*
X0006100Y0104312D02*
X0078124Y0104312D01*
X0080376Y0104312D02*
X0226500Y0104312D01*
X0226500Y0102714D02*
X0006100Y0102714D01*
X0006100Y0101115D02*
X0226500Y0101115D01*
X0226500Y0099517D02*
X0006100Y0099517D01*
X0006100Y0097918D02*
X0226500Y0097918D01*
X0226500Y0096320D02*
X0006100Y0096320D01*
X0006100Y0094721D02*
X0226500Y0094721D01*
X0226500Y0093123D02*
X0006100Y0093123D01*
X0006100Y0091524D02*
X0226500Y0091524D01*
X0226500Y0089926D02*
X0006100Y0089926D01*
X0006100Y0088327D02*
X0226500Y0088327D01*
X0226500Y0086729D02*
X0006100Y0086729D01*
X0006100Y0085130D02*
X0226500Y0085130D01*
X0226500Y0083532D02*
X0006100Y0083532D01*
X0006100Y0081933D02*
X0226500Y0081933D01*
X0226500Y0080334D02*
X0006100Y0080334D01*
X0006100Y0078736D02*
X0226500Y0078736D01*
X0226500Y0077137D02*
X0006100Y0077137D01*
X0006100Y0075539D02*
X0226500Y0075539D01*
X0226500Y0073940D02*
X0006100Y0073940D01*
X0006100Y0072342D02*
X0226500Y0072342D01*
X0226500Y0070743D02*
X0006100Y0070743D01*
X0006100Y0069145D02*
X0226500Y0069145D01*
X0226500Y0067546D02*
X0006100Y0067546D01*
X0006100Y0065948D02*
X0226500Y0065948D01*
X0226500Y0064349D02*
X0006100Y0064349D01*
X0006100Y0062751D02*
X0226500Y0062751D01*
X0226500Y0061152D02*
X0006100Y0061152D01*
X0006100Y0059554D02*
X0226500Y0059554D01*
X0226500Y0057955D02*
X0006100Y0057955D01*
X0006100Y0056357D02*
X0226500Y0056357D01*
X0226500Y0054758D02*
X0006100Y0054758D01*
X0006100Y0053160D02*
X0226500Y0053160D01*
X0226500Y0051561D02*
X0006100Y0051561D01*
X0006100Y0049963D02*
X0226500Y0049963D01*
X0226500Y0048364D02*
X0006100Y0048364D01*
X0006100Y0046766D02*
X0226500Y0046766D01*
X0226500Y0045167D02*
X0006100Y0045167D01*
X0006100Y0043569D02*
X0226500Y0043569D01*
X0226500Y0041970D02*
X0006100Y0041970D01*
X0006100Y0040372D02*
X0226500Y0040372D01*
X0226500Y0038773D02*
X0006100Y0038773D01*
X0006100Y0037175D02*
X0226500Y0037175D01*
X0226500Y0035576D02*
X0006100Y0035576D01*
X0006100Y0033978D02*
X0226500Y0033978D01*
X0226500Y0032379D02*
X0006100Y0032379D01*
X0006100Y0030781D02*
X0226500Y0030781D01*
X0226500Y0029182D02*
X0006100Y0029182D01*
X0006100Y0027584D02*
X0226500Y0027584D01*
X0226500Y0025985D02*
X0006100Y0025985D01*
X0006100Y0024387D02*
X0226500Y0024387D01*
X0226500Y0022788D02*
X0006100Y0022788D01*
X0006100Y0021190D02*
X0226500Y0021190D01*
X0226500Y0019591D02*
X0221987Y0019591D01*
X0223514Y0017993D02*
X0226500Y0017993D01*
X0226500Y0016394D02*
X0224176Y0016394D01*
X0224300Y0014796D02*
X0226500Y0014796D01*
X0226500Y0013197D02*
X0224006Y0013197D01*
X0215613Y0019591D02*
X0211987Y0019591D01*
X0213514Y0017993D02*
X0214086Y0017993D01*
X0213800Y0012699D02*
X0214048Y0012100D01*
X0213552Y0012100D01*
X0213800Y0012699D01*
X0204048Y0012100D02*
X0203552Y0012100D01*
X0203800Y0012699D01*
X0204048Y0012100D01*
X0204086Y0017993D02*
X0203514Y0017993D01*
X0201987Y0019591D02*
X0205613Y0019591D01*
X0195613Y0019591D02*
X0191838Y0019591D01*
X0193424Y0017993D02*
X0194086Y0017993D01*
X0189000Y0017993D02*
X0188600Y0017993D01*
X0188600Y0019591D02*
X0189000Y0019591D01*
X0185762Y0019591D02*
X0181987Y0019591D01*
X0183514Y0017993D02*
X0184176Y0017993D01*
X0188600Y0016394D02*
X0189000Y0016394D01*
X0193800Y0012699D02*
X0193504Y0012117D01*
X0193491Y0012100D01*
X0194048Y0012100D01*
X0193800Y0012699D01*
X0184109Y0012100D02*
X0183552Y0012100D01*
X0183800Y0012699D01*
X0184096Y0012117D01*
X0184109Y0012100D01*
X0174048Y0012100D02*
X0173552Y0012100D01*
X0173800Y0012699D01*
X0174048Y0012100D01*
X0174086Y0017993D02*
X0173514Y0017993D01*
X0171987Y0019591D02*
X0175613Y0019591D01*
X0165613Y0019591D02*
X0161987Y0019591D01*
X0163514Y0017993D02*
X0164086Y0017993D01*
X0163800Y0012699D02*
X0163552Y0012100D01*
X0164048Y0012100D01*
X0163800Y0012699D01*
X0155613Y0019591D02*
X0151987Y0019591D01*
X0153514Y0017993D02*
X0154086Y0017993D01*
X0153800Y0012699D02*
X0154048Y0012100D01*
X0153552Y0012100D01*
X0153800Y0012699D01*
X0144048Y0012100D02*
X0143552Y0012100D01*
X0143800Y0012699D01*
X0144048Y0012100D01*
X0144086Y0017993D02*
X0143514Y0017993D01*
X0141987Y0019591D02*
X0145613Y0019591D01*
X0135613Y0019591D02*
X0131987Y0019591D01*
X0133514Y0017993D02*
X0134086Y0017993D01*
X0133800Y0012699D02*
X0133552Y0012100D01*
X0134048Y0012100D01*
X0133800Y0012699D01*
X0125613Y0019591D02*
X0116987Y0019591D01*
X0118514Y0017993D02*
X0124086Y0017993D01*
X0123424Y0016394D02*
X0119176Y0016394D01*
X0119300Y0014796D02*
X0123300Y0014796D01*
X0123594Y0013197D02*
X0119006Y0013197D01*
X0109048Y0012100D02*
X0108552Y0012100D01*
X0108800Y0012699D01*
X0109048Y0012100D01*
X0109086Y0017993D02*
X0108514Y0017993D01*
X0106987Y0019591D02*
X0110613Y0019591D01*
X0100613Y0019591D02*
X0096987Y0019591D01*
X0098514Y0017993D02*
X0099086Y0017993D01*
X0098800Y0012699D02*
X0099048Y0012100D01*
X0098552Y0012100D01*
X0098800Y0012699D01*
X0089048Y0012100D02*
X0088552Y0012100D01*
X0088800Y0012699D01*
X0089048Y0012100D01*
X0089086Y0017993D02*
X0088514Y0017993D01*
X0086987Y0019591D02*
X0090613Y0019591D01*
X0080613Y0019591D02*
X0076987Y0019591D01*
X0078514Y0017993D02*
X0079086Y0017993D01*
X0078800Y0012699D02*
X0079048Y0012100D01*
X0078552Y0012100D01*
X0078800Y0012699D01*
X0070613Y0019591D02*
X0066987Y0019591D01*
X0068514Y0017993D02*
X0069086Y0017993D01*
X0068800Y0012699D02*
X0069048Y0012100D01*
X0068552Y0012100D01*
X0068800Y0012699D01*
X0059048Y0012100D02*
X0058552Y0012100D01*
X0058800Y0012699D01*
X0059048Y0012100D01*
X0059086Y0017993D02*
X0058514Y0017993D01*
X0056987Y0019591D02*
X0060613Y0019591D01*
X0050613Y0019591D02*
X0046987Y0019591D01*
X0048514Y0017993D02*
X0049086Y0017993D01*
X0048800Y0012699D02*
X0049048Y0012100D01*
X0048552Y0012100D01*
X0048800Y0012699D01*
X0040613Y0019591D02*
X0006100Y0019591D01*
X0006100Y0017993D02*
X0039086Y0017993D01*
X0038424Y0016394D02*
X0006100Y0016394D01*
X0006100Y0014796D02*
X0038300Y0014796D01*
X0038594Y0013197D02*
X0006100Y0013197D01*
X0082742Y0105911D02*
X0226500Y0105911D01*
X0226500Y0107509D02*
X0195503Y0107509D01*
X0195518Y0107515D02*
X0196871Y0108869D01*
X0197604Y0110637D01*
X0197604Y0112552D01*
X0196871Y0114320D01*
X0195518Y0115674D01*
X0193749Y0116406D01*
X0191835Y0116406D01*
X0190066Y0115674D01*
X0188713Y0114320D01*
X0187980Y0112552D01*
X0187980Y0110637D01*
X0188713Y0108869D01*
X0190066Y0107515D01*
X0191835Y0106783D01*
X0193749Y0106783D01*
X0195518Y0107515D01*
X0196970Y0109108D02*
X0226500Y0109108D01*
X0226500Y0110706D02*
X0214611Y0110706D01*
X0214448Y0110544D02*
X0216756Y0112852D01*
X0218005Y0115868D01*
X0218005Y0119132D01*
X0216756Y0122148D01*
X0214448Y0124456D01*
X0211432Y0125705D01*
X0208168Y0125705D01*
X0205152Y0124456D01*
X0202844Y0122148D01*
X0201594Y0119132D01*
X0201594Y0115868D01*
X0202844Y0112852D01*
X0205152Y0110544D01*
X0208168Y0109294D01*
X0211432Y0109294D01*
X0214448Y0110544D01*
X0216209Y0112305D02*
X0226500Y0112305D01*
X0226500Y0113903D02*
X0217192Y0113903D01*
X0217854Y0115502D02*
X0226500Y0115502D01*
X0226500Y0117100D02*
X0218005Y0117100D01*
X0218005Y0118699D02*
X0226500Y0118699D01*
X0226500Y0120297D02*
X0217523Y0120297D01*
X0216861Y0121896D02*
X0226500Y0121896D01*
X0226500Y0123494D02*
X0215410Y0123494D01*
X0212911Y0125093D02*
X0226500Y0125093D01*
X0226500Y0126691D02*
X0197604Y0126691D01*
X0197604Y0127163D02*
X0196550Y0128217D01*
X0189035Y0128217D01*
X0187980Y0127163D01*
X0187980Y0119648D01*
X0189035Y0118594D01*
X0196550Y0118594D01*
X0197604Y0119648D01*
X0197604Y0127163D01*
X0197604Y0125093D02*
X0206689Y0125093D01*
X0204190Y0123494D02*
X0197604Y0123494D01*
X0197604Y0121896D02*
X0202739Y0121896D01*
X0202077Y0120297D02*
X0197604Y0120297D01*
X0196655Y0118699D02*
X0201594Y0118699D01*
X0201594Y0117100D02*
X0083550Y0117100D01*
X0083550Y0115502D02*
X0189894Y0115502D01*
X0188540Y0113903D02*
X0083550Y0113903D01*
X0083550Y0112305D02*
X0187980Y0112305D01*
X0187980Y0110706D02*
X0083550Y0110706D01*
X0083550Y0109108D02*
X0188614Y0109108D01*
X0190081Y0107509D02*
X0083494Y0107509D01*
X0083550Y0118699D02*
X0188930Y0118699D01*
X0187980Y0120297D02*
X0083550Y0120297D01*
X0083550Y0121896D02*
X0187980Y0121896D01*
X0187980Y0123494D02*
X0083550Y0123494D01*
X0083550Y0125093D02*
X0187980Y0125093D01*
X0187980Y0126691D02*
X0083550Y0126691D01*
X0083550Y0128290D02*
X0226500Y0128290D01*
X0226500Y0129888D02*
X0083550Y0129888D01*
X0083550Y0131487D02*
X0226500Y0131487D01*
X0226500Y0133085D02*
X0083550Y0133085D01*
X0083550Y0134684D02*
X0226500Y0134684D01*
X0226500Y0136282D02*
X0083550Y0136282D01*
X0083550Y0137881D02*
X0226500Y0137881D01*
X0226500Y0139479D02*
X0107661Y0139479D01*
X0195690Y0115502D02*
X0201746Y0115502D01*
X0202408Y0113903D02*
X0197044Y0113903D01*
X0197604Y0112305D02*
X0203391Y0112305D01*
X0204989Y0110706D02*
X0197604Y0110706D01*
D15*
X0151300Y0125000D03*
X0150300Y0138500D03*
X0179300Y0156000D03*
X0161300Y0171000D03*
X0115300Y0136500D03*
X0115300Y0123500D03*
X0115200Y0107350D03*
X0095800Y0115000D03*
X0091300Y0104000D03*
X0093800Y0127000D03*
X0066800Y0133000D03*
X0051300Y0140000D03*
X0043300Y0125500D03*
X0042300Y0114500D03*
X0048800Y0099500D03*
X0066800Y0098000D03*
X0134300Y0103500D03*
X0104300Y0175500D03*
D16*
X0104500Y0142400D02*
X0081450Y0142400D01*
X0079250Y0140200D01*
X0079250Y0108500D01*
X0104500Y0142400D02*
X0153450Y0191350D01*
X0153450Y0204650D01*
X0153800Y0205000D01*
M02*
