G75*
G70*
%OFA0B0*%
%FSLAX24Y24*%
%IPPOS*%
%LPD*%
%AMOC8*
5,1,8,0,0,1.08239X$1,22.5*
%
%ADD10C,0.0000*%
%ADD11R,0.0591X0.0197*%
%ADD12R,0.0197X0.0591*%
%ADD13R,0.0591X0.0591*%
%ADD14C,0.0660*%
%ADD15C,0.0591*%
%ADD16R,0.1100X0.0290*%
%ADD17R,0.0866X0.0945*%
%ADD18R,0.0630X0.0709*%
%ADD19R,0.0590X0.0790*%
%ADD20R,0.1500X0.0790*%
%ADD21C,0.0740*%
%ADD22R,0.0500X0.0579*%
%ADD23R,0.0591X0.0512*%
%ADD24R,0.0472X0.0315*%
%ADD25R,0.0315X0.0472*%
%ADD26R,0.0400X0.0250*%
%ADD27R,0.0472X0.1260*%
%ADD28R,0.0472X0.0472*%
%ADD29R,0.0394X0.0433*%
%ADD30R,0.0472X0.0276*%
%ADD31R,0.0709X0.0630*%
%ADD32C,0.0540*%
%ADD33C,0.1890*%
%ADD34C,0.1654*%
%ADD35C,0.0100*%
%ADD36C,0.0400*%
%ADD37C,0.0060*%
%ADD38C,0.0300*%
%ADD39C,0.0400*%
%ADD40C,0.0500*%
%ADD41C,0.0160*%
%ADD42C,0.0396*%
%ADD43C,0.0300*%
%ADD44C,0.0200*%
D10*
X000660Y002557D02*
X000660Y024637D01*
X037648Y024637D01*
X037660Y024637D02*
X037660Y002557D01*
X037662Y002557D01*
X037660Y002557D02*
X000660Y002557D01*
X005038Y007481D02*
X005040Y007528D01*
X005046Y007575D01*
X005055Y007621D01*
X005069Y007666D01*
X005086Y007710D01*
X005107Y007753D01*
X005131Y007793D01*
X005158Y007832D01*
X005189Y007868D01*
X005222Y007901D01*
X005258Y007932D01*
X005297Y007959D01*
X005337Y007983D01*
X005380Y008004D01*
X005424Y008021D01*
X005469Y008035D01*
X005515Y008044D01*
X005562Y008050D01*
X005609Y008052D01*
X005656Y008050D01*
X005703Y008044D01*
X005749Y008035D01*
X005794Y008021D01*
X005838Y008004D01*
X005881Y007983D01*
X005921Y007959D01*
X005960Y007932D01*
X005996Y007901D01*
X006029Y007868D01*
X006060Y007832D01*
X006087Y007793D01*
X006111Y007753D01*
X006132Y007710D01*
X006149Y007666D01*
X006163Y007621D01*
X006172Y007575D01*
X006178Y007528D01*
X006180Y007481D01*
X006178Y007434D01*
X006172Y007387D01*
X006163Y007341D01*
X006149Y007296D01*
X006132Y007252D01*
X006111Y007209D01*
X006087Y007169D01*
X006060Y007130D01*
X006029Y007094D01*
X005996Y007061D01*
X005960Y007030D01*
X005921Y007003D01*
X005881Y006979D01*
X005838Y006958D01*
X005794Y006941D01*
X005749Y006927D01*
X005703Y006918D01*
X005656Y006912D01*
X005609Y006910D01*
X005562Y006912D01*
X005515Y006918D01*
X005469Y006927D01*
X005424Y006941D01*
X005380Y006958D01*
X005337Y006979D01*
X005297Y007003D01*
X005258Y007030D01*
X005222Y007061D01*
X005189Y007094D01*
X005158Y007130D01*
X005131Y007169D01*
X005107Y007209D01*
X005086Y007252D01*
X005069Y007296D01*
X005055Y007341D01*
X005046Y007387D01*
X005040Y007434D01*
X005038Y007481D01*
X026495Y017521D02*
X026497Y017568D01*
X026503Y017615D01*
X026512Y017661D01*
X026526Y017706D01*
X026543Y017750D01*
X026564Y017793D01*
X026588Y017833D01*
X026615Y017872D01*
X026646Y017908D01*
X026679Y017941D01*
X026715Y017972D01*
X026754Y017999D01*
X026794Y018023D01*
X026837Y018044D01*
X026881Y018061D01*
X026926Y018075D01*
X026972Y018084D01*
X027019Y018090D01*
X027066Y018092D01*
X027113Y018090D01*
X027160Y018084D01*
X027206Y018075D01*
X027251Y018061D01*
X027295Y018044D01*
X027338Y018023D01*
X027378Y017999D01*
X027417Y017972D01*
X027453Y017941D01*
X027486Y017908D01*
X027517Y017872D01*
X027544Y017833D01*
X027568Y017793D01*
X027589Y017750D01*
X027606Y017706D01*
X027620Y017661D01*
X027629Y017615D01*
X027635Y017568D01*
X027637Y017521D01*
X027635Y017474D01*
X027629Y017427D01*
X027620Y017381D01*
X027606Y017336D01*
X027589Y017292D01*
X027568Y017249D01*
X027544Y017209D01*
X027517Y017170D01*
X027486Y017134D01*
X027453Y017101D01*
X027417Y017070D01*
X027378Y017043D01*
X027338Y017019D01*
X027295Y016998D01*
X027251Y016981D01*
X027206Y016967D01*
X027160Y016958D01*
X027113Y016952D01*
X027066Y016950D01*
X027019Y016952D01*
X026972Y016958D01*
X026926Y016967D01*
X026881Y016981D01*
X026837Y016998D01*
X026794Y017019D01*
X026754Y017043D01*
X026715Y017070D01*
X026679Y017101D01*
X026646Y017134D01*
X026615Y017170D01*
X026588Y017209D01*
X026564Y017249D01*
X026543Y017292D01*
X026526Y017336D01*
X026512Y017381D01*
X026503Y017427D01*
X026497Y017474D01*
X026495Y017521D01*
D11*
X014943Y014712D03*
X014943Y014397D03*
X014943Y014082D03*
X014943Y013767D03*
X014943Y013452D03*
X014943Y013137D03*
X014943Y012822D03*
X014943Y012507D03*
X014943Y012192D03*
X014943Y011877D03*
X014943Y011562D03*
X010377Y011562D03*
X010377Y011877D03*
X010377Y012192D03*
X010377Y012507D03*
X010377Y012822D03*
X010377Y013137D03*
X010377Y013452D03*
X010377Y013767D03*
X010377Y014082D03*
X010377Y014397D03*
X010377Y014712D03*
D12*
X011085Y015420D03*
X011400Y015420D03*
X011715Y015420D03*
X012030Y015420D03*
X012345Y015420D03*
X012660Y015420D03*
X012975Y015420D03*
X013290Y015420D03*
X013605Y015420D03*
X013920Y015420D03*
X014235Y015420D03*
X014235Y010853D03*
X013920Y010853D03*
X013605Y010853D03*
X013290Y010853D03*
X012975Y010853D03*
X012660Y010853D03*
X012345Y010853D03*
X012030Y010853D03*
X011715Y010853D03*
X011400Y010853D03*
X011085Y010853D03*
D13*
X036160Y007637D03*
X036160Y004637D03*
D14*
X036160Y003637D03*
X034160Y003637D03*
X034160Y006637D03*
X036160Y006637D03*
D15*
X035160Y006637D03*
X035160Y007637D03*
X034160Y007637D03*
X033160Y007637D03*
X032160Y007637D03*
X031160Y007637D03*
X030160Y007637D03*
X029160Y007637D03*
X028160Y007637D03*
X027160Y007637D03*
X026160Y007637D03*
X025160Y007637D03*
X024160Y007637D03*
X024160Y006637D03*
X025160Y006637D03*
X026160Y006637D03*
X027160Y006637D03*
X028160Y006637D03*
X029160Y006637D03*
X030160Y006637D03*
X031160Y006637D03*
X032160Y006637D03*
X033160Y006637D03*
X033160Y004637D03*
X032160Y004637D03*
X031160Y004637D03*
X030160Y004637D03*
X029160Y004637D03*
X028160Y004637D03*
X027160Y004637D03*
X026160Y004637D03*
X025160Y004637D03*
X024160Y004637D03*
X024160Y003637D03*
X025160Y003637D03*
X026160Y003637D03*
X027160Y003637D03*
X028160Y003637D03*
X029160Y003637D03*
X030160Y003637D03*
X031160Y003637D03*
X032160Y003637D03*
X033160Y003637D03*
X034160Y004637D03*
X035160Y004637D03*
X035160Y003637D03*
D16*
X006460Y009637D03*
X006460Y010137D03*
X006460Y010637D03*
X006460Y011137D03*
X006460Y011637D03*
X004860Y011637D03*
X004860Y011137D03*
X004860Y010637D03*
X004860Y010137D03*
X004860Y009637D03*
D17*
X004194Y015137D03*
X006126Y015137D03*
D18*
X006211Y013137D03*
X005109Y013137D03*
X016109Y015637D03*
X017211Y015637D03*
D19*
X023780Y021077D03*
X024680Y021077D03*
X025580Y021077D03*
X027310Y021077D03*
X028210Y021077D03*
X029110Y021077D03*
X031970Y012507D03*
X032870Y012507D03*
X033770Y012507D03*
D20*
X032880Y010027D03*
X028200Y023557D03*
X024670Y023557D03*
D21*
X018660Y022637D03*
X017660Y022637D03*
X016660Y022637D03*
X015660Y022637D03*
X014660Y022637D03*
X013660Y022637D03*
X012660Y022637D03*
X011660Y022637D03*
X009660Y022637D03*
X008660Y022637D03*
X007660Y022637D03*
X006660Y022637D03*
X005660Y022637D03*
X004660Y022637D03*
X003660Y022637D03*
X002660Y022637D03*
X001660Y022637D03*
X001660Y021637D03*
X002660Y021637D03*
X003660Y021637D03*
X004660Y021637D03*
X005660Y021637D03*
X006660Y021637D03*
X007660Y021637D03*
X008660Y021637D03*
X009660Y021637D03*
X036160Y010627D03*
X036160Y009627D03*
X022160Y003637D03*
X021160Y003637D03*
X020160Y003637D03*
X019160Y003637D03*
X018160Y003637D03*
X017160Y003637D03*
X016160Y003637D03*
X015160Y003637D03*
X014160Y003637D03*
X013160Y003637D03*
X011660Y003637D03*
X010660Y003637D03*
X009660Y003637D03*
X008660Y003637D03*
X007660Y003637D03*
X006660Y003637D03*
X005660Y003637D03*
X004660Y003637D03*
D22*
X030814Y018137D03*
X032506Y018137D03*
D23*
X031860Y016241D03*
X031860Y015572D03*
X033700Y015552D03*
X033700Y016221D03*
X029290Y018722D03*
X029290Y019391D03*
X027500Y019421D03*
X027500Y018752D03*
X025590Y018432D03*
X025590Y019101D03*
X023930Y019101D03*
X023930Y018432D03*
D24*
X020900Y010411D03*
X020900Y009702D03*
X019660Y007491D03*
X018660Y007491D03*
X018660Y006782D03*
X019660Y006782D03*
X002660Y006491D03*
X002660Y005782D03*
X001660Y005782D03*
X001660Y006491D03*
D25*
X001806Y007637D03*
X002514Y007637D03*
X020606Y015657D03*
X021314Y015657D03*
X022046Y013507D03*
X022754Y013507D03*
X035946Y013967D03*
X036654Y013967D03*
X021504Y023087D03*
X020796Y023087D03*
D26*
X020034Y010451D03*
X019246Y010077D03*
X020034Y009703D03*
D27*
X028603Y011528D03*
X030177Y011528D03*
X030177Y014205D03*
X028603Y014205D03*
D28*
X035877Y012987D03*
X036703Y012987D03*
X021433Y017127D03*
X020607Y017127D03*
X020767Y021997D03*
X021593Y021997D03*
D29*
X002896Y011188D03*
X002424Y011188D03*
X002424Y010086D03*
X002896Y010086D03*
D30*
X023992Y017167D03*
X025448Y017167D03*
X028172Y017597D03*
X029628Y017597D03*
X031932Y014157D03*
X033388Y014157D03*
D31*
X015210Y016186D03*
X014310Y016186D03*
X014310Y017288D03*
X015210Y017288D03*
X014160Y008688D03*
X012660Y008688D03*
X012660Y007586D03*
X014160Y007586D03*
D32*
X020640Y020437D02*
X020640Y020977D01*
X021640Y020977D02*
X021640Y020437D01*
X022640Y020437D02*
X022640Y020977D01*
D33*
X032316Y021207D03*
D34*
X034776Y021207D03*
X033438Y023097D03*
D35*
X014943Y012822D02*
X014960Y012787D01*
X014943Y011562D02*
X014960Y011537D01*
X016160Y010337D01*
X016160Y004637D01*
X017160Y003637D01*
X016160Y003637D02*
X015960Y003837D01*
X015960Y009137D01*
X014260Y010837D01*
X014235Y010853D01*
X013660Y010787D02*
X013660Y010087D01*
X015010Y008737D01*
X015010Y006487D01*
X014660Y006137D01*
X014660Y003387D01*
X015135Y002912D01*
X015160Y002887D01*
X015160Y003637D02*
X015160Y005937D01*
X015060Y006037D01*
X012010Y004487D02*
X012010Y008937D01*
X012910Y009837D01*
X012910Y010787D01*
X012960Y010837D01*
X012975Y010853D01*
X013605Y010853D02*
X013610Y010837D01*
X013660Y010787D01*
X012345Y010853D02*
X012310Y010837D01*
X012260Y010787D01*
X012260Y009787D01*
X011610Y009137D01*
X011610Y005587D01*
X009660Y003637D01*
X010510Y005487D02*
X010510Y009237D01*
X011010Y009737D01*
X011010Y010787D01*
X011060Y010837D01*
X011085Y010853D01*
X011360Y010837D02*
X011400Y010853D01*
X011360Y010837D02*
X011360Y009787D01*
X010860Y009287D01*
X010860Y008937D01*
X011210Y008787D02*
X010860Y008437D01*
X011210Y008787D02*
X011210Y009337D01*
X011660Y009787D01*
X011660Y010787D01*
X011710Y010837D01*
X011715Y010853D01*
X011960Y010787D02*
X012010Y010837D01*
X012030Y010853D01*
X011960Y010787D02*
X011960Y009787D01*
X011410Y009237D01*
X011410Y006887D01*
X011260Y006737D01*
X009160Y007137D02*
X009160Y010337D01*
X010360Y011537D01*
X010377Y011562D01*
X007360Y011137D02*
X007360Y009587D01*
X007860Y009087D01*
X007860Y008587D02*
X007160Y009287D01*
X007160Y010837D01*
X006860Y011137D01*
X006460Y011137D01*
X006460Y011637D02*
X006860Y011637D01*
X007360Y011137D01*
X005510Y008837D02*
X004560Y007887D01*
X004560Y003737D01*
X004660Y003637D01*
X002660Y005782D02*
X002660Y005787D01*
X002210Y006237D01*
X002210Y009837D01*
X002410Y010037D01*
X002424Y010086D01*
X002760Y009937D02*
X002760Y009387D01*
X002760Y009937D02*
X002860Y010037D01*
X002896Y010086D01*
X002335Y010462D02*
X002810Y010937D01*
X002810Y011137D01*
X002860Y011187D01*
X002896Y011188D01*
X002335Y010462D02*
X002310Y010437D01*
X001460Y008087D02*
X001260Y007887D01*
X001260Y006187D01*
X001660Y005787D01*
X001660Y005782D01*
X001806Y007637D02*
X001810Y007637D01*
X010377Y014397D02*
X010360Y014437D01*
X012010Y015437D02*
X012030Y015420D01*
X012010Y015437D02*
X012010Y017337D01*
X012710Y017487D02*
X012010Y018187D01*
X012010Y018387D01*
X012910Y017987D02*
X012910Y015487D01*
X012960Y015437D01*
X012975Y015420D01*
X012710Y015487D02*
X012710Y017487D01*
X012360Y016587D02*
X012360Y015437D01*
X012345Y015420D01*
X012660Y015437D02*
X012660Y015420D01*
X012660Y015437D02*
X012710Y015487D01*
X013260Y015437D02*
X013290Y015420D01*
X013260Y015437D02*
X013260Y019537D01*
X011860Y020937D01*
X011860Y021687D01*
X010210Y023337D01*
X001660Y023337D01*
X001660Y022637D01*
X001160Y022137D01*
X001160Y020887D01*
X001460Y020587D01*
X004660Y021637D02*
X004660Y018937D01*
X006610Y016987D01*
X006610Y017687D02*
X005660Y018637D01*
X005660Y021637D01*
X009660Y022587D02*
X009660Y022637D01*
X009660Y022587D02*
X010310Y021937D01*
X010310Y018587D01*
X009860Y018137D01*
X025160Y007637D02*
X025610Y007187D01*
X025610Y005087D01*
X025160Y004637D01*
X025710Y004887D02*
X026160Y005337D01*
X026160Y006637D01*
X026610Y007187D02*
X026160Y007637D01*
X026610Y007187D02*
X026610Y005087D01*
X026160Y004637D01*
X025710Y004887D02*
X025710Y004087D01*
X026160Y003637D01*
X025160Y003637D02*
X024710Y004087D01*
X024710Y006187D01*
X025160Y006637D01*
X027160Y007637D02*
X027610Y007187D01*
X027610Y005087D01*
X027160Y004637D01*
X027710Y004887D02*
X027710Y004087D01*
X028160Y003637D01*
X028710Y004087D02*
X028710Y006187D01*
X029160Y006637D01*
X028610Y006437D02*
X028610Y007187D01*
X028160Y007637D01*
X029710Y007187D02*
X030160Y007637D01*
X029710Y007187D02*
X029710Y005087D01*
X030160Y004637D01*
X030710Y004087D02*
X030710Y006187D01*
X031160Y006637D01*
X031610Y007187D02*
X031160Y007637D01*
X031210Y007637D01*
X031610Y007187D02*
X031610Y005087D01*
X031160Y004637D01*
X031710Y004887D02*
X032160Y005337D01*
X032160Y006637D01*
X033160Y006637D02*
X033160Y005337D01*
X033610Y004887D01*
X033610Y004087D01*
X033160Y003637D01*
X032160Y003637D02*
X031710Y004087D01*
X031710Y004887D01*
X030710Y004087D02*
X031160Y003637D01*
X029160Y003637D02*
X028710Y004087D01*
X028160Y004637D02*
X028510Y004987D01*
X028510Y006337D01*
X028610Y006437D01*
X028160Y006637D02*
X028160Y005337D01*
X027710Y004887D01*
X033660Y005137D02*
X033660Y007137D01*
X034160Y007637D01*
X034710Y007187D02*
X034710Y005087D01*
X035160Y004637D01*
X035660Y005137D02*
X035660Y007137D01*
X036160Y007637D01*
X035160Y007637D02*
X034710Y007187D01*
X035660Y005137D02*
X036160Y004637D01*
X034160Y004637D02*
X033660Y005137D01*
D36*
X015060Y006037D03*
X014310Y004787D03*
X012010Y004487D03*
X010510Y005487D03*
X011260Y006737D03*
X009160Y007137D03*
X010860Y008437D03*
X010860Y008937D03*
X007860Y009087D03*
X007860Y008587D03*
X005510Y008837D03*
X002760Y009387D03*
X001460Y008087D03*
X011210Y012387D03*
X006610Y015937D03*
X007660Y016637D03*
X006610Y016987D03*
X006610Y017687D03*
X012010Y017337D03*
X012360Y016587D03*
X012910Y017987D03*
X012010Y018387D03*
X001460Y020587D03*
D37*
X002160Y020837D02*
X002160Y022837D01*
X002460Y023137D01*
X007860Y023137D01*
X008160Y022837D01*
X008160Y022437D01*
X008460Y022137D01*
X008860Y022137D01*
X009360Y021637D01*
X009660Y021637D01*
X008660Y021637D02*
X008610Y021587D01*
X008610Y014187D01*
X008760Y014437D02*
X008760Y018937D01*
X008860Y019037D01*
X009110Y018937D02*
X008910Y018737D01*
X008910Y014987D01*
X010110Y013787D01*
X010360Y013787D01*
X010377Y013767D01*
X010460Y013537D02*
X010377Y013452D01*
X010460Y013537D02*
X010960Y013537D01*
X010377Y013137D02*
X010060Y013137D01*
X008760Y014437D01*
X009860Y014637D02*
X009860Y018137D01*
X010960Y017337D02*
X010960Y016137D01*
X011360Y015737D01*
X011360Y015437D01*
X011400Y015420D01*
X011160Y015337D02*
X011085Y015420D01*
X011160Y015337D02*
X011160Y015137D01*
X011560Y014737D01*
X010860Y014337D02*
X010660Y014137D01*
X010460Y014137D01*
X010377Y014082D01*
X010860Y014337D02*
X010860Y016037D01*
X010460Y016437D01*
X010460Y022537D01*
X009860Y023137D01*
X009160Y023137D01*
X008660Y022637D01*
X008160Y022087D02*
X008160Y021437D01*
X008460Y021137D01*
X008460Y019637D01*
X008360Y019537D01*
X008360Y013837D01*
X009360Y012837D01*
X010360Y012837D01*
X010377Y012822D01*
X010377Y012507D02*
X010360Y012487D01*
X009410Y012487D01*
X008810Y011887D01*
X008810Y005737D01*
X008160Y006037D02*
X009460Y004737D01*
X009460Y009037D01*
X010560Y010137D01*
X010360Y010487D02*
X010360Y010737D01*
X012410Y012787D01*
X014360Y012787D01*
X014910Y012787D01*
X014943Y012822D01*
X014960Y012537D02*
X014943Y012507D01*
X014960Y012537D02*
X015260Y012537D01*
X015860Y013137D01*
X016660Y013437D02*
X014960Y013437D01*
X014943Y013452D01*
X014960Y013737D02*
X014943Y013767D01*
X014960Y013737D02*
X016560Y013737D01*
X017710Y012587D01*
X017710Y005287D01*
X017560Y005137D01*
X017560Y004237D01*
X018160Y003637D01*
X018260Y005537D02*
X020160Y003637D01*
X020660Y003137D02*
X021160Y003637D01*
X021160Y004237D01*
X018660Y006737D01*
X018660Y006782D01*
X018110Y007137D02*
X017960Y006987D01*
X018110Y007137D02*
X018110Y012387D01*
X016460Y014037D01*
X014960Y014037D01*
X014943Y014082D01*
X014943Y014397D02*
X014960Y014437D01*
X015010Y014487D01*
X015260Y014487D01*
X015360Y014587D01*
X015460Y014587D01*
X015460Y014437D01*
X015460Y014587D02*
X016110Y014587D01*
X016760Y015237D01*
X016760Y016087D01*
X017210Y016537D01*
X016660Y017087D01*
X016660Y022637D01*
X020810Y022787D02*
X020810Y023087D01*
X020796Y023087D01*
X020810Y022787D02*
X021560Y022037D01*
X021593Y021997D01*
X020610Y017737D02*
X018310Y015437D01*
X019210Y014537D01*
X019210Y010087D01*
X019246Y010077D01*
X020034Y009703D02*
X020060Y009737D01*
X020860Y009737D01*
X020900Y009702D01*
X020910Y009687D01*
X023110Y007487D01*
X023110Y005087D01*
X023660Y004437D02*
X023660Y006137D01*
X024160Y006637D01*
X023660Y004437D02*
X024160Y003937D01*
X024160Y003637D01*
X022160Y003637D02*
X021860Y003637D01*
X021160Y002937D01*
X015160Y002937D01*
X015135Y002912D01*
X015660Y003437D02*
X015960Y003137D01*
X020660Y003137D01*
X022160Y003637D02*
X022160Y004237D01*
X019660Y006737D01*
X019660Y006782D01*
X018260Y005537D02*
X018260Y012437D01*
X016360Y014337D01*
X016160Y014337D01*
X016060Y014737D02*
X016060Y015637D01*
X016109Y015637D01*
X017210Y016537D02*
X018310Y015437D01*
X020606Y015657D02*
X020610Y015687D01*
X020610Y017087D01*
X020607Y017127D01*
X020960Y016937D02*
X020960Y017387D01*
X020610Y017737D01*
X020960Y016937D02*
X022010Y015887D01*
X022010Y014237D01*
X022010Y013537D01*
X022046Y013507D01*
X017160Y012937D02*
X016660Y013437D01*
X017160Y012937D02*
X017160Y008987D01*
X017060Y008987D01*
X015660Y008337D02*
X015660Y003437D01*
X014160Y003637D02*
X013660Y004137D01*
X011860Y004137D01*
X011660Y004337D01*
X011660Y004637D01*
X011760Y004737D01*
X011760Y008937D01*
X012660Y009837D01*
X012660Y010853D01*
X012260Y011837D02*
X014860Y011837D01*
X014943Y011877D01*
X014943Y012192D02*
X014960Y012237D01*
X015460Y012237D01*
X014943Y013137D02*
X011960Y013137D01*
X011210Y012387D01*
X010760Y012137D02*
X011060Y011837D01*
X010760Y012137D02*
X010460Y012137D01*
X010377Y012192D01*
X010360Y010487D02*
X010010Y010137D01*
X009810Y010137D01*
X010260Y009437D02*
X010260Y005737D01*
X009660Y005137D01*
X009660Y004337D01*
X009160Y003837D01*
X009160Y003437D01*
X009460Y003137D01*
X011160Y003137D01*
X011660Y003637D01*
X009460Y004437D02*
X008660Y003637D01*
X009460Y004437D02*
X009460Y004737D01*
X008160Y006037D02*
X008160Y019737D01*
X009110Y019737D02*
X009110Y018937D01*
X010960Y019737D02*
X011660Y019037D01*
X011660Y015437D01*
X011715Y015420D01*
X010360Y014437D02*
X010060Y014437D01*
X009860Y014637D01*
X007760Y013937D02*
X007760Y016037D01*
X006960Y016837D01*
X006960Y020637D01*
X006160Y021437D01*
X006160Y022137D01*
X006660Y022637D01*
X007160Y022137D02*
X007660Y022637D01*
X007160Y022137D02*
X007160Y021437D01*
X006910Y021187D01*
X006910Y021087D01*
X007210Y020787D01*
X005360Y021237D02*
X005160Y021437D01*
X005160Y022137D01*
X005660Y022637D01*
X005360Y021237D02*
X005360Y019137D01*
X003560Y018537D02*
X003560Y020937D01*
X003160Y021337D01*
X003160Y022137D01*
X002660Y022637D01*
X002160Y020837D02*
X001060Y019737D01*
X001060Y005837D01*
X001460Y005437D01*
X001860Y005437D01*
X002010Y005587D01*
X002010Y006137D01*
X001660Y006487D01*
X001660Y006491D01*
X002660Y006491D02*
X002660Y006537D01*
X003510Y006537D01*
X002560Y007637D02*
X002514Y007637D01*
X002560Y007637D02*
X002560Y008737D01*
X003560Y009737D01*
X003560Y014437D01*
X006660Y013187D02*
X006660Y012687D01*
X005560Y011587D01*
X005560Y010187D01*
X006110Y009637D01*
X006460Y009637D01*
X002360Y010437D02*
X002335Y010462D01*
X002360Y010437D02*
X002160Y010437D01*
X001860Y010137D01*
X001860Y007637D01*
X001806Y007637D01*
X006660Y013187D02*
X007260Y013787D01*
X013920Y010853D02*
X013960Y010837D01*
X013960Y010037D01*
X015660Y008337D01*
X016060Y014737D02*
X014960Y014737D01*
X014943Y014712D01*
X029110Y014237D02*
X030160Y014237D01*
X030177Y014205D01*
X030210Y014187D01*
X030210Y011537D01*
X030177Y011528D01*
X029160Y007637D02*
X029560Y007237D01*
X029560Y006437D01*
X029160Y006037D01*
X029160Y004637D01*
X032760Y005537D02*
X032760Y007237D01*
X033160Y007637D01*
X032760Y005537D02*
X033160Y005137D01*
X033160Y004637D01*
X036660Y012987D02*
X036703Y012987D01*
X036660Y012987D02*
X036660Y013937D01*
X036654Y013967D01*
D38*
X033360Y013187D03*
X031260Y015837D03*
X029110Y014237D03*
X022510Y012937D03*
X022010Y014237D03*
X017760Y014737D03*
X016160Y014337D03*
X015460Y014437D03*
X014010Y013837D03*
X014360Y012787D03*
X015460Y012237D03*
X015860Y013137D03*
X012260Y011837D03*
X011060Y011837D03*
X010560Y010137D03*
X009810Y010137D03*
X010260Y009437D03*
X013460Y008737D03*
X017060Y008987D03*
X018610Y008187D03*
X017960Y006987D03*
X023110Y005087D03*
X008810Y005737D03*
X003510Y006537D03*
X002360Y011737D03*
X006610Y013787D03*
X007260Y013787D03*
X007760Y013937D03*
X008610Y014187D03*
X010960Y013537D03*
X011560Y014737D03*
X013760Y016737D03*
X010960Y017337D03*
X008860Y019037D03*
X009110Y019737D03*
X008160Y019737D03*
X007210Y020787D03*
X008160Y022087D03*
X010960Y019737D03*
X015810Y019387D03*
X021660Y018637D03*
X022660Y019687D03*
X023260Y020437D03*
X024960Y019087D03*
X028660Y021787D03*
X021660Y022537D03*
X005360Y019137D03*
X003560Y018537D03*
X005360Y015637D03*
X003560Y014437D03*
D39*
X004210Y013987D02*
X004210Y015137D01*
X004194Y015137D01*
X004110Y015287D01*
X004110Y015637D01*
X005360Y015637D01*
X006260Y015587D02*
X006260Y015287D01*
X006126Y015137D01*
X006110Y014937D01*
X006110Y013787D01*
X006610Y013787D01*
X006110Y013787D02*
X006110Y013287D01*
X006211Y013137D01*
X006210Y013137D01*
X004860Y011787D01*
X004860Y011637D01*
X004860Y011137D02*
X004010Y011137D01*
X004010Y011987D01*
X004360Y012337D01*
X004360Y013587D01*
X004485Y013712D01*
X005060Y013137D01*
X005109Y013137D01*
X004485Y013712D02*
X004210Y013987D01*
X006260Y015587D02*
X006610Y015937D01*
X007660Y016637D02*
X007660Y021637D01*
X004110Y021187D02*
X004110Y015637D01*
X010260Y015137D02*
X010260Y015087D01*
X010260Y015037D01*
X013760Y016737D02*
X014160Y017137D01*
X014310Y017288D01*
X014310Y017937D02*
X014260Y017937D01*
X013760Y018437D01*
X013760Y022537D01*
X013660Y022637D01*
X012660Y022637D01*
X014660Y022637D02*
X014760Y022487D01*
X015810Y021437D01*
X015810Y019387D01*
X020640Y020707D02*
X020660Y020737D01*
X020660Y021887D01*
X020760Y021987D01*
X020767Y021997D01*
X020710Y022187D01*
X020310Y022587D01*
X020310Y023337D01*
X020260Y023337D01*
X020260Y023437D01*
X020460Y023637D01*
X022360Y023637D01*
X023585Y022412D01*
X023710Y022537D01*
X023710Y022587D01*
X024660Y023537D01*
X024670Y023557D01*
X023585Y022412D02*
X024410Y021587D01*
X024410Y021337D01*
X024660Y021087D01*
X024680Y021077D01*
X023860Y020937D02*
X023860Y019137D01*
X023930Y019101D01*
X023760Y018537D02*
X023460Y018537D01*
X023260Y018737D01*
X023260Y020437D01*
X022660Y020687D02*
X022640Y020707D01*
X022660Y020687D02*
X022660Y019687D01*
X021710Y019487D02*
X020810Y019487D01*
X017660Y022637D01*
X016360Y023337D02*
X020260Y023337D01*
X021504Y023087D02*
X021510Y023087D01*
X021860Y022737D01*
X021660Y022537D01*
X021860Y022737D02*
X023610Y020987D01*
X021660Y020637D02*
X021640Y020707D01*
X021660Y020637D02*
X021660Y019537D01*
X021710Y019487D01*
X022660Y018537D01*
X022660Y013637D01*
X022660Y013337D02*
X022510Y013187D01*
X022510Y012937D01*
X018660Y013837D02*
X017760Y014737D01*
X017260Y015237D01*
X017260Y015637D01*
X014260Y015437D02*
X014260Y015420D01*
X014260Y015437D02*
X014235Y015420D01*
X014160Y015237D01*
X014010Y015087D01*
X014010Y013837D01*
X018660Y013837D02*
X018660Y009837D01*
X020260Y008237D01*
X020260Y007237D01*
X019660Y007487D02*
X019660Y007491D01*
X019660Y007487D02*
X018660Y007487D01*
X018660Y007491D01*
X018610Y007687D01*
X018610Y008187D01*
X020034Y010451D02*
X020060Y010437D01*
X020860Y010437D01*
X020900Y010411D01*
X014310Y007287D02*
X014310Y004787D01*
X014310Y007287D02*
X014210Y007387D01*
X014160Y007586D02*
X014160Y007587D01*
X012660Y007587D01*
X012660Y007586D01*
X012660Y008688D02*
X012660Y008737D01*
X013310Y008737D01*
X013310Y010187D01*
X013290Y010247D01*
X013310Y008737D02*
X013460Y008737D01*
X009410Y011877D02*
X009360Y011837D01*
X004860Y011137D02*
X004860Y010637D01*
X004860Y010137D01*
X004860Y009637D01*
X002424Y011188D02*
X002360Y011237D01*
X002360Y011737D01*
X004110Y021187D02*
X003660Y021637D01*
X015660Y022637D02*
X016360Y023337D01*
X021710Y018687D02*
X021710Y018637D01*
X021660Y018637D01*
X021710Y018637D02*
X021710Y017387D01*
X021460Y017137D01*
X021433Y017127D01*
X023960Y017187D02*
X023992Y017167D01*
X023960Y017187D02*
X023960Y018387D01*
X023930Y018432D01*
X023760Y018537D01*
X024960Y019087D02*
X025410Y019087D01*
X025590Y019101D01*
X025760Y019287D01*
X026210Y018837D01*
X026210Y018787D01*
X026210Y018087D01*
X026160Y018037D01*
X026160Y017887D01*
X025460Y017187D01*
X025448Y017167D01*
X024860Y016937D02*
X028460Y013337D01*
X028610Y013337D01*
X028610Y011537D01*
X028603Y011528D01*
X028610Y013337D02*
X028610Y014187D01*
X028603Y014205D01*
X028560Y014337D01*
X028760Y014537D01*
X028760Y016337D01*
X031560Y016337D01*
X031660Y016237D01*
X031860Y016241D01*
X032060Y016237D01*
X033510Y016237D01*
X033700Y016221D01*
X033910Y016237D01*
X034310Y016237D01*
X034410Y016387D01*
X034410Y020687D01*
X034710Y020987D01*
X034760Y021187D02*
X034776Y021207D01*
X034710Y021387D01*
X034710Y021837D01*
X033460Y023087D01*
X033438Y023097D01*
X032316Y021207D02*
X032310Y021187D01*
X032310Y019587D01*
X030860Y018137D01*
X030814Y018137D01*
X030060Y017787D02*
X029910Y017887D01*
X029910Y019087D01*
X029610Y019387D01*
X029310Y019387D01*
X029290Y019391D01*
X029260Y019587D01*
X029260Y020887D01*
X029110Y021037D01*
X029110Y021077D01*
X029010Y021237D01*
X029010Y021437D01*
X028660Y021787D01*
X027910Y021637D02*
X027910Y021387D01*
X028210Y021087D01*
X028210Y021077D01*
X027910Y021637D02*
X027760Y021787D01*
X027860Y021937D01*
X027860Y023237D01*
X028160Y023537D01*
X028200Y023557D01*
X027760Y021787D02*
X025660Y021787D01*
X025660Y021237D01*
X025580Y021077D01*
X025610Y021037D01*
X025610Y019137D01*
X025590Y019101D01*
X026210Y018787D02*
X027310Y018787D01*
X027500Y018752D01*
X027510Y018737D01*
X028010Y018237D01*
X028010Y017787D01*
X028160Y017637D01*
X028172Y017597D01*
X029628Y017597D02*
X029660Y017637D01*
X029910Y017887D01*
X030060Y017787D02*
X030060Y017087D01*
X031410Y017087D01*
X032460Y018137D01*
X032506Y018137D01*
X034310Y016237D02*
X034310Y012537D01*
X034510Y012537D01*
X035910Y013937D01*
X035946Y013967D01*
X035910Y012987D02*
X035877Y012987D01*
X035910Y012987D02*
X036160Y012737D01*
X036160Y010627D01*
X036160Y009627D02*
X036160Y009587D01*
X036760Y008987D01*
X036760Y006287D01*
X036635Y006162D01*
X036760Y006037D01*
X036760Y004187D01*
X036310Y003737D01*
X036160Y003637D01*
X035160Y003637D01*
X036635Y006162D02*
X036160Y006637D01*
X033960Y009437D02*
X032160Y007637D01*
X033960Y009437D02*
X033960Y012387D01*
X033770Y012507D01*
X033810Y012537D01*
X034310Y012537D01*
X033360Y013187D02*
X033160Y013187D01*
X033160Y012787D01*
X032910Y012537D01*
X032870Y012507D01*
X032910Y012337D01*
X032910Y010037D01*
X032880Y010027D01*
X031970Y012507D02*
X032010Y012537D01*
X032010Y013987D01*
X031932Y014157D01*
X031910Y014187D01*
X031860Y014237D01*
X031860Y015572D01*
X031710Y015637D01*
X031260Y015637D01*
X031260Y015837D01*
X033660Y015537D02*
X033660Y014437D01*
X033410Y014187D01*
X033388Y014157D01*
X033310Y013987D01*
X033160Y013837D01*
X033160Y013187D01*
X033660Y015537D02*
X033700Y015552D01*
X028760Y016337D02*
X028760Y018737D01*
X029260Y018737D01*
X028760Y018737D02*
X028260Y018737D01*
X028260Y018987D01*
X027460Y019787D01*
X027310Y019787D01*
X027310Y019587D01*
X027460Y019437D01*
X025560Y018337D02*
X025560Y018137D01*
X024860Y017437D01*
X024860Y016937D01*
D40*
X015210Y017288D02*
X014310Y017288D01*
X014310Y016186D02*
X015210Y016186D01*
D41*
X015744Y016171D02*
X015744Y016575D01*
X015639Y016681D01*
X014781Y016681D01*
X014760Y016659D01*
X014739Y016681D01*
X013881Y016681D01*
X013776Y016575D01*
X013776Y015896D01*
X013747Y015896D01*
X013743Y015891D01*
X013727Y015896D01*
X013605Y015896D01*
X013605Y015420D01*
X013605Y014945D01*
X013630Y014945D01*
X013630Y013761D01*
X013688Y013622D01*
X013795Y013515D01*
X013934Y013457D01*
X014086Y013457D01*
X014225Y013515D01*
X014332Y013622D01*
X014390Y013761D01*
X014390Y014929D01*
X014406Y014945D01*
X014408Y014945D01*
X014513Y015050D01*
X014513Y015097D01*
X014540Y015161D01*
X014540Y015162D01*
X014540Y015163D01*
X014582Y015205D01*
X014614Y015281D01*
X014617Y015286D01*
X014618Y015291D01*
X014640Y015345D01*
X014640Y015398D01*
X014647Y015434D01*
X014640Y015473D01*
X014640Y015512D01*
X014626Y015546D01*
X014619Y015582D01*
X014597Y015615D01*
X014582Y015652D01*
X014556Y015678D01*
X014548Y015691D01*
X014739Y015691D01*
X014760Y015712D01*
X014781Y015691D01*
X015614Y015691D01*
X015614Y015208D01*
X015719Y015102D01*
X015850Y015102D01*
X015850Y014947D01*
X015357Y014947D01*
X015313Y014990D01*
X014574Y014990D01*
X014468Y014885D01*
X014468Y013347D01*
X011873Y013347D01*
X011291Y012765D01*
X011286Y012767D01*
X011134Y012767D01*
X010995Y012709D01*
X010888Y012602D01*
X010852Y012515D01*
X010852Y012680D01*
X010852Y013224D01*
X010894Y013207D01*
X011026Y013207D01*
X011147Y013257D01*
X011240Y013350D01*
X011290Y013471D01*
X011290Y013602D01*
X011240Y013724D01*
X011147Y013817D01*
X011026Y013867D01*
X010894Y013867D01*
X010852Y013849D01*
X010852Y014032D01*
X010947Y014127D01*
X011070Y014250D01*
X011070Y014930D01*
X011230Y014770D01*
X011230Y014671D01*
X011280Y014550D01*
X011373Y014457D01*
X011494Y014407D01*
X011626Y014407D01*
X011747Y014457D01*
X011840Y014550D01*
X011890Y014671D01*
X011890Y014802D01*
X011840Y014924D01*
X011818Y014945D01*
X013463Y014945D01*
X013467Y014949D01*
X013483Y014945D01*
X013605Y014945D01*
X013605Y015420D01*
X013605Y015420D01*
X013640Y015420D01*
X013640Y015420D01*
X013605Y015420D01*
X013605Y015420D01*
X013610Y015420D01*
X013610Y016037D01*
X013490Y016009D02*
X013776Y016009D01*
X013776Y016168D02*
X013490Y016168D01*
X013490Y016326D02*
X013776Y016326D01*
X013776Y016485D02*
X013490Y016485D01*
X013490Y016643D02*
X013844Y016643D01*
X013886Y016805D02*
X013932Y016793D01*
X014233Y016793D01*
X014233Y017211D01*
X014387Y017211D01*
X014387Y016793D01*
X014688Y016793D01*
X014734Y016805D01*
X014760Y016820D01*
X014786Y016805D01*
X014832Y016793D01*
X015133Y016793D01*
X015133Y017211D01*
X015287Y017211D01*
X015287Y016793D01*
X015588Y016793D01*
X015634Y016805D01*
X015675Y016829D01*
X015708Y016863D01*
X015732Y016904D01*
X015744Y016949D01*
X015744Y017211D01*
X015287Y017211D01*
X015287Y017365D01*
X015133Y017365D01*
X015133Y017783D01*
X014832Y017783D01*
X014786Y017771D01*
X014760Y017756D01*
X014734Y017771D01*
X014688Y017783D01*
X014387Y017783D01*
X014387Y017365D01*
X014233Y017365D01*
X014233Y017211D01*
X013776Y017211D01*
X013776Y016949D01*
X013788Y016904D01*
X013812Y016863D01*
X013845Y016829D01*
X013886Y016805D01*
X013899Y016802D02*
X013490Y016802D01*
X013490Y016960D02*
X013776Y016960D01*
X013776Y017119D02*
X013490Y017119D01*
X013490Y017277D02*
X014233Y017277D01*
X014310Y017288D02*
X014310Y017937D01*
X014233Y017783D02*
X013932Y017783D01*
X013886Y017771D01*
X013845Y017747D01*
X013812Y017713D01*
X013788Y017672D01*
X013776Y017627D01*
X013776Y017365D01*
X014233Y017365D01*
X014233Y017783D01*
X014233Y017753D02*
X014387Y017753D01*
X014387Y017594D02*
X014233Y017594D01*
X014233Y017436D02*
X014387Y017436D01*
X014387Y017365D02*
X015133Y017365D01*
X015133Y017211D01*
X014676Y017211D01*
X014387Y017211D01*
X014387Y017365D01*
X014387Y017277D02*
X015133Y017277D01*
X015287Y017277D02*
X016450Y017277D01*
X016450Y017119D02*
X015744Y017119D01*
X015744Y016960D02*
X016489Y016960D01*
X016450Y017000D02*
X016913Y016537D01*
X016673Y016297D01*
X016550Y016174D01*
X016550Y016119D01*
X016498Y016171D01*
X015744Y016171D01*
X015744Y016326D02*
X016703Y016326D01*
X016550Y016168D02*
X016502Y016168D01*
X016861Y016485D02*
X015744Y016485D01*
X015676Y016643D02*
X016806Y016643D01*
X016648Y016802D02*
X015621Y016802D01*
X015287Y016802D02*
X015133Y016802D01*
X015133Y016960D02*
X015287Y016960D01*
X015287Y017119D02*
X015133Y017119D01*
X015287Y017365D02*
X015744Y017365D01*
X015744Y017627D01*
X015732Y017672D01*
X015708Y017713D01*
X015675Y017747D01*
X015634Y017771D01*
X015588Y017783D01*
X015287Y017783D01*
X015287Y017365D01*
X015287Y017436D02*
X015133Y017436D01*
X015133Y017594D02*
X015287Y017594D01*
X015287Y017753D02*
X015133Y017753D01*
X015665Y017753D02*
X016450Y017753D01*
X016450Y017911D02*
X013490Y017911D01*
X013490Y017753D02*
X013855Y017753D01*
X013776Y017594D02*
X013490Y017594D01*
X013490Y017436D02*
X013776Y017436D01*
X014233Y017119D02*
X014387Y017119D01*
X014387Y016960D02*
X014233Y016960D01*
X014233Y016802D02*
X014387Y016802D01*
X014721Y016802D02*
X014799Y016802D01*
X014310Y016186D02*
X014160Y015437D01*
X014260Y015437D01*
X014631Y015534D02*
X015614Y015534D01*
X015614Y015375D02*
X014640Y015375D01*
X014587Y015217D02*
X015614Y015217D01*
X015850Y015058D02*
X014513Y015058D01*
X014483Y014900D02*
X014390Y014900D01*
X014390Y014741D02*
X014468Y014741D01*
X014468Y014583D02*
X014390Y014583D01*
X014390Y014424D02*
X014468Y014424D01*
X014468Y014266D02*
X014390Y014266D01*
X014390Y014107D02*
X014468Y014107D01*
X014468Y013949D02*
X014390Y013949D01*
X014390Y013790D02*
X014468Y013790D01*
X014468Y013632D02*
X014336Y013632D01*
X014468Y013473D02*
X014125Y013473D01*
X013895Y013473D02*
X011290Y013473D01*
X011278Y013632D02*
X013684Y013632D01*
X013630Y013790D02*
X011173Y013790D01*
X010852Y013949D02*
X013630Y013949D01*
X013630Y014107D02*
X010928Y014107D01*
X011070Y014266D02*
X013630Y014266D01*
X013630Y014424D02*
X011668Y014424D01*
X011452Y014424D02*
X011070Y014424D01*
X011070Y014583D02*
X011267Y014583D01*
X011230Y014741D02*
X011070Y014741D01*
X011070Y014900D02*
X011100Y014900D01*
X010650Y014990D02*
X010377Y014990D01*
X010377Y014712D01*
X010377Y014712D01*
X010377Y014990D01*
X010070Y014990D01*
X010070Y018022D01*
X010250Y018202D01*
X010250Y016350D01*
X010373Y016227D01*
X010650Y015950D01*
X010650Y014990D01*
X010650Y015058D02*
X010070Y015058D01*
X010070Y015217D02*
X010650Y015217D01*
X010650Y015375D02*
X010070Y015375D01*
X010070Y015534D02*
X010650Y015534D01*
X010650Y015692D02*
X010070Y015692D01*
X010070Y015851D02*
X010650Y015851D01*
X010590Y016009D02*
X010070Y016009D01*
X010070Y016168D02*
X010432Y016168D01*
X010273Y016326D02*
X010070Y016326D01*
X010070Y016485D02*
X010250Y016485D01*
X010250Y016643D02*
X010070Y016643D01*
X010070Y016802D02*
X010250Y016802D01*
X010250Y016960D02*
X010070Y016960D01*
X010070Y017119D02*
X010250Y017119D01*
X010250Y017277D02*
X010070Y017277D01*
X010070Y017436D02*
X010250Y017436D01*
X010250Y017594D02*
X010070Y017594D01*
X010070Y017753D02*
X010250Y017753D01*
X010250Y017911D02*
X010070Y017911D01*
X010118Y018070D02*
X010250Y018070D01*
X007332Y016168D02*
X006916Y016168D01*
X006932Y016152D02*
X006825Y016259D01*
X006686Y016317D01*
X006534Y016317D01*
X006395Y016259D01*
X006288Y016152D01*
X006045Y015909D01*
X005938Y015802D01*
X005933Y015789D01*
X005619Y015789D01*
X005513Y015684D01*
X005513Y014590D01*
X005619Y014484D01*
X005730Y014484D01*
X005730Y013579D01*
X005716Y013566D01*
X005716Y013180D01*
X005595Y013059D01*
X005186Y013059D01*
X005186Y012651D01*
X004645Y012109D01*
X004538Y012002D01*
X004521Y011962D01*
X004235Y011962D01*
X004130Y011856D01*
X004130Y011417D01*
X004162Y011385D01*
X004142Y011351D01*
X004130Y011306D01*
X004130Y011137D01*
X004860Y011137D01*
X004860Y011137D01*
X004130Y011137D01*
X004130Y010968D01*
X004142Y010922D01*
X004163Y010887D01*
X004142Y010851D01*
X004130Y010806D01*
X004130Y010637D01*
X004860Y010637D01*
X004860Y010962D01*
X004860Y011137D01*
X004860Y010637D01*
X004860Y010637D01*
X004860Y010637D01*
X004130Y010637D01*
X004130Y010468D01*
X004142Y010422D01*
X004163Y010387D01*
X004142Y010351D01*
X004130Y010306D01*
X004130Y010137D01*
X004860Y010137D01*
X004860Y010462D01*
X004860Y010462D01*
X004860Y010637D01*
X004860Y010137D01*
X004860Y010137D01*
X004860Y010137D01*
X004130Y010137D01*
X004130Y009968D01*
X004142Y009922D01*
X004163Y009887D01*
X004142Y009851D01*
X004130Y009806D01*
X004130Y009637D01*
X004860Y009637D01*
X004860Y009962D01*
X004860Y010137D01*
X004860Y009637D01*
X004860Y009637D01*
X005590Y009637D01*
X005590Y009806D01*
X005578Y009851D01*
X005557Y009887D01*
X005559Y009890D01*
X005730Y009720D01*
X005730Y009417D01*
X005835Y009312D01*
X006930Y009312D01*
X006930Y009192D01*
X007065Y009057D01*
X007480Y008642D01*
X007480Y008511D01*
X007538Y008372D01*
X007645Y008265D01*
X007784Y008207D01*
X007936Y008207D01*
X007950Y008213D01*
X007950Y005950D01*
X009250Y004650D01*
X009250Y004524D01*
X008871Y004145D01*
X008769Y004187D01*
X008551Y004187D01*
X008348Y004103D01*
X008194Y003948D01*
X008160Y003867D01*
X008126Y003948D01*
X007972Y004103D01*
X007769Y004187D01*
X007551Y004187D01*
X007348Y004103D01*
X007194Y003948D01*
X007160Y003867D01*
X007126Y003948D01*
X006972Y004103D01*
X006769Y004187D01*
X006551Y004187D01*
X006348Y004103D01*
X006194Y003948D01*
X006160Y003867D01*
X006126Y003948D01*
X005972Y004103D01*
X005769Y004187D01*
X005551Y004187D01*
X005348Y004103D01*
X005194Y003948D01*
X005160Y003867D01*
X005126Y003948D01*
X004972Y004103D01*
X004790Y004178D01*
X004790Y007235D01*
X004887Y006999D01*
X005127Y006760D01*
X005440Y006630D01*
X005778Y006630D01*
X006091Y006760D01*
X006330Y006999D01*
X006460Y007312D01*
X006460Y007651D01*
X006330Y007963D01*
X006091Y008203D01*
X005778Y008332D01*
X005440Y008332D01*
X005254Y008255D01*
X005455Y008457D01*
X005586Y008457D01*
X005725Y008515D01*
X005832Y008622D01*
X005890Y008761D01*
X005890Y008912D01*
X005832Y009052D01*
X005725Y009159D01*
X005586Y009217D01*
X005434Y009217D01*
X005295Y009159D01*
X005188Y009052D01*
X005130Y008912D01*
X005130Y008782D01*
X004465Y008117D01*
X004330Y007982D01*
X004330Y004085D01*
X004194Y003948D01*
X004110Y003746D01*
X004110Y003527D01*
X004194Y003325D01*
X004348Y003171D01*
X000940Y003171D01*
X000940Y003329D02*
X004192Y003329D01*
X004126Y003488D02*
X000940Y003488D01*
X000940Y003646D02*
X004110Y003646D01*
X004134Y003805D02*
X000940Y003805D01*
X000940Y003963D02*
X004209Y003963D01*
X004330Y004122D02*
X000940Y004122D01*
X000940Y004280D02*
X004330Y004280D01*
X004330Y004439D02*
X000940Y004439D01*
X000940Y004597D02*
X004330Y004597D01*
X004330Y004756D02*
X000940Y004756D01*
X000940Y004914D02*
X004330Y004914D01*
X004330Y005073D02*
X000940Y005073D01*
X000940Y005231D02*
X001369Y005231D01*
X001373Y005227D02*
X001947Y005227D01*
X002070Y005350D01*
X002220Y005500D01*
X002220Y005902D01*
X002244Y005878D01*
X002244Y005550D01*
X002349Y005445D01*
X002971Y005445D01*
X003076Y005550D01*
X003076Y006015D01*
X002971Y006120D01*
X002652Y006120D01*
X002618Y006154D01*
X002971Y006154D01*
X003076Y006259D01*
X003076Y006327D01*
X003253Y006327D01*
X003323Y006257D01*
X003444Y006207D01*
X003576Y006207D01*
X003697Y006257D01*
X003790Y006350D01*
X003840Y006471D01*
X003840Y006602D01*
X003790Y006724D01*
X003697Y006817D01*
X003576Y006867D01*
X003444Y006867D01*
X003323Y006817D01*
X003253Y006747D01*
X003053Y006747D01*
X002971Y006829D01*
X002440Y006829D01*
X002440Y007221D01*
X002746Y007221D01*
X002852Y007326D01*
X002852Y007948D01*
X002770Y008029D01*
X002770Y008650D01*
X003647Y009527D01*
X003770Y009650D01*
X003770Y014180D01*
X003840Y014250D01*
X003890Y014371D01*
X003890Y014484D01*
X004114Y014484D01*
X004114Y015057D01*
X003581Y015057D01*
X003581Y014767D01*
X003494Y014767D01*
X003373Y014717D01*
X003280Y014624D01*
X003230Y014502D01*
X003230Y014371D01*
X003280Y014250D01*
X003350Y014180D01*
X003350Y009824D01*
X003096Y009569D01*
X003082Y009602D01*
X002995Y009689D01*
X003168Y009689D01*
X003273Y009795D01*
X003273Y010377D01*
X003168Y010482D01*
X002681Y010482D01*
X002990Y010791D01*
X003168Y010791D01*
X003273Y010897D01*
X003273Y011479D01*
X003168Y011585D01*
X002740Y011585D01*
X002740Y011812D01*
X002682Y011952D01*
X002575Y012059D01*
X002436Y012117D01*
X002284Y012117D01*
X002145Y012059D01*
X002038Y011952D01*
X001980Y011812D01*
X001980Y011287D01*
X001973Y011262D01*
X001980Y011212D01*
X001980Y011161D01*
X001990Y011137D01*
X001993Y011112D01*
X002019Y011068D01*
X002038Y011022D01*
X002047Y011012D01*
X002047Y010897D01*
X002152Y010791D01*
X002339Y010791D01*
X002195Y010647D01*
X002073Y010647D01*
X001950Y010524D01*
X001650Y010224D01*
X001650Y008419D01*
X001536Y008467D01*
X001384Y008467D01*
X001270Y008419D01*
X001270Y019650D01*
X002247Y020627D01*
X002370Y020750D01*
X002370Y021162D01*
X002551Y021087D01*
X002769Y021087D01*
X002972Y021171D01*
X003000Y021199D01*
X003073Y021127D01*
X003350Y020850D01*
X003350Y018794D01*
X003280Y018724D01*
X003230Y018602D01*
X003230Y018471D01*
X003280Y018350D01*
X003373Y018257D01*
X003494Y018207D01*
X003626Y018207D01*
X003747Y018257D01*
X003840Y018350D01*
X003890Y018471D01*
X003890Y018602D01*
X003840Y018724D01*
X003770Y018794D01*
X003770Y021024D01*
X003706Y021087D01*
X003789Y021100D01*
X003871Y021127D01*
X003948Y021166D01*
X004018Y021217D01*
X004080Y021279D01*
X004130Y021349D01*
X004160Y021407D01*
X004194Y021325D01*
X004348Y021171D01*
X004430Y021137D01*
X004430Y018842D01*
X004565Y018707D01*
X006230Y017042D01*
X006230Y016911D01*
X006288Y016772D01*
X006395Y016665D01*
X006534Y016607D01*
X006686Y016607D01*
X006825Y016665D01*
X006830Y016670D01*
X006873Y016627D01*
X007550Y015950D01*
X007550Y014194D01*
X007480Y014124D01*
X007454Y014060D01*
X007447Y014067D01*
X007326Y014117D01*
X007194Y014117D01*
X007073Y014067D01*
X006980Y013974D01*
X006962Y013930D01*
X006932Y014002D01*
X006825Y014109D01*
X006686Y014167D01*
X006490Y014167D01*
X006490Y014484D01*
X006634Y014484D01*
X006739Y014590D01*
X006739Y015529D01*
X006825Y015615D01*
X006932Y015722D01*
X006990Y015861D01*
X006990Y016012D01*
X006932Y016152D01*
X006990Y016009D02*
X007490Y016009D01*
X007550Y015851D02*
X006986Y015851D01*
X006903Y015692D02*
X007550Y015692D01*
X007550Y015534D02*
X006744Y015534D01*
X006739Y015375D02*
X007550Y015375D01*
X007550Y015217D02*
X006739Y015217D01*
X006739Y015058D02*
X007550Y015058D01*
X007550Y014900D02*
X006739Y014900D01*
X006739Y014741D02*
X007550Y014741D01*
X007550Y014583D02*
X006732Y014583D01*
X006490Y014424D02*
X007550Y014424D01*
X007550Y014266D02*
X006490Y014266D01*
X006827Y014107D02*
X007171Y014107D01*
X007349Y014107D02*
X007473Y014107D01*
X006970Y013949D02*
X006954Y013949D01*
X005730Y013949D02*
X003770Y013949D01*
X003770Y014107D02*
X005730Y014107D01*
X005730Y014266D02*
X003846Y014266D01*
X003890Y014424D02*
X005730Y014424D01*
X005520Y014583D02*
X004788Y014583D01*
X004795Y014595D02*
X004807Y014641D01*
X004807Y015057D01*
X004274Y015057D01*
X004274Y015217D01*
X004114Y015217D01*
X004114Y015789D01*
X003737Y015789D01*
X003691Y015777D01*
X003650Y015753D01*
X003617Y015720D01*
X003593Y015679D01*
X003581Y015633D01*
X003581Y015217D01*
X001270Y015217D01*
X001270Y015375D02*
X003581Y015375D01*
X003581Y015217D02*
X004114Y015217D01*
X004274Y015217D01*
X004274Y015789D01*
X004651Y015789D01*
X004696Y015777D01*
X004737Y015753D01*
X004771Y015720D01*
X004795Y015679D01*
X004807Y015633D01*
X004807Y015217D01*
X005513Y015217D01*
X005513Y015375D02*
X004807Y015375D01*
X004807Y015217D02*
X004274Y015217D01*
X004274Y015375D02*
X004114Y015375D01*
X004114Y015217D02*
X004114Y015057D01*
X004274Y015057D01*
X004274Y014484D01*
X004651Y014484D01*
X004696Y014497D01*
X004737Y014520D01*
X004771Y014554D01*
X004795Y014595D01*
X004807Y014741D02*
X005513Y014741D01*
X005513Y014900D02*
X004807Y014900D01*
X004274Y015058D02*
X005513Y015058D01*
X005513Y015534D02*
X004807Y015534D01*
X004787Y015692D02*
X005522Y015692D01*
X005987Y015851D02*
X001270Y015851D01*
X001270Y016009D02*
X006145Y016009D01*
X006304Y016168D02*
X001270Y016168D01*
X001270Y016326D02*
X007173Y016326D01*
X007015Y016485D02*
X001270Y016485D01*
X001270Y016643D02*
X006446Y016643D01*
X006275Y016802D02*
X001270Y016802D01*
X001270Y016960D02*
X006230Y016960D01*
X006153Y017119D02*
X001270Y017119D01*
X001270Y017277D02*
X005994Y017277D01*
X005836Y017436D02*
X001270Y017436D01*
X001270Y017594D02*
X005677Y017594D01*
X005519Y017753D02*
X001270Y017753D01*
X001270Y017911D02*
X005360Y017911D01*
X005202Y018070D02*
X001270Y018070D01*
X001270Y018228D02*
X003442Y018228D01*
X003678Y018228D02*
X005043Y018228D01*
X004885Y018387D02*
X003855Y018387D01*
X003890Y018545D02*
X004726Y018545D01*
X004568Y018704D02*
X003848Y018704D01*
X003770Y018862D02*
X004430Y018862D01*
X004430Y019021D02*
X003770Y019021D01*
X003770Y019179D02*
X004430Y019179D01*
X004430Y019338D02*
X003770Y019338D01*
X003770Y019496D02*
X004430Y019496D01*
X004430Y019655D02*
X003770Y019655D01*
X003770Y019813D02*
X004430Y019813D01*
X004430Y019972D02*
X003770Y019972D01*
X003770Y020130D02*
X004430Y020130D01*
X004430Y020289D02*
X003770Y020289D01*
X003770Y020447D02*
X004430Y020447D01*
X004430Y020606D02*
X003770Y020606D01*
X003770Y020764D02*
X004430Y020764D01*
X004430Y020923D02*
X003770Y020923D01*
X003712Y021081D02*
X004430Y021081D01*
X004279Y021240D02*
X004041Y021240D01*
X004156Y021398D02*
X004163Y021398D01*
X003277Y020923D02*
X002370Y020923D01*
X002370Y021081D02*
X003118Y021081D01*
X003350Y020764D02*
X002370Y020764D01*
X002226Y020606D02*
X003350Y020606D01*
X003350Y020447D02*
X002068Y020447D01*
X001909Y020289D02*
X003350Y020289D01*
X003350Y020130D02*
X001751Y020130D01*
X001592Y019972D02*
X003350Y019972D01*
X003350Y019813D02*
X001434Y019813D01*
X001275Y019655D02*
X003350Y019655D01*
X003350Y019496D02*
X001270Y019496D01*
X001270Y019338D02*
X003350Y019338D01*
X003350Y019179D02*
X001270Y019179D01*
X001270Y019021D02*
X003350Y019021D01*
X003350Y018862D02*
X001270Y018862D01*
X001270Y018704D02*
X003272Y018704D01*
X003230Y018545D02*
X001270Y018545D01*
X001270Y018387D02*
X003265Y018387D01*
X006774Y016643D02*
X006856Y016643D01*
X004274Y015692D02*
X004114Y015692D01*
X004114Y015534D02*
X004274Y015534D01*
X003601Y015692D02*
X001270Y015692D01*
X001270Y015534D02*
X003581Y015534D01*
X003581Y014900D02*
X001270Y014900D01*
X001270Y015058D02*
X004114Y015058D01*
X004114Y014900D02*
X004274Y014900D01*
X004274Y014741D02*
X004114Y014741D01*
X004114Y014583D02*
X004274Y014583D01*
X003433Y014741D02*
X001270Y014741D01*
X001270Y014583D02*
X003263Y014583D01*
X003230Y014424D02*
X001270Y014424D01*
X001270Y014266D02*
X003274Y014266D01*
X003350Y014107D02*
X001270Y014107D01*
X001270Y013949D02*
X003350Y013949D01*
X003350Y013790D02*
X001270Y013790D01*
X001270Y013632D02*
X003350Y013632D01*
X003350Y013473D02*
X001270Y013473D01*
X001270Y013315D02*
X003350Y013315D01*
X003350Y013156D02*
X001270Y013156D01*
X001270Y012998D02*
X003350Y012998D01*
X003350Y012839D02*
X001270Y012839D01*
X001270Y012681D02*
X003350Y012681D01*
X003350Y012522D02*
X001270Y012522D01*
X001270Y012364D02*
X003350Y012364D01*
X003350Y012205D02*
X001270Y012205D01*
X001270Y012047D02*
X002133Y012047D01*
X002011Y011888D02*
X001270Y011888D01*
X001270Y011730D02*
X001980Y011730D01*
X001980Y011571D02*
X001270Y011571D01*
X001270Y011413D02*
X001980Y011413D01*
X001974Y011254D02*
X001270Y011254D01*
X001270Y011096D02*
X002003Y011096D01*
X002047Y010937D02*
X001270Y010937D01*
X001270Y010779D02*
X002327Y010779D01*
X002047Y010620D02*
X001270Y010620D01*
X001270Y010462D02*
X001888Y010462D01*
X001730Y010303D02*
X001270Y010303D01*
X001270Y010145D02*
X001650Y010145D01*
X001650Y009986D02*
X001270Y009986D01*
X001270Y009828D02*
X001650Y009828D01*
X001650Y009669D02*
X001270Y009669D01*
X001270Y009511D02*
X001650Y009511D01*
X001650Y009352D02*
X001270Y009352D01*
X001270Y009194D02*
X001650Y009194D01*
X001650Y009035D02*
X001270Y009035D01*
X001270Y008877D02*
X001650Y008877D01*
X001650Y008718D02*
X001270Y008718D01*
X001270Y008560D02*
X001650Y008560D01*
X002770Y008560D02*
X004908Y008560D01*
X005066Y008718D02*
X002838Y008718D01*
X002997Y008877D02*
X005130Y008877D01*
X005181Y009035D02*
X003155Y009035D01*
X003314Y009194D02*
X005379Y009194D01*
X005434Y009312D02*
X005479Y009324D01*
X005521Y009348D01*
X005554Y009381D01*
X005578Y009422D01*
X005590Y009468D01*
X005590Y009637D01*
X004860Y009637D01*
X004860Y009637D01*
X004860Y009637D01*
X004130Y009637D01*
X004130Y009468D01*
X004142Y009422D01*
X004166Y009381D01*
X004199Y009348D01*
X004241Y009324D01*
X004286Y009312D01*
X004860Y009312D01*
X005434Y009312D01*
X005525Y009352D02*
X005795Y009352D01*
X005730Y009511D02*
X005590Y009511D01*
X005590Y009669D02*
X005730Y009669D01*
X005622Y009828D02*
X005584Y009828D01*
X004860Y009828D02*
X004860Y009828D01*
X004860Y009986D02*
X004860Y009986D01*
X004860Y010137D02*
X004860Y010137D01*
X004860Y010145D02*
X004860Y010145D01*
X004860Y010303D02*
X004860Y010303D01*
X004860Y010620D02*
X004860Y010620D01*
X004860Y010637D02*
X004860Y010637D01*
X004860Y010779D02*
X004860Y010779D01*
X004860Y010937D02*
X004860Y010937D01*
X004860Y011096D02*
X004860Y011096D01*
X004860Y011137D02*
X004860Y011137D01*
X004130Y011096D02*
X003770Y011096D01*
X003770Y011254D02*
X004130Y011254D01*
X004134Y011413D02*
X003770Y011413D01*
X003770Y011571D02*
X004130Y011571D01*
X004130Y011730D02*
X003770Y011730D01*
X003770Y011888D02*
X004162Y011888D01*
X003770Y012047D02*
X004583Y012047D01*
X004741Y012205D02*
X003770Y012205D01*
X003770Y012364D02*
X004900Y012364D01*
X005058Y012522D02*
X003770Y012522D01*
X003770Y012681D02*
X004645Y012681D01*
X004650Y012672D02*
X004683Y012638D01*
X004724Y012615D01*
X004770Y012602D01*
X005031Y012602D01*
X005031Y013059D01*
X005186Y013059D01*
X005186Y013214D01*
X005031Y013214D01*
X005031Y013059D01*
X004614Y013059D01*
X004614Y012759D01*
X004626Y012713D01*
X004650Y012672D01*
X004614Y012839D02*
X003770Y012839D01*
X003770Y012998D02*
X004614Y012998D01*
X004614Y013214D02*
X005031Y013214D01*
X005031Y013671D01*
X004770Y013671D01*
X004724Y013659D01*
X004683Y013635D01*
X004650Y013602D01*
X004626Y013561D01*
X004614Y013515D01*
X004614Y013214D01*
X004614Y013315D02*
X003770Y013315D01*
X003770Y013473D02*
X004614Y013473D01*
X004680Y013632D02*
X003770Y013632D01*
X003770Y013790D02*
X005730Y013790D01*
X005730Y013632D02*
X005538Y013632D01*
X005534Y013635D02*
X005493Y013659D01*
X005447Y013671D01*
X005186Y013671D01*
X005186Y013214D01*
X005604Y013214D01*
X005604Y013515D01*
X005592Y013561D01*
X005568Y013602D01*
X005534Y013635D01*
X005604Y013473D02*
X005716Y013473D01*
X005716Y013315D02*
X005604Y013315D01*
X005692Y013156D02*
X005186Y013156D01*
X005031Y013156D02*
X003770Y013156D01*
X005031Y012998D02*
X005186Y012998D01*
X005186Y012839D02*
X005031Y012839D01*
X005031Y012681D02*
X005186Y012681D01*
X005186Y013315D02*
X005031Y013315D01*
X005031Y013473D02*
X005186Y013473D01*
X005186Y013632D02*
X005031Y013632D01*
X003350Y012047D02*
X002587Y012047D01*
X002709Y011888D02*
X003350Y011888D01*
X003350Y011730D02*
X002740Y011730D01*
X003181Y011571D02*
X003350Y011571D01*
X003350Y011413D02*
X003273Y011413D01*
X003273Y011254D02*
X003350Y011254D01*
X003350Y011096D02*
X003273Y011096D01*
X003273Y010937D02*
X003350Y010937D01*
X003350Y010779D02*
X002977Y010779D01*
X002819Y010620D02*
X003350Y010620D01*
X003350Y010462D02*
X003188Y010462D01*
X003273Y010303D02*
X003350Y010303D01*
X003350Y010145D02*
X003273Y010145D01*
X003273Y009986D02*
X003350Y009986D01*
X003350Y009828D02*
X003273Y009828D01*
X003196Y009669D02*
X003015Y009669D01*
X003472Y009352D02*
X004195Y009352D01*
X004130Y009511D02*
X003631Y009511D01*
X003770Y009669D02*
X004130Y009669D01*
X004136Y009828D02*
X003770Y009828D01*
X003770Y009986D02*
X004130Y009986D01*
X004130Y010145D02*
X003770Y010145D01*
X003770Y010303D02*
X004130Y010303D01*
X004132Y010462D02*
X003770Y010462D01*
X003770Y010620D02*
X004130Y010620D01*
X004130Y010779D02*
X003770Y010779D01*
X003770Y010937D02*
X004138Y010937D01*
X004860Y009669D02*
X004860Y009669D01*
X004860Y009637D02*
X004860Y009312D01*
X004860Y009637D01*
X004860Y009637D01*
X004860Y009511D02*
X004860Y009511D01*
X004860Y009352D02*
X004860Y009352D01*
X005641Y009194D02*
X006930Y009194D01*
X007086Y009035D02*
X005839Y009035D01*
X005890Y008877D02*
X007245Y008877D01*
X007403Y008718D02*
X005872Y008718D01*
X005770Y008560D02*
X007480Y008560D01*
X007526Y008401D02*
X005400Y008401D01*
X005994Y008243D02*
X007697Y008243D01*
X007950Y008084D02*
X006209Y008084D01*
X006346Y007926D02*
X007950Y007926D01*
X007950Y007767D02*
X006411Y007767D01*
X006460Y007609D02*
X007950Y007609D01*
X007950Y007450D02*
X006460Y007450D01*
X006451Y007292D02*
X007950Y007292D01*
X007950Y007133D02*
X006386Y007133D01*
X006306Y006975D02*
X007950Y006975D01*
X007950Y006816D02*
X006147Y006816D01*
X005844Y006658D02*
X007950Y006658D01*
X007950Y006499D02*
X004790Y006499D01*
X004790Y006341D02*
X007950Y006341D01*
X007950Y006182D02*
X004790Y006182D01*
X004790Y006024D02*
X007950Y006024D01*
X008035Y005865D02*
X004790Y005865D01*
X004790Y005707D02*
X008193Y005707D01*
X008352Y005548D02*
X004790Y005548D01*
X004790Y005390D02*
X008510Y005390D01*
X008669Y005231D02*
X004790Y005231D01*
X004790Y005073D02*
X008827Y005073D01*
X008986Y004914D02*
X004790Y004914D01*
X004790Y004756D02*
X009144Y004756D01*
X009250Y004597D02*
X004790Y004597D01*
X004790Y004439D02*
X009165Y004439D01*
X009007Y004280D02*
X004790Y004280D01*
X004926Y004122D02*
X005394Y004122D01*
X005209Y003963D02*
X005111Y003963D01*
X005160Y003407D02*
X005194Y003325D01*
X005348Y003171D01*
X004972Y003171D01*
X005126Y003325D01*
X005160Y003407D01*
X005128Y003329D02*
X005192Y003329D01*
X005348Y003171D02*
X005551Y003087D01*
X005769Y003087D01*
X005972Y003171D01*
X006348Y003171D01*
X006551Y003087D01*
X006769Y003087D01*
X006972Y003171D01*
X007348Y003171D01*
X007551Y003087D01*
X007769Y003087D01*
X007972Y003171D01*
X008348Y003171D01*
X008551Y003087D01*
X008769Y003087D01*
X008972Y003171D01*
X009129Y003171D01*
X009050Y003249D02*
X009250Y003050D01*
X009373Y002927D01*
X011247Y002927D01*
X011449Y003129D01*
X011551Y003087D01*
X011769Y003087D01*
X011972Y003171D01*
X012848Y003171D01*
X013051Y003087D01*
X013269Y003087D01*
X013472Y003171D01*
X013848Y003171D01*
X014051Y003087D01*
X014269Y003087D01*
X014472Y003171D01*
X014551Y003171D01*
X014511Y003210D02*
X014885Y002837D01*
X000940Y002837D01*
X000940Y005660D01*
X000973Y005627D01*
X001373Y005227D01*
X001210Y005390D02*
X000940Y005390D01*
X000940Y005548D02*
X001052Y005548D01*
X001951Y005231D02*
X004330Y005231D01*
X004330Y005390D02*
X002110Y005390D01*
X002220Y005548D02*
X002246Y005548D01*
X002244Y005707D02*
X002220Y005707D01*
X002220Y005865D02*
X002244Y005865D01*
X002999Y006182D02*
X004330Y006182D01*
X004330Y006024D02*
X003067Y006024D01*
X003076Y005865D02*
X004330Y005865D01*
X004330Y005707D02*
X003076Y005707D01*
X003074Y005548D02*
X004330Y005548D01*
X004330Y006341D02*
X003781Y006341D01*
X003840Y006499D02*
X004330Y006499D01*
X004330Y006658D02*
X003817Y006658D01*
X003697Y006816D02*
X004330Y006816D01*
X004330Y006975D02*
X002440Y006975D01*
X002440Y007133D02*
X004330Y007133D01*
X004330Y007292D02*
X002818Y007292D01*
X002852Y007450D02*
X004330Y007450D01*
X004330Y007609D02*
X002852Y007609D01*
X002852Y007767D02*
X004330Y007767D01*
X004330Y007926D02*
X002852Y007926D01*
X002770Y008084D02*
X004432Y008084D01*
X004591Y008243D02*
X002770Y008243D01*
X002770Y008401D02*
X004749Y008401D01*
X004790Y007133D02*
X004832Y007133D01*
X004790Y006975D02*
X004912Y006975D01*
X004790Y006816D02*
X005070Y006816D01*
X004790Y006658D02*
X005373Y006658D01*
X003323Y006816D02*
X002983Y006816D01*
X005926Y004122D02*
X006394Y004122D01*
X006209Y003963D02*
X006111Y003963D01*
X006160Y003407D02*
X006194Y003325D01*
X006348Y003171D01*
X006192Y003329D02*
X006128Y003329D01*
X006126Y003325D02*
X006160Y003407D01*
X006126Y003325D02*
X005972Y003171D01*
X004972Y003171D02*
X004769Y003087D01*
X004551Y003087D01*
X004348Y003171D01*
X006972Y003171D02*
X007126Y003325D01*
X007160Y003407D01*
X007194Y003325D01*
X007348Y003171D01*
X007192Y003329D02*
X007128Y003329D01*
X007111Y003963D02*
X007209Y003963D01*
X007394Y004122D02*
X006926Y004122D01*
X007926Y004122D02*
X008394Y004122D01*
X008209Y003963D02*
X008111Y003963D01*
X008160Y003407D02*
X008194Y003325D01*
X008348Y003171D01*
X008192Y003329D02*
X008128Y003329D01*
X008126Y003325D02*
X008160Y003407D01*
X008126Y003325D02*
X007972Y003171D01*
X008972Y003171D02*
X009050Y003249D01*
X009288Y003012D02*
X000940Y003012D01*
X000940Y002854D02*
X014868Y002854D01*
X014709Y003012D02*
X011332Y003012D01*
X011972Y003171D02*
X012126Y003325D01*
X012210Y003527D01*
X012210Y003746D01*
X012135Y003927D01*
X012685Y003927D01*
X012610Y003746D01*
X012610Y003527D01*
X012694Y003325D01*
X012848Y003171D01*
X012692Y003329D02*
X012128Y003329D01*
X012194Y003488D02*
X012626Y003488D01*
X012610Y003646D02*
X012210Y003646D01*
X012186Y003805D02*
X012634Y003805D01*
X012363Y004347D02*
X012390Y004411D01*
X012390Y004562D01*
X012332Y004702D01*
X012240Y004794D01*
X012240Y007102D01*
X012282Y007091D01*
X012583Y007091D01*
X012583Y007508D01*
X012737Y007508D01*
X012737Y007091D01*
X013038Y007091D01*
X013084Y007103D01*
X013125Y007127D01*
X013158Y007160D01*
X013182Y007201D01*
X013194Y007247D01*
X013194Y007508D01*
X012737Y007508D01*
X012737Y007663D01*
X012583Y007663D01*
X012583Y008081D01*
X012282Y008081D01*
X012240Y008069D01*
X012240Y008193D01*
X013089Y008193D01*
X013194Y008298D01*
X013194Y008357D01*
X013536Y008357D01*
X013626Y008394D01*
X013626Y008298D01*
X013731Y008193D01*
X014589Y008193D01*
X014694Y008298D01*
X014694Y008727D01*
X014780Y008642D01*
X014780Y006582D01*
X014565Y006367D01*
X014430Y006232D01*
X014430Y004120D01*
X014269Y004187D01*
X014051Y004187D01*
X013949Y004145D01*
X013747Y004347D01*
X012363Y004347D01*
X012390Y004439D02*
X014430Y004439D01*
X014430Y004597D02*
X012376Y004597D01*
X012278Y004756D02*
X014430Y004756D01*
X014430Y004914D02*
X012240Y004914D01*
X012240Y005073D02*
X014430Y005073D01*
X014430Y005231D02*
X012240Y005231D01*
X012240Y005390D02*
X014430Y005390D01*
X014430Y005548D02*
X012240Y005548D01*
X012240Y005707D02*
X014430Y005707D01*
X014430Y005865D02*
X012240Y005865D01*
X012240Y006024D02*
X014430Y006024D01*
X014430Y006182D02*
X012240Y006182D01*
X012240Y006341D02*
X014539Y006341D01*
X014697Y006499D02*
X012240Y006499D01*
X012240Y006658D02*
X014780Y006658D01*
X014780Y006816D02*
X012240Y006816D01*
X012240Y006975D02*
X014780Y006975D01*
X014780Y007133D02*
X014632Y007133D01*
X014625Y007127D02*
X014658Y007160D01*
X014682Y007201D01*
X014694Y007247D01*
X014694Y007508D01*
X014237Y007508D01*
X014237Y007091D01*
X014538Y007091D01*
X014584Y007103D01*
X014625Y007127D01*
X014694Y007292D02*
X014780Y007292D01*
X014780Y007450D02*
X014694Y007450D01*
X014780Y007609D02*
X014237Y007609D01*
X014237Y007663D02*
X014694Y007663D01*
X014694Y007924D01*
X014682Y007970D01*
X014658Y008011D01*
X014625Y008045D01*
X014584Y008068D01*
X014538Y008081D01*
X014237Y008081D01*
X014237Y007663D01*
X014083Y007663D01*
X014083Y008081D01*
X013782Y008081D01*
X013736Y008068D01*
X013695Y008045D01*
X013662Y008011D01*
X013638Y007970D01*
X013626Y007924D01*
X013626Y007663D01*
X014083Y007663D01*
X014083Y007508D01*
X014237Y007508D01*
X014237Y007663D01*
X014237Y007767D02*
X014083Y007767D01*
X014083Y007609D02*
X012737Y007609D01*
X012737Y007663D02*
X013194Y007663D01*
X013194Y007924D01*
X013182Y007970D01*
X013158Y008011D01*
X013125Y008045D01*
X013084Y008068D01*
X013038Y008081D01*
X012737Y008081D01*
X012737Y007663D01*
X012737Y007767D02*
X012583Y007767D01*
X012583Y007926D02*
X012737Y007926D01*
X013194Y007926D02*
X013626Y007926D01*
X013626Y007767D02*
X013194Y007767D01*
X013194Y007450D02*
X013626Y007450D01*
X013626Y007508D02*
X013626Y007247D01*
X013638Y007201D01*
X013662Y007160D01*
X013695Y007127D01*
X013736Y007103D01*
X013782Y007091D01*
X014083Y007091D01*
X014083Y007508D01*
X013626Y007508D01*
X013626Y007292D02*
X013194Y007292D01*
X013132Y007133D02*
X013688Y007133D01*
X014083Y007133D02*
X014237Y007133D01*
X014237Y007292D02*
X014083Y007292D01*
X014083Y007450D02*
X014237Y007450D01*
X014694Y007767D02*
X014780Y007767D01*
X014780Y007926D02*
X014694Y007926D01*
X014780Y008084D02*
X012240Y008084D01*
X013139Y008243D02*
X013681Y008243D01*
X014083Y007926D02*
X014237Y007926D01*
X014639Y008243D02*
X014780Y008243D01*
X014780Y008401D02*
X014694Y008401D01*
X014694Y008560D02*
X014780Y008560D01*
X014703Y008718D02*
X014694Y008718D01*
X012737Y007450D02*
X012583Y007450D01*
X012583Y007292D02*
X012737Y007292D01*
X012737Y007133D02*
X012583Y007133D01*
X013813Y004280D02*
X014430Y004280D01*
X014426Y004122D02*
X014430Y004122D01*
X013660Y003407D02*
X013694Y003325D01*
X013848Y003171D01*
X013692Y003329D02*
X013628Y003329D01*
X013626Y003325D02*
X013660Y003407D01*
X013626Y003325D02*
X013472Y003171D01*
X014472Y003171D02*
X014511Y003210D01*
X017770Y004324D02*
X017770Y005050D01*
X017920Y005200D01*
X017920Y006657D01*
X018026Y006657D01*
X018050Y006667D01*
X018050Y005450D01*
X019345Y004155D01*
X019289Y004173D01*
X019203Y004187D01*
X019180Y004187D01*
X019180Y003657D01*
X019140Y003657D01*
X019140Y004187D01*
X019117Y004187D01*
X019031Y004173D01*
X018949Y004147D01*
X018872Y004107D01*
X018802Y004056D01*
X018740Y003995D01*
X018690Y003925D01*
X018660Y003867D01*
X018626Y003948D01*
X018472Y004103D01*
X018269Y004187D01*
X018051Y004187D01*
X017949Y004145D01*
X017770Y004324D01*
X017813Y004280D02*
X019220Y004280D01*
X019180Y004122D02*
X019140Y004122D01*
X019140Y003963D02*
X019180Y003963D01*
X019180Y003805D02*
X019140Y003805D01*
X018900Y004122D02*
X018426Y004122D01*
X018611Y003963D02*
X018717Y003963D01*
X019061Y004439D02*
X017770Y004439D01*
X017770Y004597D02*
X018903Y004597D01*
X018744Y004756D02*
X017770Y004756D01*
X017770Y004914D02*
X018586Y004914D01*
X018427Y005073D02*
X017793Y005073D01*
X017920Y005231D02*
X018269Y005231D01*
X018110Y005390D02*
X017920Y005390D01*
X017920Y005548D02*
X018050Y005548D01*
X018050Y005707D02*
X017920Y005707D01*
X017920Y005865D02*
X018050Y005865D01*
X018050Y006024D02*
X017920Y006024D01*
X017920Y006182D02*
X018050Y006182D01*
X018050Y006341D02*
X017920Y006341D01*
X017920Y006499D02*
X018050Y006499D01*
X018050Y006658D02*
X018028Y006658D01*
X019767Y007120D02*
X019849Y007154D01*
X019971Y007154D01*
X020076Y007259D01*
X020076Y007723D01*
X019971Y007829D01*
X019838Y007829D01*
X019736Y007871D01*
X019584Y007871D01*
X019574Y007867D01*
X018990Y007867D01*
X018990Y008262D01*
X018932Y008402D01*
X018825Y008509D01*
X018686Y008567D01*
X018534Y008567D01*
X018470Y008540D01*
X018470Y012524D01*
X018347Y012647D01*
X016447Y014547D01*
X016417Y014547D01*
X016392Y014572D01*
X016923Y015102D01*
X017134Y015102D01*
X017134Y015559D01*
X017289Y015559D01*
X017289Y015714D01*
X017706Y015714D01*
X017706Y015744D01*
X018100Y015350D01*
X018100Y015350D01*
X018223Y015227D01*
X019000Y014450D01*
X019000Y010382D01*
X018972Y010382D01*
X018866Y010276D01*
X018866Y009877D01*
X018972Y009772D01*
X019521Y009772D01*
X019626Y009877D01*
X019626Y010276D01*
X019521Y010382D01*
X019420Y010382D01*
X019420Y014624D01*
X018607Y015437D01*
X020190Y017020D01*
X020190Y016816D01*
X020296Y016711D01*
X020400Y016711D01*
X020400Y016073D01*
X020374Y016073D01*
X020268Y015968D01*
X020268Y015346D01*
X020374Y015241D01*
X020838Y015241D01*
X020943Y015346D01*
X020943Y015968D01*
X020838Y016073D01*
X020820Y016073D01*
X020820Y016711D01*
X020889Y016711D01*
X021538Y016062D01*
X021496Y016073D01*
X021314Y016073D01*
X021133Y016073D01*
X021087Y016061D01*
X021046Y016037D01*
X021013Y016004D01*
X020989Y015963D01*
X020977Y015917D01*
X020977Y015657D01*
X021314Y015657D01*
X021314Y015657D01*
X021314Y016073D01*
X021314Y015657D01*
X021314Y015657D01*
X020977Y015657D01*
X020977Y015397D01*
X020989Y015351D01*
X021013Y015310D01*
X021046Y015277D01*
X021087Y015253D01*
X021133Y015241D01*
X021314Y015241D01*
X021314Y015657D01*
X021314Y015657D01*
X021652Y015657D01*
X021652Y015917D01*
X021640Y015959D01*
X021800Y015800D01*
X021800Y014493D01*
X021730Y014424D01*
X021680Y014302D01*
X021680Y014171D01*
X021730Y014050D01*
X021800Y013980D01*
X021800Y013909D01*
X021708Y013818D01*
X021708Y013196D01*
X021814Y013091D01*
X022130Y013091D01*
X022130Y012861D01*
X022188Y012722D01*
X022295Y012615D01*
X022434Y012557D01*
X022586Y012557D01*
X022725Y012615D01*
X022832Y012722D01*
X022890Y012861D01*
X022890Y013029D01*
X022951Y013091D01*
X022986Y013091D01*
X023092Y013196D01*
X023092Y013818D01*
X023040Y013869D01*
X023040Y018419D01*
X023045Y018415D01*
X023245Y018215D01*
X023384Y018157D01*
X023455Y018157D01*
X023455Y018102D01*
X023560Y017996D01*
X023580Y017996D01*
X023580Y017384D01*
X023575Y017379D01*
X023575Y017193D01*
X023573Y017177D01*
X023575Y017165D01*
X023575Y016954D01*
X023681Y016849D01*
X023783Y016849D01*
X023785Y016848D01*
X023853Y016805D01*
X024002Y016779D01*
X024149Y016813D01*
X024200Y016849D01*
X024302Y016849D01*
X024408Y016954D01*
X024408Y017379D01*
X024340Y017447D01*
X024340Y018036D01*
X024405Y018102D01*
X024405Y018763D01*
X024393Y018775D01*
X024393Y018776D01*
X024405Y018822D01*
X024405Y019054D01*
X023978Y019054D01*
X023978Y019149D01*
X024405Y019149D01*
X024405Y019381D01*
X024393Y019427D01*
X024369Y019468D01*
X024336Y019501D01*
X024295Y019525D01*
X024249Y019537D01*
X023978Y019537D01*
X023978Y019149D01*
X023882Y019149D01*
X023640Y019149D01*
X023640Y019054D01*
X023882Y019054D01*
X023882Y019149D01*
X023882Y019537D01*
X023640Y019537D01*
X023640Y020502D01*
X023712Y020502D01*
X023712Y021009D01*
X023305Y021009D01*
X023305Y020817D01*
X023184Y020817D01*
X023090Y020778D01*
X023090Y021066D01*
X023021Y021232D01*
X022895Y021358D01*
X022730Y021427D01*
X022550Y021427D01*
X022385Y021358D01*
X022259Y021232D01*
X022190Y021066D01*
X022190Y020347D01*
X022259Y020182D01*
X022280Y020160D01*
X022280Y019611D01*
X022338Y019472D01*
X022445Y019365D01*
X022584Y019307D01*
X022736Y019307D01*
X022875Y019365D01*
X022880Y019369D01*
X022880Y018854D01*
X022875Y018859D01*
X022040Y019694D01*
X022040Y020227D01*
X022090Y020347D01*
X022090Y021066D01*
X022021Y021232D01*
X021895Y021358D01*
X021730Y021427D01*
X021550Y021427D01*
X021385Y021358D01*
X021259Y021232D01*
X021190Y021066D01*
X021190Y020347D01*
X021259Y020182D01*
X021280Y020160D01*
X021280Y019867D01*
X020967Y019867D01*
X020813Y020021D01*
X020895Y020055D01*
X021021Y020182D01*
X021090Y020347D01*
X021090Y021066D01*
X021040Y021187D01*
X021040Y021581D01*
X021077Y021581D01*
X021180Y021683D01*
X021283Y021581D01*
X021904Y021581D01*
X022010Y021686D01*
X022010Y022308D01*
X021904Y022413D01*
X021481Y022413D01*
X021125Y022768D01*
X021133Y022776D01*
X021133Y023257D01*
X021167Y023257D01*
X021167Y023087D01*
X021504Y023087D01*
X021504Y023087D01*
X021167Y023087D01*
X021167Y022827D01*
X021179Y022781D01*
X021203Y022740D01*
X021236Y022707D01*
X021277Y022683D01*
X021323Y022671D01*
X021504Y022671D01*
X021504Y023087D01*
X021504Y023087D01*
X021842Y023087D01*
X021842Y023257D01*
X022203Y023257D01*
X023263Y022197D01*
X023848Y021612D01*
X023848Y021144D01*
X024078Y021144D01*
X024088Y021122D01*
X024195Y021015D01*
X024200Y021009D01*
X023848Y021009D01*
X023848Y021144D01*
X023712Y021144D01*
X023712Y021009D01*
X023848Y021009D01*
X023848Y020502D01*
X024099Y020502D01*
X024144Y020514D01*
X024186Y020538D01*
X024219Y020571D01*
X024227Y020585D01*
X024310Y020502D01*
X025050Y020502D01*
X025130Y020582D01*
X025210Y020502D01*
X025230Y020502D01*
X025230Y019537D01*
X025220Y019537D01*
X025150Y019467D01*
X024884Y019467D01*
X024745Y019409D01*
X024638Y019302D01*
X024580Y019162D01*
X024580Y019011D01*
X024638Y018872D01*
X024745Y018765D01*
X024884Y018707D01*
X025115Y018707D01*
X025115Y018480D01*
X025542Y018480D01*
X025542Y018384D01*
X025638Y018384D01*
X025638Y017996D01*
X025732Y017996D01*
X025220Y017485D01*
X025138Y017485D01*
X025032Y017379D01*
X025032Y016954D01*
X025138Y016849D01*
X025239Y016849D01*
X025322Y016800D01*
X025472Y016780D01*
X025618Y016819D01*
X025658Y016849D01*
X025759Y016849D01*
X025865Y016954D01*
X025865Y017054D01*
X026215Y017404D01*
X026215Y017351D01*
X026344Y017039D01*
X026584Y016799D01*
X026896Y016670D01*
X027235Y016670D01*
X027547Y016799D01*
X027787Y017039D01*
X027886Y017279D01*
X027961Y017279D01*
X028055Y017227D01*
X028205Y017211D01*
X028351Y017253D01*
X028383Y017279D01*
X028482Y017279D01*
X028588Y017384D01*
X028588Y017809D01*
X028482Y017915D01*
X028424Y017915D01*
X028409Y017934D01*
X028390Y017944D01*
X028390Y018312D01*
X028332Y018452D01*
X027975Y018809D01*
X027975Y019083D01*
X027963Y019095D01*
X027963Y019096D01*
X027975Y019142D01*
X027975Y019374D01*
X027548Y019374D01*
X027548Y019469D01*
X027975Y019469D01*
X027975Y019701D01*
X027963Y019747D01*
X027939Y019788D01*
X027906Y019821D01*
X027865Y019845D01*
X027819Y019857D01*
X027548Y019857D01*
X027548Y019469D01*
X027452Y019469D01*
X027452Y019374D01*
X027025Y019374D01*
X027025Y019167D01*
X026417Y019167D01*
X026076Y019508D01*
X026073Y019516D01*
X026023Y019561D01*
X025990Y019594D01*
X025990Y020542D01*
X026055Y020607D01*
X026055Y021407D01*
X026835Y021407D01*
X026835Y021144D01*
X027242Y021144D01*
X027242Y021009D01*
X026835Y021009D01*
X026835Y020658D01*
X026847Y020612D01*
X026871Y020571D01*
X026904Y020538D01*
X026946Y020514D01*
X026991Y020502D01*
X027242Y020502D01*
X027242Y021009D01*
X027378Y021009D01*
X027378Y020502D01*
X027629Y020502D01*
X027674Y020514D01*
X027716Y020538D01*
X027749Y020571D01*
X027757Y020585D01*
X027840Y020502D01*
X028580Y020502D01*
X028660Y020582D01*
X028740Y020502D01*
X028880Y020502D01*
X028880Y019787D01*
X028815Y019722D01*
X028815Y019061D01*
X028827Y019048D01*
X028815Y019002D01*
X028815Y018770D01*
X029242Y018770D01*
X029242Y018674D01*
X029338Y018674D01*
X029338Y018286D01*
X029530Y018286D01*
X029530Y018044D01*
X029429Y017943D01*
X029409Y017932D01*
X029395Y017915D01*
X029318Y017915D01*
X029212Y017809D01*
X029212Y017384D01*
X029318Y017279D01*
X029418Y017279D01*
X029452Y017252D01*
X029597Y017211D01*
X029680Y017220D01*
X029680Y017011D01*
X029738Y016872D01*
X029845Y016765D01*
X029984Y016707D01*
X031486Y016707D01*
X031625Y016765D01*
X031732Y016872D01*
X032528Y017667D01*
X032831Y017667D01*
X032936Y017773D01*
X032936Y018501D01*
X032831Y018606D01*
X032182Y018606D01*
X032076Y018501D01*
X032076Y018291D01*
X031253Y017467D01*
X030440Y017467D01*
X030440Y017716D01*
X030489Y017667D01*
X031138Y017667D01*
X031244Y017773D01*
X031244Y017983D01*
X032525Y019265D01*
X032632Y019372D01*
X032690Y019511D01*
X032690Y020143D01*
X032750Y020159D01*
X033006Y020307D01*
X033216Y020516D01*
X033364Y020773D01*
X033441Y021059D01*
X033441Y021355D01*
X033364Y021641D01*
X033216Y021898D01*
X033006Y022107D01*
X032750Y022255D01*
X032464Y022332D01*
X032168Y022332D01*
X031881Y022255D01*
X031625Y022107D01*
X031416Y021898D01*
X031267Y021641D01*
X031191Y021355D01*
X031191Y021059D01*
X031267Y020773D01*
X031416Y020516D01*
X031625Y020307D01*
X031881Y020159D01*
X031930Y020146D01*
X031930Y019744D01*
X030792Y018606D01*
X030489Y018606D01*
X030384Y018501D01*
X030384Y017999D01*
X030382Y018002D01*
X030355Y018029D01*
X030334Y018061D01*
X030302Y018082D01*
X030290Y018094D01*
X030290Y019162D01*
X030232Y019302D01*
X029932Y019602D01*
X029825Y019709D01*
X029745Y019742D01*
X029660Y019827D01*
X029640Y019827D01*
X029640Y020962D01*
X029585Y021095D01*
X029585Y021546D01*
X029480Y021652D01*
X029332Y021652D01*
X029225Y021759D01*
X028875Y022109D01*
X028736Y022167D01*
X028584Y022167D01*
X028445Y022109D01*
X028338Y022002D01*
X028280Y021862D01*
X028280Y021737D01*
X028234Y021847D01*
X028240Y021861D01*
X028240Y021900D01*
X028247Y021937D01*
X028240Y021974D01*
X028240Y022982D01*
X029025Y022982D01*
X029130Y023087D01*
X029130Y024026D01*
X029025Y024132D01*
X027375Y024132D01*
X027270Y024026D01*
X027270Y023087D01*
X027375Y022982D01*
X027480Y022982D01*
X027480Y022167D01*
X025584Y022167D01*
X025445Y022109D01*
X025338Y022002D01*
X025280Y021862D01*
X025280Y021652D01*
X025210Y021652D01*
X025130Y021571D01*
X025050Y021652D01*
X024790Y021652D01*
X024790Y021662D01*
X024732Y021802D01*
X024097Y022437D01*
X024642Y022982D01*
X025495Y022982D01*
X025600Y023087D01*
X025600Y024026D01*
X025495Y024132D01*
X023845Y024132D01*
X023740Y024026D01*
X023740Y023154D01*
X023560Y022974D01*
X022575Y023959D01*
X022436Y024017D01*
X020384Y024017D01*
X020245Y023959D01*
X020045Y023759D01*
X020003Y023717D01*
X016284Y023717D01*
X016145Y023659D01*
X016038Y023552D01*
X015673Y023187D01*
X015551Y023187D01*
X015348Y023103D01*
X015194Y022948D01*
X015160Y022867D01*
X015126Y022948D01*
X014972Y023103D01*
X014769Y023187D01*
X014551Y023187D01*
X014348Y023103D01*
X014194Y022948D01*
X014160Y022867D01*
X014130Y022925D01*
X014080Y022995D01*
X014018Y023056D01*
X013948Y023107D01*
X013871Y023147D01*
X013789Y023173D01*
X013703Y023187D01*
X013680Y023187D01*
X013680Y022657D01*
X013640Y022657D01*
X013640Y023187D01*
X013617Y023187D01*
X013531Y023173D01*
X013449Y023147D01*
X013372Y023107D01*
X013302Y023056D01*
X013240Y022995D01*
X013190Y022925D01*
X013160Y022867D01*
X013130Y022925D01*
X013080Y022995D01*
X013018Y023056D01*
X012948Y023107D01*
X012871Y023147D01*
X012789Y023173D01*
X012703Y023187D01*
X012680Y023187D01*
X012680Y022657D01*
X012640Y022657D01*
X012640Y023187D01*
X012617Y023187D01*
X012531Y023173D01*
X012449Y023147D01*
X012372Y023107D01*
X012302Y023056D01*
X012240Y022995D01*
X012190Y022925D01*
X012160Y022867D01*
X012126Y022948D01*
X011972Y023103D01*
X011769Y023187D01*
X011551Y023187D01*
X011348Y023103D01*
X011194Y022948D01*
X011115Y022757D01*
X010440Y023432D01*
X010305Y023567D01*
X001565Y023567D01*
X001430Y023432D01*
X001430Y023137D01*
X001348Y023103D01*
X001194Y022948D01*
X001110Y022746D01*
X001110Y022527D01*
X001144Y022446D01*
X000940Y022242D01*
X000940Y024357D01*
X037380Y024357D01*
X037380Y002837D01*
X021357Y002837D01*
X021370Y002850D01*
X021770Y003249D01*
X021848Y003171D01*
X021691Y003171D01*
X021848Y003171D02*
X022051Y003087D01*
X022269Y003087D01*
X022472Y003171D01*
X024043Y003171D01*
X024065Y003162D02*
X024255Y003162D01*
X024429Y003234D01*
X024563Y003368D01*
X024635Y003542D01*
X024635Y003731D01*
X024563Y003906D01*
X024429Y004040D01*
X024301Y004093D01*
X024227Y004166D01*
X024271Y004173D01*
X024342Y004196D01*
X024409Y004230D01*
X024470Y004274D01*
X024480Y004285D01*
X024480Y003992D01*
X024615Y003857D01*
X024701Y003771D01*
X024685Y003731D01*
X024685Y003542D01*
X024757Y003368D01*
X024891Y003234D01*
X025065Y003162D01*
X025255Y003162D01*
X025429Y003234D01*
X025563Y003368D01*
X025635Y003542D01*
X025635Y003731D01*
X025563Y003906D01*
X025429Y004040D01*
X025255Y004112D01*
X025065Y004112D01*
X025026Y004096D01*
X024940Y004182D01*
X024940Y004214D01*
X025065Y004162D01*
X025255Y004162D01*
X025429Y004234D01*
X025480Y004285D01*
X025480Y003992D01*
X025615Y003857D01*
X025701Y003771D01*
X025685Y003731D01*
X025685Y003542D01*
X025757Y003368D01*
X025891Y003234D01*
X026065Y003162D01*
X026255Y003162D01*
X026429Y003234D01*
X026563Y003368D01*
X026635Y003542D01*
X026635Y003731D01*
X026563Y003906D01*
X026429Y004040D01*
X026255Y004112D01*
X026065Y004112D01*
X026026Y004096D01*
X025940Y004182D01*
X025940Y004214D01*
X026065Y004162D01*
X026255Y004162D01*
X026429Y004234D01*
X026563Y004368D01*
X026635Y004542D01*
X026635Y004731D01*
X026619Y004771D01*
X026705Y004857D01*
X026840Y004992D01*
X026840Y006285D01*
X026850Y006274D01*
X026911Y006230D01*
X026978Y006196D01*
X027049Y006173D01*
X027123Y006162D01*
X027142Y006162D01*
X027142Y006618D01*
X027178Y006618D01*
X027178Y006162D01*
X027197Y006162D01*
X027271Y006173D01*
X027342Y006196D01*
X027380Y006215D01*
X027380Y005182D01*
X027294Y005096D01*
X027255Y005112D01*
X027065Y005112D01*
X026891Y005040D01*
X026757Y004906D01*
X026685Y004731D01*
X026685Y004542D01*
X026757Y004368D01*
X026891Y004234D01*
X027065Y004162D01*
X027255Y004162D01*
X027429Y004234D01*
X027480Y004285D01*
X027480Y003992D01*
X027615Y003857D01*
X027701Y003771D01*
X027685Y003731D01*
X027685Y003542D01*
X027757Y003368D01*
X027891Y003234D01*
X028065Y003162D01*
X028255Y003162D01*
X028429Y003234D01*
X028563Y003368D01*
X028635Y003542D01*
X028635Y003731D01*
X028563Y003906D01*
X028429Y004040D01*
X028255Y004112D01*
X028065Y004112D01*
X028026Y004096D01*
X027940Y004182D01*
X027940Y004214D01*
X028065Y004162D01*
X028255Y004162D01*
X028429Y004234D01*
X028480Y004285D01*
X028480Y003992D01*
X028615Y003857D01*
X028701Y003771D01*
X028685Y003731D01*
X028685Y003542D01*
X028757Y003368D01*
X028891Y003234D01*
X029065Y003162D01*
X029255Y003162D01*
X029429Y003234D01*
X029563Y003368D01*
X029635Y003542D01*
X029635Y003731D01*
X029563Y003906D01*
X029429Y004040D01*
X029255Y004112D01*
X029065Y004112D01*
X029026Y004096D01*
X028940Y004182D01*
X028940Y004214D01*
X029065Y004162D01*
X029255Y004162D01*
X029429Y004234D01*
X029563Y004368D01*
X029635Y004542D01*
X029635Y004731D01*
X029563Y004906D01*
X029429Y005040D01*
X029370Y005064D01*
X029370Y005950D01*
X029480Y006060D01*
X029480Y004992D01*
X029615Y004857D01*
X029701Y004771D01*
X029685Y004731D01*
X029685Y004542D01*
X029757Y004368D01*
X029891Y004234D01*
X030065Y004162D01*
X030255Y004162D01*
X030429Y004234D01*
X030480Y004285D01*
X030480Y003992D01*
X030615Y003857D01*
X030701Y003771D01*
X030685Y003731D01*
X030685Y003542D01*
X030757Y003368D01*
X030891Y003234D01*
X031065Y003162D01*
X031255Y003162D01*
X031429Y003234D01*
X031563Y003368D01*
X031635Y003542D01*
X031635Y003731D01*
X031563Y003906D01*
X031429Y004040D01*
X031255Y004112D01*
X031065Y004112D01*
X031026Y004096D01*
X030940Y004182D01*
X030940Y004214D01*
X031065Y004162D01*
X031255Y004162D01*
X031429Y004234D01*
X031480Y004285D01*
X031480Y003992D01*
X031615Y003857D01*
X031701Y003771D01*
X031685Y003731D01*
X031685Y003542D01*
X031757Y003368D01*
X031891Y003234D01*
X032065Y003162D01*
X032255Y003162D01*
X032429Y003234D01*
X032563Y003368D01*
X032635Y003542D01*
X032635Y003731D01*
X032563Y003906D01*
X032429Y004040D01*
X032255Y004112D01*
X032065Y004112D01*
X032026Y004096D01*
X031940Y004182D01*
X031940Y004215D01*
X031978Y004196D01*
X032049Y004173D01*
X032123Y004162D01*
X032142Y004162D01*
X032142Y004618D01*
X032178Y004618D01*
X032178Y004162D01*
X032197Y004162D01*
X032271Y004173D01*
X032342Y004196D01*
X032409Y004230D01*
X032470Y004274D01*
X032523Y004327D01*
X032566Y004388D01*
X032600Y004454D01*
X032624Y004526D01*
X032635Y004599D01*
X032635Y004618D01*
X032178Y004618D01*
X032178Y004655D01*
X032635Y004655D01*
X032635Y004674D01*
X032624Y004748D01*
X032600Y004819D01*
X032566Y004886D01*
X032523Y004946D01*
X032470Y004999D01*
X032409Y005043D01*
X032342Y005077D01*
X032271Y005100D01*
X032252Y005103D01*
X032255Y005107D01*
X032390Y005242D01*
X032390Y006218D01*
X032429Y006234D01*
X032550Y006355D01*
X032550Y005450D01*
X032673Y005327D01*
X032940Y005060D01*
X032891Y005040D01*
X032757Y004906D01*
X032685Y004731D01*
X032685Y004542D01*
X032757Y004368D01*
X032891Y004234D01*
X033065Y004162D01*
X033255Y004162D01*
X033380Y004214D01*
X033380Y004182D01*
X033294Y004096D01*
X033255Y004112D01*
X033065Y004112D01*
X032891Y004040D01*
X032757Y003906D01*
X032685Y003731D01*
X032685Y003542D01*
X032757Y003368D01*
X032891Y003234D01*
X033065Y003162D01*
X033255Y003162D01*
X033429Y003234D01*
X033563Y003368D01*
X033635Y003542D01*
X033635Y003731D01*
X033619Y003771D01*
X033694Y003845D01*
X033687Y003833D01*
X033663Y003756D01*
X033650Y003677D01*
X033650Y003655D01*
X034142Y003655D01*
X034142Y004147D01*
X034120Y004147D01*
X034041Y004134D01*
X033964Y004109D01*
X033893Y004073D01*
X033840Y004035D01*
X033840Y004285D01*
X033891Y004234D01*
X034065Y004162D01*
X034255Y004162D01*
X034429Y004234D01*
X034563Y004368D01*
X034635Y004542D01*
X034635Y004731D01*
X034563Y004906D01*
X034429Y005040D01*
X034255Y005112D01*
X034065Y005112D01*
X034026Y005096D01*
X033890Y005232D01*
X033890Y006203D01*
X033893Y006201D01*
X033964Y006164D01*
X034041Y006139D01*
X034120Y006127D01*
X034142Y006127D01*
X034142Y006618D01*
X034178Y006618D01*
X034178Y006127D01*
X034200Y006127D01*
X034279Y006139D01*
X034356Y006164D01*
X034427Y006201D01*
X034480Y006239D01*
X034480Y004992D01*
X034701Y004771D01*
X034685Y004731D01*
X034685Y004542D01*
X034757Y004368D01*
X034891Y004234D01*
X035065Y004162D01*
X035255Y004162D01*
X035429Y004234D01*
X035563Y004368D01*
X035635Y004542D01*
X035635Y004731D01*
X035563Y004906D01*
X035429Y005040D01*
X035255Y005112D01*
X035065Y005112D01*
X035026Y005096D01*
X034940Y005182D01*
X034940Y006214D01*
X035065Y006162D01*
X035255Y006162D01*
X035429Y006234D01*
X035430Y006235D01*
X035430Y005042D01*
X035565Y004907D01*
X035685Y004787D01*
X035685Y004267D01*
X035790Y004162D01*
X036197Y004162D01*
X036183Y004147D01*
X036059Y004147D01*
X035871Y004069D01*
X035819Y004017D01*
X035452Y004017D01*
X035429Y004040D01*
X035255Y004112D01*
X035065Y004112D01*
X034891Y004040D01*
X034757Y003906D01*
X034685Y003731D01*
X034685Y003542D01*
X034757Y003368D01*
X034891Y003234D01*
X035065Y003162D01*
X035255Y003162D01*
X035429Y003234D01*
X035452Y003257D01*
X035819Y003257D01*
X035871Y003204D01*
X036059Y003127D01*
X036261Y003127D01*
X036449Y003204D01*
X036592Y003348D01*
X036670Y003535D01*
X036670Y003559D01*
X036975Y003865D01*
X037082Y003972D01*
X037140Y004111D01*
X037140Y006112D01*
X037120Y006162D01*
X037140Y006211D01*
X037140Y009062D01*
X037082Y009202D01*
X036975Y009309D01*
X036710Y009574D01*
X036710Y009736D01*
X036626Y009938D01*
X036472Y010093D01*
X036390Y010127D01*
X036472Y010161D01*
X036626Y010315D01*
X036710Y010517D01*
X036710Y010736D01*
X036626Y010938D01*
X036540Y011025D01*
X036540Y012571D01*
X037014Y012571D01*
X037120Y012676D01*
X037120Y013298D01*
X037014Y013403D01*
X036870Y013403D01*
X036870Y013551D01*
X036886Y013551D01*
X036992Y013656D01*
X036992Y014278D01*
X036886Y014383D01*
X036422Y014383D01*
X036317Y014278D01*
X036317Y013656D01*
X036422Y013551D01*
X036450Y013551D01*
X036450Y013403D01*
X036393Y013403D01*
X036290Y013300D01*
X036187Y013403D01*
X035566Y013403D01*
X035460Y013298D01*
X035460Y012676D01*
X035566Y012571D01*
X035780Y012571D01*
X035780Y011025D01*
X035694Y010938D01*
X035610Y010736D01*
X035610Y010517D01*
X035694Y010315D01*
X035848Y010161D01*
X035930Y010127D01*
X035848Y010093D01*
X035694Y009938D01*
X035610Y009736D01*
X035610Y009517D01*
X035694Y009315D01*
X035848Y009161D01*
X036051Y009077D01*
X036133Y009077D01*
X036380Y008829D01*
X036380Y008112D01*
X035790Y008112D01*
X035685Y008007D01*
X035685Y007487D01*
X035430Y007232D01*
X035430Y007039D01*
X035429Y007040D01*
X035255Y007112D01*
X035065Y007112D01*
X034940Y007060D01*
X034940Y007092D01*
X035026Y007178D01*
X035065Y007162D01*
X035255Y007162D01*
X035429Y007234D01*
X035563Y007368D01*
X035635Y007542D01*
X035635Y007731D01*
X035563Y007906D01*
X035429Y008040D01*
X035255Y008112D01*
X035065Y008112D01*
X034891Y008040D01*
X034757Y007906D01*
X034685Y007731D01*
X034685Y007542D01*
X034701Y007503D01*
X034615Y007417D01*
X034615Y007417D01*
X034480Y007282D01*
X034480Y007035D01*
X034427Y007073D01*
X034356Y007109D01*
X034279Y007134D01*
X034200Y007147D01*
X034178Y007147D01*
X034178Y006655D01*
X034142Y006655D01*
X034142Y007147D01*
X034120Y007147D01*
X034041Y007134D01*
X033964Y007109D01*
X033951Y007103D01*
X034026Y007178D01*
X034065Y007162D01*
X034255Y007162D01*
X034429Y007234D01*
X034563Y007368D01*
X034635Y007542D01*
X034635Y007731D01*
X034563Y007906D01*
X034429Y008040D01*
X034255Y008112D01*
X034065Y008112D01*
X033891Y008040D01*
X033757Y007906D01*
X033685Y007731D01*
X033685Y007542D01*
X033701Y007503D01*
X033430Y007232D01*
X033430Y007039D01*
X033429Y007040D01*
X033255Y007112D01*
X033065Y007112D01*
X032970Y007073D01*
X032970Y007150D01*
X033006Y007186D01*
X033065Y007162D01*
X033255Y007162D01*
X033429Y007234D01*
X033563Y007368D01*
X033635Y007542D01*
X033635Y007731D01*
X033563Y007906D01*
X033429Y008040D01*
X033255Y008112D01*
X033065Y008112D01*
X032891Y008040D01*
X032757Y007906D01*
X032685Y007731D01*
X032685Y007542D01*
X032709Y007483D01*
X032550Y007324D01*
X032550Y006919D01*
X032429Y007040D01*
X032255Y007112D01*
X032065Y007112D01*
X031891Y007040D01*
X031840Y006989D01*
X031840Y007282D01*
X031619Y007503D01*
X031635Y007542D01*
X031635Y007731D01*
X031563Y007906D01*
X031429Y008040D01*
X031255Y008112D01*
X031065Y008112D01*
X030891Y008040D01*
X030757Y007906D01*
X030685Y007731D01*
X030685Y007542D01*
X030757Y007368D01*
X030891Y007234D01*
X031065Y007162D01*
X031255Y007162D01*
X031294Y007178D01*
X031380Y007092D01*
X031380Y007060D01*
X031255Y007112D01*
X031065Y007112D01*
X030891Y007040D01*
X030757Y006906D01*
X030685Y006731D01*
X030685Y006542D01*
X030701Y006503D01*
X030480Y006282D01*
X030480Y004989D01*
X030429Y005040D01*
X030255Y005112D01*
X030065Y005112D01*
X030026Y005096D01*
X029940Y005182D01*
X029940Y006215D01*
X029978Y006196D01*
X030049Y006173D01*
X030123Y006162D01*
X030142Y006162D01*
X030142Y006618D01*
X030178Y006618D01*
X030178Y006162D01*
X030197Y006162D01*
X030271Y006173D01*
X030342Y006196D01*
X030409Y006230D01*
X030470Y006274D01*
X030523Y006327D01*
X030566Y006388D01*
X030600Y006454D01*
X030624Y006526D01*
X030635Y006599D01*
X030635Y006618D01*
X030178Y006618D01*
X030178Y006655D01*
X030142Y006655D01*
X030142Y007112D01*
X030123Y007112D01*
X030049Y007100D01*
X029978Y007077D01*
X029940Y007058D01*
X029940Y007092D01*
X030026Y007178D01*
X030065Y007162D01*
X030255Y007162D01*
X030429Y007234D01*
X030563Y007368D01*
X030635Y007542D01*
X030635Y007731D01*
X030563Y007906D01*
X030429Y008040D01*
X030255Y008112D01*
X030065Y008112D01*
X029891Y008040D01*
X029757Y007906D01*
X029685Y007731D01*
X029685Y007542D01*
X029701Y007503D01*
X029646Y007448D01*
X029611Y007483D01*
X029635Y007542D01*
X029635Y007731D01*
X029563Y007906D01*
X029429Y008040D01*
X029255Y008112D01*
X029065Y008112D01*
X028891Y008040D01*
X028757Y007906D01*
X028685Y007731D01*
X028685Y007542D01*
X028757Y007368D01*
X028891Y007234D01*
X029065Y007162D01*
X029255Y007162D01*
X029314Y007186D01*
X029350Y007150D01*
X029350Y007073D01*
X029255Y007112D01*
X029065Y007112D01*
X028891Y007040D01*
X028840Y006989D01*
X028840Y007282D01*
X028619Y007503D01*
X028635Y007542D01*
X028635Y007731D01*
X028563Y007906D01*
X028429Y008040D01*
X028255Y008112D01*
X028065Y008112D01*
X027891Y008040D01*
X027757Y007906D01*
X027685Y007731D01*
X027685Y007542D01*
X027757Y007368D01*
X027891Y007234D01*
X028065Y007162D01*
X028255Y007162D01*
X028294Y007178D01*
X028380Y007092D01*
X028380Y007060D01*
X028255Y007112D01*
X028065Y007112D01*
X027891Y007040D01*
X027840Y006989D01*
X027840Y007282D01*
X027619Y007503D01*
X027635Y007542D01*
X027635Y007731D01*
X027563Y007906D01*
X027429Y008040D01*
X027255Y008112D01*
X027065Y008112D01*
X026891Y008040D01*
X026757Y007906D01*
X026685Y007731D01*
X026685Y007542D01*
X026757Y007368D01*
X026891Y007234D01*
X027065Y007162D01*
X027255Y007162D01*
X027294Y007178D01*
X027380Y007092D01*
X027380Y007058D01*
X027342Y007077D01*
X027271Y007100D01*
X027197Y007112D01*
X027178Y007112D01*
X027178Y006655D01*
X027142Y006655D01*
X027142Y007112D01*
X027123Y007112D01*
X027049Y007100D01*
X026978Y007077D01*
X026911Y007043D01*
X026850Y006999D01*
X026840Y006989D01*
X026840Y007282D01*
X026619Y007503D01*
X026635Y007542D01*
X026635Y007731D01*
X026563Y007906D01*
X026429Y008040D01*
X026255Y008112D01*
X026065Y008112D01*
X025891Y008040D01*
X025757Y007906D01*
X025685Y007731D01*
X025685Y007542D01*
X025757Y007368D01*
X025891Y007234D01*
X026065Y007162D01*
X026255Y007162D01*
X026294Y007178D01*
X026380Y007092D01*
X026380Y007060D01*
X026255Y007112D01*
X026065Y007112D01*
X025891Y007040D01*
X025840Y006989D01*
X025840Y007282D01*
X025619Y007503D01*
X025635Y007542D01*
X025635Y007731D01*
X025563Y007906D01*
X025429Y008040D01*
X025255Y008112D01*
X025065Y008112D01*
X024891Y008040D01*
X024757Y007906D01*
X024685Y007731D01*
X024685Y007542D01*
X024757Y007368D01*
X024891Y007234D01*
X025065Y007162D01*
X025255Y007162D01*
X025294Y007178D01*
X025380Y007092D01*
X025380Y007060D01*
X025255Y007112D01*
X025065Y007112D01*
X024891Y007040D01*
X024757Y006906D01*
X024685Y006731D01*
X024685Y006542D01*
X024701Y006503D01*
X024480Y006282D01*
X024480Y004989D01*
X024470Y004999D01*
X024409Y005043D01*
X024342Y005077D01*
X024271Y005100D01*
X024197Y005112D01*
X024178Y005112D01*
X024178Y004655D01*
X024142Y004655D01*
X024142Y005112D01*
X024123Y005112D01*
X024049Y005100D01*
X023978Y005077D01*
X023911Y005043D01*
X023870Y005014D01*
X023870Y006050D01*
X024006Y006186D01*
X024065Y006162D01*
X024255Y006162D01*
X024429Y006234D01*
X024563Y006368D01*
X024635Y006542D01*
X024635Y006731D01*
X024563Y006906D01*
X024429Y007040D01*
X024255Y007112D01*
X024065Y007112D01*
X023891Y007040D01*
X023757Y006906D01*
X023685Y006731D01*
X023685Y006542D01*
X023709Y006483D01*
X023450Y006224D01*
X023450Y004350D01*
X023573Y004227D01*
X023825Y003974D01*
X023757Y003906D01*
X023685Y003731D01*
X023685Y003542D01*
X023757Y003368D01*
X023891Y003234D01*
X024065Y003162D01*
X024277Y003171D02*
X025043Y003171D01*
X025277Y003171D02*
X026043Y003171D01*
X026277Y003171D02*
X027064Y003171D01*
X027049Y003173D02*
X027123Y003162D01*
X027142Y003162D01*
X027142Y003618D01*
X027178Y003618D01*
X027178Y003162D01*
X027197Y003162D01*
X027271Y003173D01*
X027342Y003196D01*
X027409Y003230D01*
X027470Y003274D01*
X027523Y003327D01*
X027566Y003388D01*
X027600Y003454D01*
X027624Y003526D01*
X027635Y003599D01*
X027635Y003618D01*
X027178Y003618D01*
X027178Y003655D01*
X027142Y003655D01*
X027142Y004112D01*
X027123Y004112D01*
X027049Y004100D01*
X026978Y004077D01*
X026911Y004043D01*
X026850Y003999D01*
X026797Y003946D01*
X026754Y003886D01*
X026720Y003819D01*
X026696Y003748D01*
X026685Y003674D01*
X026685Y003655D01*
X027142Y003655D01*
X027142Y003618D01*
X026685Y003618D01*
X026685Y003599D01*
X026696Y003526D01*
X026720Y003454D01*
X026754Y003388D01*
X026797Y003327D01*
X026850Y003274D01*
X026911Y003230D01*
X026978Y003196D01*
X027049Y003173D01*
X027142Y003171D02*
X027178Y003171D01*
X027256Y003171D02*
X028043Y003171D01*
X028277Y003171D02*
X029043Y003171D01*
X029277Y003171D02*
X030064Y003171D01*
X030049Y003173D02*
X030123Y003162D01*
X030142Y003162D01*
X030142Y003618D01*
X030178Y003618D01*
X030178Y003162D01*
X030197Y003162D01*
X030271Y003173D01*
X030342Y003196D01*
X030409Y003230D01*
X030470Y003274D01*
X030523Y003327D01*
X030566Y003388D01*
X030600Y003454D01*
X030624Y003526D01*
X030635Y003599D01*
X030635Y003618D01*
X030178Y003618D01*
X030178Y003655D01*
X030142Y003655D01*
X030142Y004112D01*
X030123Y004112D01*
X030049Y004100D01*
X029978Y004077D01*
X029911Y004043D01*
X029850Y003999D01*
X029797Y003946D01*
X029754Y003886D01*
X029720Y003819D01*
X029696Y003748D01*
X029685Y003674D01*
X029685Y003655D01*
X030142Y003655D01*
X030142Y003618D01*
X029685Y003618D01*
X029685Y003599D01*
X029696Y003526D01*
X029720Y003454D01*
X029754Y003388D01*
X029797Y003327D01*
X029850Y003274D01*
X029911Y003230D01*
X029978Y003196D01*
X030049Y003173D01*
X030142Y003171D02*
X030178Y003171D01*
X030256Y003171D02*
X031043Y003171D01*
X031277Y003171D02*
X032043Y003171D01*
X032277Y003171D02*
X033043Y003171D01*
X033277Y003171D02*
X033951Y003171D01*
X033964Y003164D02*
X034041Y003139D01*
X034120Y003127D01*
X034142Y003127D01*
X034142Y003618D01*
X034178Y003618D01*
X034178Y003127D01*
X034200Y003127D01*
X034279Y003139D01*
X034356Y003164D01*
X034427Y003201D01*
X034492Y003248D01*
X034549Y003305D01*
X034596Y003370D01*
X034633Y003441D01*
X034657Y003517D01*
X034670Y003597D01*
X034670Y003618D01*
X034178Y003618D01*
X034178Y003655D01*
X034142Y003655D01*
X034142Y003618D01*
X033650Y003618D01*
X033650Y003597D01*
X033663Y003517D01*
X033687Y003441D01*
X033724Y003370D01*
X033771Y003305D01*
X033828Y003248D01*
X033893Y003201D01*
X033964Y003164D01*
X034142Y003171D02*
X034178Y003171D01*
X034178Y003329D02*
X034142Y003329D01*
X034142Y003488D02*
X034178Y003488D01*
X034178Y003646D02*
X034685Y003646D01*
X034670Y003655D02*
X034670Y003677D01*
X034657Y003756D01*
X034633Y003833D01*
X034596Y003904D01*
X034549Y003969D01*
X034492Y004026D01*
X034427Y004073D01*
X034356Y004109D01*
X034279Y004134D01*
X034200Y004147D01*
X034178Y004147D01*
X034178Y003655D01*
X034670Y003655D01*
X034642Y003805D02*
X034715Y003805D01*
X034814Y003963D02*
X034553Y003963D01*
X034318Y004122D02*
X035998Y004122D01*
X035685Y004280D02*
X035476Y004280D01*
X035592Y004439D02*
X035685Y004439D01*
X035685Y004597D02*
X035635Y004597D01*
X035625Y004756D02*
X035685Y004756D01*
X035557Y004914D02*
X035555Y004914D01*
X035430Y005073D02*
X035349Y005073D01*
X035430Y005231D02*
X034940Y005231D01*
X034940Y005390D02*
X035430Y005390D01*
X035430Y005548D02*
X034940Y005548D01*
X034940Y005707D02*
X035430Y005707D01*
X035430Y005865D02*
X034940Y005865D01*
X034940Y006024D02*
X035430Y006024D01*
X035430Y006182D02*
X035305Y006182D01*
X035015Y006182D02*
X034940Y006182D01*
X034480Y006182D02*
X034391Y006182D01*
X034480Y006024D02*
X033890Y006024D01*
X033890Y006182D02*
X033929Y006182D01*
X034142Y006182D02*
X034178Y006182D01*
X034178Y006341D02*
X034142Y006341D01*
X034142Y006499D02*
X034178Y006499D01*
X034178Y006658D02*
X034142Y006658D01*
X034142Y006816D02*
X034178Y006816D01*
X034178Y006975D02*
X034142Y006975D01*
X034142Y007133D02*
X034178Y007133D01*
X034282Y007133D02*
X034480Y007133D01*
X034487Y007292D02*
X034490Y007292D01*
X034597Y007450D02*
X034648Y007450D01*
X034635Y007609D02*
X034685Y007609D01*
X034700Y007767D02*
X034620Y007767D01*
X034543Y007926D02*
X034777Y007926D01*
X034998Y008084D02*
X034322Y008084D01*
X033998Y008084D02*
X033322Y008084D01*
X033543Y007926D02*
X033777Y007926D01*
X033700Y007767D02*
X033620Y007767D01*
X033635Y007609D02*
X033685Y007609D01*
X033648Y007450D02*
X033597Y007450D01*
X033490Y007292D02*
X033487Y007292D01*
X033430Y007133D02*
X032970Y007133D01*
X032550Y007133D02*
X031840Y007133D01*
X031911Y007230D02*
X031850Y007274D01*
X031797Y007327D01*
X031754Y007388D01*
X031720Y007454D01*
X031696Y007526D01*
X031685Y007599D01*
X031685Y007618D01*
X032142Y007618D01*
X032178Y007618D01*
X032178Y007162D01*
X032197Y007162D01*
X032271Y007173D01*
X032342Y007196D01*
X032409Y007230D01*
X032470Y007274D01*
X032523Y007327D01*
X032566Y007388D01*
X032600Y007454D01*
X032624Y007526D01*
X032635Y007599D01*
X032635Y007618D01*
X032178Y007618D01*
X032178Y007655D01*
X032142Y007655D01*
X032142Y008112D01*
X032123Y008112D01*
X032049Y008100D01*
X031978Y008077D01*
X031911Y008043D01*
X031850Y007999D01*
X031797Y007946D01*
X031754Y007886D01*
X031720Y007819D01*
X031696Y007748D01*
X031685Y007674D01*
X031685Y007655D01*
X032142Y007655D01*
X032142Y007618D01*
X032142Y007162D01*
X032123Y007162D01*
X032049Y007173D01*
X031978Y007196D01*
X031911Y007230D01*
X031833Y007292D02*
X031830Y007292D01*
X031722Y007450D02*
X031672Y007450D01*
X031685Y007609D02*
X031635Y007609D01*
X031620Y007767D02*
X031703Y007767D01*
X031783Y007926D02*
X031543Y007926D01*
X031322Y008084D02*
X031999Y008084D01*
X032142Y008084D02*
X032178Y008084D01*
X032178Y008112D02*
X032197Y008112D01*
X032271Y008100D01*
X032342Y008077D01*
X032409Y008043D01*
X032470Y007999D01*
X032523Y007946D01*
X032566Y007886D01*
X032600Y007819D01*
X032624Y007748D01*
X032635Y007674D01*
X032635Y007655D01*
X032178Y007655D01*
X032178Y008112D01*
X032321Y008084D02*
X032998Y008084D01*
X032777Y007926D02*
X032537Y007926D01*
X032617Y007767D02*
X032700Y007767D01*
X032685Y007609D02*
X032635Y007609D01*
X032598Y007450D02*
X032677Y007450D01*
X032550Y007292D02*
X032487Y007292D01*
X032178Y007292D02*
X032142Y007292D01*
X032142Y007450D02*
X032178Y007450D01*
X032178Y007609D02*
X032142Y007609D01*
X032142Y007767D02*
X032178Y007767D01*
X032178Y007926D02*
X032142Y007926D01*
X031338Y007133D02*
X029982Y007133D01*
X030178Y007112D02*
X030178Y006655D01*
X030635Y006655D01*
X030635Y006674D01*
X030624Y006748D01*
X030600Y006819D01*
X030566Y006886D01*
X030523Y006946D01*
X030470Y006999D01*
X030409Y007043D01*
X030342Y007077D01*
X030271Y007100D01*
X030197Y007112D01*
X030178Y007112D01*
X030178Y006975D02*
X030142Y006975D01*
X030142Y006816D02*
X030178Y006816D01*
X030178Y006658D02*
X030142Y006658D01*
X030142Y006499D02*
X030178Y006499D01*
X030178Y006341D02*
X030142Y006341D01*
X030142Y006182D02*
X030178Y006182D01*
X030299Y006182D02*
X030480Y006182D01*
X030480Y006024D02*
X029940Y006024D01*
X029940Y006182D02*
X030021Y006182D01*
X029940Y005865D02*
X030480Y005865D01*
X030480Y005707D02*
X029940Y005707D01*
X029940Y005548D02*
X030480Y005548D01*
X030480Y005390D02*
X029940Y005390D01*
X029940Y005231D02*
X030480Y005231D01*
X030480Y005073D02*
X030349Y005073D01*
X029695Y004756D02*
X029625Y004756D01*
X029635Y004597D02*
X029685Y004597D01*
X029728Y004439D02*
X029592Y004439D01*
X029476Y004280D02*
X029844Y004280D01*
X029814Y003963D02*
X029506Y003963D01*
X029605Y003805D02*
X029715Y003805D01*
X029635Y003646D02*
X030142Y003646D01*
X030178Y003646D02*
X030685Y003646D01*
X030635Y003655D02*
X030635Y003674D01*
X030624Y003748D01*
X030600Y003819D01*
X030566Y003886D01*
X030523Y003946D01*
X030470Y003999D01*
X030409Y004043D01*
X030342Y004077D01*
X030271Y004100D01*
X030197Y004112D01*
X030178Y004112D01*
X030178Y003655D01*
X030635Y003655D01*
X030605Y003805D02*
X030667Y003805D01*
X030508Y003963D02*
X030506Y003963D01*
X030480Y004122D02*
X029000Y004122D01*
X028667Y003805D02*
X028605Y003805D01*
X028635Y003646D02*
X028685Y003646D01*
X028707Y003488D02*
X028613Y003488D01*
X028525Y003329D02*
X028795Y003329D01*
X028508Y003963D02*
X028506Y003963D01*
X028480Y004122D02*
X028000Y004122D01*
X027667Y003805D02*
X027605Y003805D01*
X027600Y003819D02*
X027566Y003886D01*
X027523Y003946D01*
X027470Y003999D01*
X027409Y004043D01*
X027342Y004077D01*
X027271Y004100D01*
X027197Y004112D01*
X027178Y004112D01*
X027178Y003655D01*
X027635Y003655D01*
X027635Y003674D01*
X027624Y003748D01*
X027600Y003819D01*
X027508Y003963D02*
X027506Y003963D01*
X027480Y004122D02*
X026000Y004122D01*
X025667Y003805D02*
X025605Y003805D01*
X025635Y003646D02*
X025685Y003646D01*
X025707Y003488D02*
X025613Y003488D01*
X025525Y003329D02*
X025795Y003329D01*
X025508Y003963D02*
X025506Y003963D01*
X025480Y004122D02*
X025000Y004122D01*
X024667Y003805D02*
X024605Y003805D01*
X024635Y003646D02*
X024685Y003646D01*
X024707Y003488D02*
X024613Y003488D01*
X024525Y003329D02*
X024795Y003329D01*
X024508Y003963D02*
X024506Y003963D01*
X024480Y004122D02*
X024272Y004122D01*
X024476Y004280D02*
X024480Y004280D01*
X023814Y003963D02*
X022611Y003963D01*
X022626Y003948D02*
X022472Y004103D01*
X022370Y004145D01*
X022370Y004324D01*
X020076Y006618D01*
X020076Y007015D01*
X019971Y007120D01*
X019767Y007120D01*
X019800Y007133D02*
X022900Y007133D01*
X022900Y006975D02*
X020076Y006975D01*
X020076Y006816D02*
X022900Y006816D01*
X022900Y006658D02*
X020076Y006658D01*
X020194Y006499D02*
X022900Y006499D01*
X022900Y006341D02*
X020353Y006341D01*
X020511Y006182D02*
X022900Y006182D01*
X022900Y006024D02*
X020670Y006024D01*
X020828Y005865D02*
X022900Y005865D01*
X022900Y005707D02*
X020987Y005707D01*
X021145Y005548D02*
X022900Y005548D01*
X022900Y005390D02*
X021304Y005390D01*
X021462Y005231D02*
X022813Y005231D01*
X022830Y005274D02*
X022780Y005152D01*
X022780Y005021D01*
X022830Y004900D01*
X022923Y004807D01*
X023044Y004757D01*
X023176Y004757D01*
X023297Y004807D01*
X023390Y004900D01*
X023440Y005021D01*
X023440Y005152D01*
X023390Y005274D01*
X023320Y005344D01*
X023320Y007574D01*
X023197Y007697D01*
X021316Y009578D01*
X021316Y009935D01*
X021211Y010040D01*
X020589Y010040D01*
X020496Y009947D01*
X020369Y009947D01*
X020308Y010008D01*
X019759Y010008D01*
X019654Y009902D01*
X019654Y009503D01*
X019759Y009398D01*
X020308Y009398D01*
X020414Y009503D01*
X020414Y009527D01*
X020484Y009527D01*
X020484Y009470D01*
X020589Y009365D01*
X020935Y009365D01*
X022900Y007400D01*
X022900Y005344D01*
X022830Y005274D01*
X022780Y005073D02*
X021621Y005073D01*
X021779Y004914D02*
X022824Y004914D01*
X023450Y004597D02*
X022096Y004597D01*
X021938Y004756D02*
X023450Y004756D01*
X023450Y004914D02*
X023396Y004914D01*
X023440Y005073D02*
X023450Y005073D01*
X023450Y005231D02*
X023407Y005231D01*
X023450Y005390D02*
X023320Y005390D01*
X023320Y005548D02*
X023450Y005548D01*
X023450Y005707D02*
X023320Y005707D01*
X023320Y005865D02*
X023450Y005865D01*
X023450Y006024D02*
X023320Y006024D01*
X023320Y006182D02*
X023450Y006182D01*
X023567Y006341D02*
X023320Y006341D01*
X023320Y006499D02*
X023703Y006499D01*
X023685Y006658D02*
X023320Y006658D01*
X023320Y006816D02*
X023720Y006816D01*
X023826Y006975D02*
X023320Y006975D01*
X023320Y007133D02*
X025338Y007133D01*
X025672Y007450D02*
X025723Y007450D01*
X025685Y007609D02*
X025635Y007609D01*
X025620Y007767D02*
X025700Y007767D01*
X025777Y007926D02*
X025543Y007926D01*
X025322Y008084D02*
X025998Y008084D01*
X026322Y008084D02*
X026998Y008084D01*
X026777Y007926D02*
X026543Y007926D01*
X026620Y007767D02*
X026700Y007767D01*
X026685Y007609D02*
X026635Y007609D01*
X026672Y007450D02*
X026723Y007450D01*
X026830Y007292D02*
X026833Y007292D01*
X026840Y007133D02*
X027338Y007133D01*
X027178Y006975D02*
X027142Y006975D01*
X027142Y006816D02*
X027178Y006816D01*
X027178Y006658D02*
X027142Y006658D01*
X027142Y006499D02*
X027178Y006499D01*
X027178Y006341D02*
X027142Y006341D01*
X027142Y006182D02*
X027178Y006182D01*
X027299Y006182D02*
X027380Y006182D01*
X027380Y006024D02*
X026840Y006024D01*
X026840Y006182D02*
X027021Y006182D01*
X026840Y005865D02*
X027380Y005865D01*
X027380Y005707D02*
X026840Y005707D01*
X026840Y005548D02*
X027380Y005548D01*
X027380Y005390D02*
X026840Y005390D01*
X026840Y005231D02*
X027380Y005231D01*
X026971Y005073D02*
X026840Y005073D01*
X026765Y004914D02*
X026763Y004914D01*
X026695Y004756D02*
X026625Y004756D01*
X026635Y004597D02*
X026685Y004597D01*
X026728Y004439D02*
X026592Y004439D01*
X026476Y004280D02*
X026844Y004280D01*
X026814Y003963D02*
X026506Y003963D01*
X026605Y003805D02*
X026715Y003805D01*
X026635Y003646D02*
X027142Y003646D01*
X027178Y003646D02*
X027685Y003646D01*
X027707Y003488D02*
X027611Y003488D01*
X027524Y003329D02*
X027795Y003329D01*
X027178Y003329D02*
X027142Y003329D01*
X027142Y003488D02*
X027178Y003488D01*
X026796Y003329D02*
X026525Y003329D01*
X026613Y003488D02*
X026709Y003488D01*
X027142Y003805D02*
X027178Y003805D01*
X027178Y003963D02*
X027142Y003963D01*
X027476Y004280D02*
X027480Y004280D01*
X028476Y004280D02*
X028480Y004280D01*
X029555Y004914D02*
X029557Y004914D01*
X029480Y005073D02*
X029370Y005073D01*
X029370Y005231D02*
X029480Y005231D01*
X029480Y005390D02*
X029370Y005390D01*
X029370Y005548D02*
X029480Y005548D01*
X029480Y005707D02*
X029370Y005707D01*
X029370Y005865D02*
X029480Y005865D01*
X029480Y006024D02*
X029444Y006024D01*
X030532Y006341D02*
X030539Y006341D01*
X030615Y006499D02*
X030697Y006499D01*
X030685Y006658D02*
X030635Y006658D01*
X030601Y006816D02*
X030720Y006816D01*
X030826Y006975D02*
X030494Y006975D01*
X030487Y007292D02*
X030833Y007292D01*
X030723Y007450D02*
X030597Y007450D01*
X030635Y007609D02*
X030685Y007609D01*
X030700Y007767D02*
X030620Y007767D01*
X030543Y007926D02*
X030777Y007926D01*
X030998Y008084D02*
X030322Y008084D01*
X029998Y008084D02*
X029322Y008084D01*
X029543Y007926D02*
X029777Y007926D01*
X029700Y007767D02*
X029620Y007767D01*
X029635Y007609D02*
X029685Y007609D01*
X029648Y007450D02*
X029643Y007450D01*
X029350Y007133D02*
X028840Y007133D01*
X028830Y007292D02*
X028833Y007292D01*
X028723Y007450D02*
X028672Y007450D01*
X028685Y007609D02*
X028635Y007609D01*
X028620Y007767D02*
X028700Y007767D01*
X028777Y007926D02*
X028543Y007926D01*
X028322Y008084D02*
X028998Y008084D01*
X027998Y008084D02*
X027322Y008084D01*
X027543Y007926D02*
X027777Y007926D01*
X027700Y007767D02*
X027620Y007767D01*
X027635Y007609D02*
X027685Y007609D01*
X027672Y007450D02*
X027723Y007450D01*
X027830Y007292D02*
X027833Y007292D01*
X027840Y007133D02*
X028338Y007133D01*
X026338Y007133D02*
X025840Y007133D01*
X025830Y007292D02*
X025833Y007292D01*
X024833Y007292D02*
X024487Y007292D01*
X024470Y007274D02*
X024523Y007327D01*
X024566Y007388D01*
X024600Y007454D01*
X024624Y007526D01*
X024635Y007599D01*
X024635Y007618D01*
X024178Y007618D01*
X024178Y007162D01*
X024197Y007162D01*
X024271Y007173D01*
X024342Y007196D01*
X024409Y007230D01*
X024470Y007274D01*
X024598Y007450D02*
X024723Y007450D01*
X024685Y007609D02*
X024635Y007609D01*
X024635Y007655D02*
X024635Y007674D01*
X024624Y007748D01*
X024600Y007819D01*
X024566Y007886D01*
X024523Y007946D01*
X024470Y007999D01*
X024409Y008043D01*
X024342Y008077D01*
X024271Y008100D01*
X024197Y008112D01*
X024178Y008112D01*
X024178Y007655D01*
X024142Y007655D01*
X024142Y008112D01*
X024123Y008112D01*
X024049Y008100D01*
X023978Y008077D01*
X023911Y008043D01*
X023850Y007999D01*
X023797Y007946D01*
X023754Y007886D01*
X023720Y007819D01*
X023696Y007748D01*
X023685Y007674D01*
X023685Y007655D01*
X024142Y007655D01*
X024142Y007618D01*
X024178Y007618D01*
X024178Y007655D01*
X024635Y007655D01*
X024617Y007767D02*
X024700Y007767D01*
X024777Y007926D02*
X024537Y007926D01*
X024321Y008084D02*
X024998Y008084D01*
X024178Y008084D02*
X024142Y008084D01*
X023999Y008084D02*
X022809Y008084D01*
X022651Y008243D02*
X036380Y008243D01*
X036380Y008401D02*
X022492Y008401D01*
X022334Y008560D02*
X036380Y008560D01*
X036380Y008718D02*
X022175Y008718D01*
X022017Y008877D02*
X036333Y008877D01*
X036174Y009035D02*
X021858Y009035D01*
X021700Y009194D02*
X035815Y009194D01*
X035678Y009352D02*
X021541Y009352D01*
X021383Y009511D02*
X031996Y009511D01*
X031950Y009557D02*
X032055Y009452D01*
X033705Y009452D01*
X033810Y009557D01*
X033810Y010496D01*
X033705Y010602D01*
X033290Y010602D01*
X033290Y011982D01*
X033323Y012015D01*
X033331Y012001D01*
X033364Y011968D01*
X033406Y011944D01*
X033451Y011932D01*
X033702Y011932D01*
X033702Y012439D01*
X033838Y012439D01*
X033838Y012574D01*
X034245Y012574D01*
X034245Y012926D01*
X034233Y012971D01*
X034209Y013012D01*
X034176Y013046D01*
X034134Y013070D01*
X034089Y013082D01*
X033838Y013082D01*
X033838Y012574D01*
X033702Y012574D01*
X033702Y013021D01*
X033740Y013111D01*
X033740Y013262D01*
X033682Y013402D01*
X033575Y013509D01*
X033540Y013524D01*
X033540Y013679D01*
X033573Y013713D01*
X033623Y013759D01*
X033627Y013766D01*
X033632Y013772D01*
X033658Y013835D01*
X033660Y013839D01*
X033699Y013839D01*
X033805Y013944D01*
X033805Y014044D01*
X033875Y014115D01*
X033982Y014222D01*
X034040Y014361D01*
X034040Y015116D01*
X034070Y015116D01*
X034175Y015222D01*
X034175Y015883D01*
X034163Y015895D01*
X034163Y015896D01*
X034175Y015942D01*
X034175Y016174D01*
X033748Y016174D01*
X033748Y016269D01*
X034175Y016269D01*
X034175Y016501D01*
X034163Y016547D01*
X034139Y016588D01*
X034106Y016621D01*
X034065Y016645D01*
X034019Y016657D01*
X033748Y016657D01*
X033748Y016269D01*
X033652Y016269D01*
X033652Y016174D01*
X033225Y016174D01*
X033225Y015942D01*
X033237Y015896D01*
X033237Y015895D01*
X033225Y015883D01*
X033225Y015222D01*
X033280Y015166D01*
X033280Y014594D01*
X033173Y014487D01*
X033153Y014475D01*
X033078Y014475D01*
X032972Y014369D01*
X032972Y014186D01*
X032838Y014052D01*
X032780Y013912D01*
X032780Y013082D01*
X032500Y013082D01*
X032420Y013001D01*
X032390Y013031D01*
X032390Y013919D01*
X032393Y013926D01*
X032390Y013994D01*
X032390Y014062D01*
X032387Y014070D01*
X032387Y014077D01*
X032358Y014139D01*
X032348Y014164D01*
X032348Y014369D01*
X032242Y014475D01*
X032240Y014475D01*
X032240Y015146D01*
X032335Y015242D01*
X032335Y015903D01*
X032323Y015915D01*
X032323Y015916D01*
X032335Y015962D01*
X032335Y016194D01*
X031908Y016194D01*
X031908Y016289D01*
X032335Y016289D01*
X032335Y016521D01*
X032323Y016567D01*
X032299Y016608D01*
X032266Y016641D01*
X032225Y016665D01*
X032179Y016677D01*
X031908Y016677D01*
X031908Y016289D01*
X031812Y016289D01*
X031812Y016194D01*
X031392Y016194D01*
X031336Y016217D01*
X031184Y016217D01*
X031045Y016159D01*
X030938Y016052D01*
X030880Y015912D01*
X030880Y015561D01*
X030938Y015422D01*
X031045Y015315D01*
X031184Y015257D01*
X031385Y015257D01*
X031385Y015242D01*
X031480Y015146D01*
X031480Y014161D01*
X031515Y014076D01*
X031515Y013944D01*
X031621Y013839D01*
X031630Y013839D01*
X031630Y013082D01*
X031600Y013082D01*
X031495Y012976D01*
X031495Y012037D01*
X031600Y011932D01*
X032340Y011932D01*
X032420Y012012D01*
X032500Y011932D01*
X032530Y011932D01*
X032530Y010602D01*
X032055Y010602D01*
X031950Y010496D01*
X031950Y009557D01*
X031950Y009669D02*
X021316Y009669D01*
X021316Y009828D02*
X031950Y009828D01*
X031950Y009986D02*
X021264Y009986D01*
X021206Y010086D02*
X021160Y010074D01*
X020900Y010074D01*
X020900Y010411D01*
X020900Y010411D01*
X020900Y010074D01*
X020640Y010074D01*
X020594Y010086D01*
X020553Y010110D01*
X020520Y010143D01*
X020496Y010184D01*
X020484Y010230D01*
X020484Y010411D01*
X020900Y010411D01*
X020900Y010411D01*
X020900Y010411D01*
X021316Y010411D01*
X021316Y010230D01*
X021304Y010184D01*
X021280Y010143D01*
X021247Y010110D01*
X021206Y010086D01*
X021281Y010145D02*
X031950Y010145D01*
X031950Y010303D02*
X021316Y010303D01*
X021316Y010411D02*
X020900Y010411D01*
X020484Y010411D01*
X020484Y010592D01*
X020496Y010638D01*
X020520Y010679D01*
X020553Y010713D01*
X020594Y010736D01*
X020640Y010749D01*
X020900Y010749D01*
X020900Y010411D01*
X020900Y010411D01*
X020900Y010749D01*
X021160Y010749D01*
X021206Y010736D01*
X021247Y010713D01*
X021280Y010679D01*
X021304Y010638D01*
X021316Y010592D01*
X021316Y010411D01*
X021316Y010462D02*
X031950Y010462D01*
X032530Y010620D02*
X021309Y010620D01*
X020900Y010620D02*
X020900Y010620D01*
X020900Y010462D02*
X020900Y010462D01*
X020900Y010303D02*
X020900Y010303D01*
X020900Y010145D02*
X020900Y010145D01*
X020519Y010145D02*
X019626Y010145D01*
X019690Y010215D02*
X019723Y010182D01*
X019764Y010158D01*
X019810Y010146D01*
X020034Y010146D01*
X020257Y010146D01*
X020303Y010158D01*
X020344Y010182D01*
X020378Y010215D01*
X020401Y010256D01*
X020414Y010302D01*
X020414Y010451D01*
X020414Y010600D01*
X020401Y010645D01*
X020378Y010686D01*
X020344Y010720D01*
X020303Y010744D01*
X020257Y010756D01*
X020034Y010756D01*
X020034Y010451D01*
X020414Y010451D01*
X020034Y010451D01*
X020034Y010451D01*
X020034Y010451D01*
X020034Y010756D01*
X019810Y010756D01*
X019764Y010744D01*
X019723Y010720D01*
X019690Y010686D01*
X019666Y010645D01*
X019654Y010600D01*
X019654Y010451D01*
X020034Y010451D01*
X020034Y010146D01*
X020034Y010451D01*
X020034Y010451D01*
X020034Y010451D01*
X019654Y010451D01*
X019654Y010302D01*
X019666Y010256D01*
X019690Y010215D01*
X019654Y010303D02*
X019599Y010303D01*
X019654Y010462D02*
X019420Y010462D01*
X019420Y010620D02*
X019659Y010620D01*
X019420Y010779D02*
X028231Y010779D01*
X028222Y010788D02*
X028256Y010754D01*
X028297Y010731D01*
X028343Y010718D01*
X028564Y010718D01*
X028564Y011490D01*
X028186Y011490D01*
X028186Y010875D01*
X028199Y010829D01*
X028222Y010788D01*
X028186Y010937D02*
X019420Y010937D01*
X019420Y011096D02*
X028186Y011096D01*
X028186Y011254D02*
X019420Y011254D01*
X019420Y011413D02*
X028186Y011413D01*
X028186Y011566D02*
X028186Y012182D01*
X028199Y012228D01*
X028222Y012269D01*
X028256Y012302D01*
X028297Y012326D01*
X028343Y012338D01*
X028564Y012338D01*
X028564Y011566D01*
X028564Y011490D01*
X028641Y011490D01*
X028641Y011566D01*
X029019Y011566D01*
X029019Y012182D01*
X029007Y012228D01*
X028983Y012269D01*
X028949Y012302D01*
X028908Y012326D01*
X028863Y012338D01*
X028641Y012338D01*
X028641Y011566D01*
X028564Y011566D01*
X028186Y011566D01*
X028186Y011571D02*
X019420Y011571D01*
X019420Y011730D02*
X028186Y011730D01*
X028186Y011888D02*
X019420Y011888D01*
X019420Y012047D02*
X028186Y012047D01*
X028193Y012205D02*
X019420Y012205D01*
X019420Y012364D02*
X030000Y012364D01*
X030000Y012338D02*
X029867Y012338D01*
X029761Y012233D01*
X029761Y010824D01*
X029867Y010718D01*
X030488Y010718D01*
X030594Y010824D01*
X030594Y012233D01*
X030488Y012338D01*
X030420Y012338D01*
X030420Y013395D01*
X030488Y013395D01*
X030594Y013501D01*
X030594Y014910D01*
X030488Y015015D01*
X029867Y015015D01*
X029761Y014910D01*
X029761Y014447D01*
X029367Y014447D01*
X029297Y014517D01*
X029176Y014567D01*
X029044Y014567D01*
X029019Y014556D01*
X029019Y014859D01*
X029007Y014905D01*
X028983Y014946D01*
X028949Y014979D01*
X028908Y015003D01*
X028863Y015015D01*
X028641Y015015D01*
X028641Y014244D01*
X028564Y014244D01*
X028564Y015015D01*
X028343Y015015D01*
X028297Y015003D01*
X028256Y014979D01*
X028222Y014946D01*
X028199Y014905D01*
X028186Y014859D01*
X028186Y014244D01*
X028564Y014244D01*
X028564Y014167D01*
X028186Y014167D01*
X028186Y013552D01*
X028199Y013506D01*
X028222Y013465D01*
X028256Y013431D01*
X028297Y013408D01*
X028343Y013395D01*
X028564Y013395D01*
X028564Y014167D01*
X028641Y014167D01*
X028641Y013395D01*
X028863Y013395D01*
X028908Y013408D01*
X028949Y013431D01*
X028983Y013465D01*
X029007Y013506D01*
X029019Y013552D01*
X029019Y013917D01*
X029044Y013907D01*
X029176Y013907D01*
X029297Y013957D01*
X029367Y014027D01*
X029761Y014027D01*
X029761Y013501D01*
X029867Y013395D01*
X030000Y013395D01*
X030000Y012338D01*
X030000Y012522D02*
X019420Y012522D01*
X019420Y012681D02*
X022229Y012681D01*
X022139Y012839D02*
X019420Y012839D01*
X019420Y012998D02*
X022130Y012998D01*
X021748Y013156D02*
X019420Y013156D01*
X019420Y013315D02*
X021708Y013315D01*
X021708Y013473D02*
X019420Y013473D01*
X019420Y013632D02*
X021708Y013632D01*
X021708Y013790D02*
X019420Y013790D01*
X019420Y013949D02*
X021800Y013949D01*
X021706Y014107D02*
X019420Y014107D01*
X019420Y014266D02*
X021680Y014266D01*
X021731Y014424D02*
X019420Y014424D01*
X019420Y014583D02*
X021800Y014583D01*
X021800Y014741D02*
X019302Y014741D01*
X019144Y014900D02*
X021800Y014900D01*
X021800Y015058D02*
X018985Y015058D01*
X018827Y015217D02*
X021800Y015217D01*
X021800Y015375D02*
X021646Y015375D01*
X021652Y015397D02*
X021652Y015657D01*
X021314Y015657D01*
X021314Y015657D01*
X021314Y015241D01*
X021496Y015241D01*
X021541Y015253D01*
X021582Y015277D01*
X021616Y015310D01*
X021640Y015351D01*
X021652Y015397D01*
X021652Y015534D02*
X021800Y015534D01*
X021800Y015692D02*
X021652Y015692D01*
X021652Y015851D02*
X021749Y015851D01*
X021314Y015851D02*
X021314Y015851D01*
X021314Y016009D02*
X021314Y016009D01*
X021432Y016168D02*
X020820Y016168D01*
X020820Y016326D02*
X021273Y016326D01*
X021115Y016485D02*
X020820Y016485D01*
X020820Y016643D02*
X020956Y016643D01*
X020400Y016643D02*
X019814Y016643D01*
X019972Y016802D02*
X020205Y016802D01*
X020190Y016960D02*
X020131Y016960D01*
X019854Y017277D02*
X016870Y017277D01*
X016870Y017174D02*
X016870Y022128D01*
X016972Y022171D01*
X017126Y022325D01*
X017160Y022407D01*
X017194Y022325D01*
X017348Y022171D01*
X017551Y022087D01*
X017673Y022087D01*
X020488Y019272D01*
X020488Y019272D01*
X020595Y019165D01*
X020734Y019107D01*
X021553Y019107D01*
X021605Y019055D01*
X021495Y019009D01*
X021388Y018902D01*
X021338Y018852D01*
X021280Y018712D01*
X021280Y018561D01*
X021330Y018441D01*
X021330Y017544D01*
X021329Y017543D01*
X021123Y017543D01*
X021112Y017532D01*
X020820Y017824D01*
X020697Y017947D01*
X020523Y017947D01*
X018310Y015734D01*
X017420Y016624D01*
X017297Y016747D01*
X016870Y017174D01*
X016925Y017119D02*
X019695Y017119D01*
X019537Y016960D02*
X017083Y016960D01*
X017242Y016802D02*
X019378Y016802D01*
X019220Y016643D02*
X017400Y016643D01*
X017297Y016747D02*
X017297Y016747D01*
X017559Y016485D02*
X019061Y016485D01*
X018903Y016326D02*
X017717Y016326D01*
X017876Y016168D02*
X018744Y016168D01*
X018586Y016009D02*
X018034Y016009D01*
X018193Y015851D02*
X018427Y015851D01*
X018704Y015534D02*
X020268Y015534D01*
X020268Y015692D02*
X018863Y015692D01*
X019021Y015851D02*
X020268Y015851D01*
X020310Y016009D02*
X019180Y016009D01*
X019338Y016168D02*
X020400Y016168D01*
X020400Y016326D02*
X019497Y016326D01*
X019655Y016485D02*
X020400Y016485D01*
X020901Y016009D02*
X021019Y016009D01*
X020977Y015851D02*
X020943Y015851D01*
X020943Y015692D02*
X020977Y015692D01*
X020977Y015534D02*
X020943Y015534D01*
X020943Y015375D02*
X020983Y015375D01*
X021314Y015375D02*
X021314Y015375D01*
X021314Y015534D02*
X021314Y015534D01*
X021314Y015692D02*
X021314Y015692D01*
X020268Y015375D02*
X018668Y015375D01*
X018233Y015217D02*
X017695Y015217D01*
X017694Y015213D02*
X017706Y015259D01*
X017706Y015559D01*
X017289Y015559D01*
X017289Y015102D01*
X017550Y015102D01*
X017596Y015115D01*
X017637Y015138D01*
X017670Y015172D01*
X017694Y015213D01*
X017706Y015375D02*
X018074Y015375D01*
X018223Y015227D02*
X018223Y015227D01*
X018391Y015058D02*
X016879Y015058D01*
X016720Y014900D02*
X018550Y014900D01*
X018708Y014741D02*
X016562Y014741D01*
X016403Y014583D02*
X018867Y014583D01*
X019000Y014424D02*
X016569Y014424D01*
X016728Y014266D02*
X019000Y014266D01*
X019000Y014107D02*
X016886Y014107D01*
X017045Y013949D02*
X019000Y013949D01*
X019000Y013790D02*
X017203Y013790D01*
X017362Y013632D02*
X019000Y013632D01*
X019000Y013473D02*
X017520Y013473D01*
X017679Y013315D02*
X019000Y013315D01*
X019000Y013156D02*
X017837Y013156D01*
X017996Y012998D02*
X019000Y012998D01*
X019000Y012839D02*
X018154Y012839D01*
X018313Y012681D02*
X019000Y012681D01*
X019000Y012522D02*
X018470Y012522D01*
X018470Y012364D02*
X019000Y012364D01*
X019000Y012205D02*
X018470Y012205D01*
X018470Y012047D02*
X019000Y012047D01*
X019000Y011888D02*
X018470Y011888D01*
X018470Y011730D02*
X019000Y011730D01*
X019000Y011571D02*
X018470Y011571D01*
X018470Y011413D02*
X019000Y011413D01*
X019000Y011254D02*
X018470Y011254D01*
X018470Y011096D02*
X019000Y011096D01*
X019000Y010937D02*
X018470Y010937D01*
X018470Y010779D02*
X019000Y010779D01*
X019000Y010620D02*
X018470Y010620D01*
X018470Y010462D02*
X019000Y010462D01*
X018893Y010303D02*
X018470Y010303D01*
X018470Y010145D02*
X018866Y010145D01*
X018866Y009986D02*
X018470Y009986D01*
X018470Y009828D02*
X018916Y009828D01*
X018470Y009669D02*
X019654Y009669D01*
X019654Y009511D02*
X018470Y009511D01*
X018470Y009352D02*
X020948Y009352D01*
X021106Y009194D02*
X018470Y009194D01*
X018470Y009035D02*
X021265Y009035D01*
X021423Y008877D02*
X018470Y008877D01*
X018470Y008718D02*
X021582Y008718D01*
X021740Y008560D02*
X018702Y008560D01*
X018518Y008560D02*
X018470Y008560D01*
X018932Y008401D02*
X021899Y008401D01*
X022057Y008243D02*
X018990Y008243D01*
X018990Y008084D02*
X022216Y008084D01*
X022374Y007926D02*
X018990Y007926D01*
X020032Y007767D02*
X022533Y007767D01*
X022691Y007609D02*
X020076Y007609D01*
X020076Y007450D02*
X022850Y007450D01*
X022900Y007292D02*
X020076Y007292D01*
X022968Y007926D02*
X023783Y007926D01*
X023703Y007767D02*
X023126Y007767D01*
X023285Y007609D02*
X023685Y007609D01*
X023685Y007618D02*
X023685Y007599D01*
X023696Y007526D01*
X023720Y007454D01*
X023754Y007388D01*
X023797Y007327D01*
X023850Y007274D01*
X023911Y007230D01*
X023978Y007196D01*
X024049Y007173D01*
X024123Y007162D01*
X024142Y007162D01*
X024142Y007618D01*
X023685Y007618D01*
X023722Y007450D02*
X023320Y007450D01*
X023320Y007292D02*
X023833Y007292D01*
X024142Y007292D02*
X024178Y007292D01*
X024178Y007450D02*
X024142Y007450D01*
X024142Y007609D02*
X024178Y007609D01*
X024178Y007767D02*
X024142Y007767D01*
X024142Y007926D02*
X024178Y007926D01*
X024494Y006975D02*
X024826Y006975D01*
X024720Y006816D02*
X024600Y006816D01*
X024635Y006658D02*
X024685Y006658D01*
X024697Y006499D02*
X024617Y006499D01*
X024539Y006341D02*
X024536Y006341D01*
X024480Y006182D02*
X024305Y006182D01*
X024480Y006024D02*
X023870Y006024D01*
X023870Y005865D02*
X024480Y005865D01*
X024480Y005707D02*
X023870Y005707D01*
X023870Y005548D02*
X024480Y005548D01*
X024480Y005390D02*
X023870Y005390D01*
X023870Y005231D02*
X024480Y005231D01*
X024480Y005073D02*
X024351Y005073D01*
X024178Y005073D02*
X024142Y005073D01*
X024142Y004914D02*
X024178Y004914D01*
X024178Y004756D02*
X024142Y004756D01*
X023450Y004439D02*
X022255Y004439D01*
X022370Y004280D02*
X023520Y004280D01*
X023678Y004122D02*
X022426Y004122D01*
X022626Y003948D02*
X022710Y003746D01*
X022710Y003527D01*
X022626Y003325D01*
X022472Y003171D01*
X022628Y003329D02*
X023795Y003329D01*
X023707Y003488D02*
X022694Y003488D01*
X022710Y003646D02*
X023685Y003646D01*
X023715Y003805D02*
X022686Y003805D01*
X021532Y003012D02*
X037380Y003012D01*
X037380Y002854D02*
X021374Y002854D01*
X023870Y005073D02*
X023969Y005073D01*
X024002Y006182D02*
X024015Y006182D01*
X025476Y004280D02*
X025480Y004280D01*
X029525Y003329D02*
X029796Y003329D01*
X029709Y003488D02*
X029613Y003488D01*
X030142Y003488D02*
X030178Y003488D01*
X030178Y003329D02*
X030142Y003329D01*
X030524Y003329D02*
X030795Y003329D01*
X030707Y003488D02*
X030611Y003488D01*
X030178Y003805D02*
X030142Y003805D01*
X030142Y003963D02*
X030178Y003963D01*
X030476Y004280D02*
X030480Y004280D01*
X031000Y004122D02*
X031480Y004122D01*
X031476Y004280D02*
X031480Y004280D01*
X031506Y003963D02*
X031508Y003963D01*
X031605Y003805D02*
X031667Y003805D01*
X031685Y003646D02*
X031635Y003646D01*
X031613Y003488D02*
X031707Y003488D01*
X031795Y003329D02*
X031525Y003329D01*
X032525Y003329D02*
X032795Y003329D01*
X032707Y003488D02*
X032613Y003488D01*
X032635Y003646D02*
X032685Y003646D01*
X032715Y003805D02*
X032605Y003805D01*
X032506Y003963D02*
X032814Y003963D01*
X032844Y004280D02*
X032476Y004280D01*
X032593Y004439D02*
X032728Y004439D01*
X032685Y004597D02*
X032635Y004597D01*
X032621Y004756D02*
X032695Y004756D01*
X032765Y004914D02*
X032546Y004914D01*
X032351Y005073D02*
X032927Y005073D01*
X032769Y005231D02*
X032380Y005231D01*
X032390Y005390D02*
X032610Y005390D01*
X032550Y005548D02*
X032390Y005548D01*
X032390Y005707D02*
X032550Y005707D01*
X032550Y005865D02*
X032390Y005865D01*
X032390Y006024D02*
X032550Y006024D01*
X032550Y006182D02*
X032390Y006182D01*
X032536Y006341D02*
X032550Y006341D01*
X032550Y006975D02*
X032494Y006975D01*
X033982Y007133D02*
X034038Y007133D01*
X034982Y007133D02*
X035430Y007133D01*
X035487Y007292D02*
X035490Y007292D01*
X035597Y007450D02*
X035648Y007450D01*
X035635Y007609D02*
X035685Y007609D01*
X035685Y007767D02*
X035620Y007767D01*
X035685Y007926D02*
X035543Y007926D01*
X035762Y008084D02*
X035322Y008084D01*
X035613Y009511D02*
X033764Y009511D01*
X033810Y009669D02*
X035610Y009669D01*
X035648Y009828D02*
X033810Y009828D01*
X033810Y009986D02*
X035742Y009986D01*
X035886Y010145D02*
X033810Y010145D01*
X033810Y010303D02*
X035706Y010303D01*
X035633Y010462D02*
X033810Y010462D01*
X033290Y010620D02*
X035610Y010620D01*
X035628Y010779D02*
X033290Y010779D01*
X033290Y010937D02*
X035693Y010937D01*
X035780Y011096D02*
X033290Y011096D01*
X033290Y011254D02*
X035780Y011254D01*
X035780Y011413D02*
X033290Y011413D01*
X033290Y011571D02*
X035780Y011571D01*
X035780Y011730D02*
X033290Y011730D01*
X033290Y011888D02*
X035780Y011888D01*
X035780Y012047D02*
X034234Y012047D01*
X034233Y012042D02*
X034245Y012088D01*
X034245Y012439D01*
X033838Y012439D01*
X033838Y011932D01*
X034089Y011932D01*
X034134Y011944D01*
X034176Y011968D01*
X034209Y012001D01*
X034233Y012042D01*
X034245Y012205D02*
X035780Y012205D01*
X035780Y012364D02*
X034245Y012364D01*
X034245Y012681D02*
X035460Y012681D01*
X035460Y012839D02*
X034245Y012839D01*
X034217Y012998D02*
X035460Y012998D01*
X035460Y013156D02*
X033740Y013156D01*
X033718Y013315D02*
X035478Y013315D01*
X035678Y013587D02*
X035719Y013563D01*
X035764Y013551D01*
X035946Y013551D01*
X036127Y013551D01*
X036173Y013563D01*
X036214Y013587D01*
X036247Y013620D01*
X036271Y013661D01*
X036283Y013707D01*
X036283Y013967D01*
X036283Y014227D01*
X036271Y014273D01*
X036247Y014314D01*
X036214Y014347D01*
X036173Y014371D01*
X036127Y014383D01*
X035946Y014383D01*
X035946Y013967D01*
X036283Y013967D01*
X035946Y013967D01*
X035946Y013967D01*
X035946Y013967D01*
X035946Y014383D01*
X035764Y014383D01*
X035719Y014371D01*
X035678Y014347D01*
X035644Y014314D01*
X035620Y014273D01*
X035608Y014227D01*
X035608Y013967D01*
X035946Y013967D01*
X035946Y013551D01*
X035946Y013967D01*
X035946Y013967D01*
X035946Y013967D01*
X035608Y013967D01*
X035608Y013707D01*
X035620Y013661D01*
X035644Y013620D01*
X035678Y013587D01*
X035637Y013632D02*
X033540Y013632D01*
X033611Y013473D02*
X036450Y013473D01*
X036341Y013632D02*
X036254Y013632D01*
X036283Y013790D02*
X036317Y013790D01*
X036317Y013949D02*
X036283Y013949D01*
X036283Y014107D02*
X036317Y014107D01*
X036317Y014266D02*
X036273Y014266D01*
X035946Y014266D02*
X035946Y014266D01*
X035946Y014107D02*
X035946Y014107D01*
X035946Y013949D02*
X035946Y013949D01*
X035946Y013790D02*
X035946Y013790D01*
X035946Y013632D02*
X035946Y013632D01*
X035608Y013790D02*
X033640Y013790D01*
X033805Y013949D02*
X035608Y013949D01*
X035608Y014107D02*
X033868Y014107D01*
X034000Y014266D02*
X035619Y014266D01*
X036992Y014266D02*
X037380Y014266D01*
X037380Y014424D02*
X034040Y014424D01*
X034040Y014583D02*
X037380Y014583D01*
X037380Y014741D02*
X034040Y014741D01*
X034040Y014900D02*
X037380Y014900D01*
X037380Y015058D02*
X034040Y015058D01*
X034170Y015217D02*
X037380Y015217D01*
X037380Y015375D02*
X034175Y015375D01*
X034175Y015534D02*
X037380Y015534D01*
X037380Y015692D02*
X034175Y015692D01*
X034175Y015851D02*
X037380Y015851D01*
X037380Y016009D02*
X034175Y016009D01*
X034175Y016168D02*
X037380Y016168D01*
X037380Y016326D02*
X034175Y016326D01*
X034175Y016485D02*
X037380Y016485D01*
X037380Y016643D02*
X034068Y016643D01*
X033748Y016643D02*
X033652Y016643D01*
X033652Y016657D02*
X033381Y016657D01*
X033335Y016645D01*
X033294Y016621D01*
X033261Y016588D01*
X033237Y016547D01*
X033225Y016501D01*
X033225Y016269D01*
X033652Y016269D01*
X033652Y016657D01*
X033652Y016485D02*
X033748Y016485D01*
X033748Y016326D02*
X033652Y016326D01*
X033225Y016326D02*
X032335Y016326D01*
X032335Y016168D02*
X033225Y016168D01*
X033225Y016009D02*
X032335Y016009D01*
X032335Y015851D02*
X033225Y015851D01*
X033225Y015692D02*
X032335Y015692D01*
X032335Y015534D02*
X033225Y015534D01*
X033225Y015375D02*
X032335Y015375D01*
X032310Y015217D02*
X033230Y015217D01*
X033280Y015058D02*
X032240Y015058D01*
X032240Y014900D02*
X033280Y014900D01*
X033280Y014741D02*
X032240Y014741D01*
X032240Y014583D02*
X033269Y014583D01*
X033027Y014424D02*
X032293Y014424D01*
X032348Y014266D02*
X032972Y014266D01*
X032893Y014107D02*
X032373Y014107D01*
X032392Y013949D02*
X032795Y013949D01*
X032780Y013790D02*
X032390Y013790D01*
X032390Y013632D02*
X032780Y013632D01*
X032780Y013473D02*
X032390Y013473D01*
X032390Y013315D02*
X032780Y013315D01*
X032780Y013156D02*
X032390Y013156D01*
X031630Y013156D02*
X030420Y013156D01*
X030420Y012998D02*
X031516Y012998D01*
X031495Y012839D02*
X030420Y012839D01*
X030420Y012681D02*
X031495Y012681D01*
X031495Y012522D02*
X030420Y012522D01*
X030420Y012364D02*
X031495Y012364D01*
X031495Y012205D02*
X030594Y012205D01*
X030594Y012047D02*
X031495Y012047D01*
X030594Y011888D02*
X032530Y011888D01*
X032530Y011730D02*
X030594Y011730D01*
X030594Y011571D02*
X032530Y011571D01*
X032530Y011413D02*
X030594Y011413D01*
X030594Y011254D02*
X032530Y011254D01*
X032530Y011096D02*
X030594Y011096D01*
X030594Y010937D02*
X032530Y010937D01*
X032530Y010779D02*
X030549Y010779D01*
X029806Y010779D02*
X028974Y010779D01*
X028983Y010788D02*
X029007Y010829D01*
X029019Y010875D01*
X029019Y011490D01*
X028641Y011490D01*
X028641Y010718D01*
X028863Y010718D01*
X028908Y010731D01*
X028949Y010754D01*
X028983Y010788D01*
X029019Y010937D02*
X029761Y010937D01*
X029761Y011096D02*
X029019Y011096D01*
X029019Y011254D02*
X029761Y011254D01*
X029761Y011413D02*
X029019Y011413D01*
X029019Y011571D02*
X029761Y011571D01*
X029761Y011730D02*
X029019Y011730D01*
X029019Y011888D02*
X029761Y011888D01*
X029761Y012047D02*
X029019Y012047D01*
X029013Y012205D02*
X029761Y012205D01*
X030000Y012681D02*
X022791Y012681D01*
X022881Y012839D02*
X030000Y012839D01*
X030000Y012998D02*
X022890Y012998D01*
X023052Y013156D02*
X030000Y013156D01*
X030000Y013315D02*
X023092Y013315D01*
X023092Y013473D02*
X028218Y013473D01*
X028186Y013632D02*
X023092Y013632D01*
X023092Y013790D02*
X028186Y013790D01*
X028186Y013949D02*
X023040Y013949D01*
X023040Y014107D02*
X028186Y014107D01*
X028186Y014266D02*
X023040Y014266D01*
X023040Y014424D02*
X028186Y014424D01*
X028186Y014583D02*
X023040Y014583D01*
X023040Y014741D02*
X028186Y014741D01*
X028197Y014900D02*
X023040Y014900D01*
X023040Y015058D02*
X031480Y015058D01*
X031480Y014900D02*
X030594Y014900D01*
X030594Y014741D02*
X031480Y014741D01*
X031480Y014583D02*
X030594Y014583D01*
X030594Y014424D02*
X031480Y014424D01*
X031480Y014266D02*
X030594Y014266D01*
X030594Y014107D02*
X031502Y014107D01*
X031515Y013949D02*
X030594Y013949D01*
X030594Y013790D02*
X031630Y013790D01*
X031630Y013632D02*
X030594Y013632D01*
X030566Y013473D02*
X031630Y013473D01*
X031630Y013315D02*
X030420Y013315D01*
X029789Y013473D02*
X028988Y013473D01*
X029019Y013632D02*
X029761Y013632D01*
X029761Y013790D02*
X029019Y013790D01*
X029277Y013949D02*
X029761Y013949D01*
X029761Y014583D02*
X029019Y014583D01*
X029019Y014741D02*
X029761Y014741D01*
X029761Y014900D02*
X029008Y014900D01*
X028641Y014900D02*
X028564Y014900D01*
X028564Y014741D02*
X028641Y014741D01*
X028641Y014583D02*
X028564Y014583D01*
X028564Y014424D02*
X028641Y014424D01*
X028641Y014266D02*
X028564Y014266D01*
X028564Y014107D02*
X028641Y014107D01*
X028641Y013949D02*
X028564Y013949D01*
X028564Y013790D02*
X028641Y013790D01*
X028641Y013632D02*
X028564Y013632D01*
X028564Y013473D02*
X028641Y013473D01*
X028641Y012205D02*
X028564Y012205D01*
X028564Y012047D02*
X028641Y012047D01*
X028641Y011888D02*
X028564Y011888D01*
X028564Y011730D02*
X028641Y011730D01*
X028641Y011571D02*
X028564Y011571D01*
X028564Y011413D02*
X028641Y011413D01*
X028641Y011254D02*
X028564Y011254D01*
X028564Y011096D02*
X028641Y011096D01*
X028641Y010937D02*
X028564Y010937D01*
X028564Y010779D02*
X028641Y010779D01*
X033702Y012047D02*
X033838Y012047D01*
X033838Y012205D02*
X033702Y012205D01*
X033702Y012364D02*
X033838Y012364D01*
X033838Y012522D02*
X035780Y012522D01*
X036540Y012522D02*
X037380Y012522D01*
X037380Y012364D02*
X036540Y012364D01*
X036540Y012205D02*
X037380Y012205D01*
X037380Y012047D02*
X036540Y012047D01*
X036540Y011888D02*
X037380Y011888D01*
X037380Y011730D02*
X036540Y011730D01*
X036540Y011571D02*
X037380Y011571D01*
X037380Y011413D02*
X036540Y011413D01*
X036540Y011254D02*
X037380Y011254D01*
X037380Y011096D02*
X036540Y011096D01*
X036627Y010937D02*
X037380Y010937D01*
X037380Y010779D02*
X036692Y010779D01*
X036710Y010620D02*
X037380Y010620D01*
X037380Y010462D02*
X036687Y010462D01*
X036614Y010303D02*
X037380Y010303D01*
X037380Y010145D02*
X036434Y010145D01*
X036578Y009986D02*
X037380Y009986D01*
X037380Y009828D02*
X036672Y009828D01*
X036710Y009669D02*
X037380Y009669D01*
X037380Y009511D02*
X036773Y009511D01*
X036932Y009352D02*
X037380Y009352D01*
X037380Y009194D02*
X037086Y009194D01*
X037140Y009035D02*
X037380Y009035D01*
X037380Y008877D02*
X037140Y008877D01*
X037140Y008718D02*
X037380Y008718D01*
X037380Y008560D02*
X037140Y008560D01*
X037140Y008401D02*
X037380Y008401D01*
X037380Y008243D02*
X037140Y008243D01*
X037140Y008084D02*
X037380Y008084D01*
X037380Y007926D02*
X037140Y007926D01*
X037140Y007767D02*
X037380Y007767D01*
X037380Y007609D02*
X037140Y007609D01*
X037140Y007450D02*
X037380Y007450D01*
X037380Y007292D02*
X037140Y007292D01*
X037140Y007133D02*
X037380Y007133D01*
X037380Y006975D02*
X037140Y006975D01*
X037140Y006816D02*
X037380Y006816D01*
X037380Y006658D02*
X037140Y006658D01*
X037140Y006499D02*
X037380Y006499D01*
X037380Y006341D02*
X037140Y006341D01*
X037128Y006182D02*
X037380Y006182D01*
X037380Y006024D02*
X037140Y006024D01*
X037140Y005865D02*
X037380Y005865D01*
X037380Y005707D02*
X037140Y005707D01*
X037140Y005548D02*
X037380Y005548D01*
X037380Y005390D02*
X037140Y005390D01*
X037140Y005231D02*
X037380Y005231D01*
X037380Y005073D02*
X037140Y005073D01*
X037140Y004914D02*
X037380Y004914D01*
X037380Y004756D02*
X037140Y004756D01*
X037140Y004597D02*
X037380Y004597D01*
X037380Y004439D02*
X037140Y004439D01*
X037140Y004280D02*
X037380Y004280D01*
X037380Y004122D02*
X037140Y004122D01*
X037074Y003963D02*
X037380Y003963D01*
X037380Y003805D02*
X036915Y003805D01*
X036757Y003646D02*
X037380Y003646D01*
X037380Y003488D02*
X036650Y003488D01*
X036574Y003329D02*
X037380Y003329D01*
X037380Y003171D02*
X036368Y003171D01*
X035952Y003171D02*
X035277Y003171D01*
X035043Y003171D02*
X034369Y003171D01*
X034567Y003329D02*
X034795Y003329D01*
X034707Y003488D02*
X034648Y003488D01*
X034142Y003646D02*
X033635Y003646D01*
X033613Y003488D02*
X033672Y003488D01*
X033753Y003329D02*
X033525Y003329D01*
X033653Y003805D02*
X033678Y003805D01*
X033840Y004122D02*
X034002Y004122D01*
X034142Y004122D02*
X034178Y004122D01*
X034178Y003963D02*
X034142Y003963D01*
X034142Y003805D02*
X034178Y003805D01*
X034476Y004280D02*
X034844Y004280D01*
X034728Y004439D02*
X034592Y004439D01*
X034635Y004597D02*
X034685Y004597D01*
X034695Y004756D02*
X034625Y004756D01*
X034555Y004914D02*
X034557Y004914D01*
X034480Y005073D02*
X034349Y005073D01*
X034480Y005231D02*
X033891Y005231D01*
X033890Y005390D02*
X034480Y005390D01*
X034480Y005548D02*
X033890Y005548D01*
X033890Y005707D02*
X034480Y005707D01*
X034480Y005865D02*
X033890Y005865D01*
X032178Y004597D02*
X032142Y004597D01*
X032142Y004439D02*
X032178Y004439D01*
X032178Y004280D02*
X032142Y004280D01*
X032000Y004122D02*
X033320Y004122D01*
X033840Y004280D02*
X033844Y004280D01*
X020484Y009511D02*
X020414Y009511D01*
X020330Y009986D02*
X020536Y009986D01*
X020484Y010303D02*
X020414Y010303D01*
X020414Y010462D02*
X020484Y010462D01*
X020491Y010620D02*
X020408Y010620D01*
X020034Y010620D02*
X020034Y010620D01*
X020034Y010462D02*
X020034Y010462D01*
X020034Y010303D02*
X020034Y010303D01*
X019738Y009986D02*
X019626Y009986D01*
X019654Y009828D02*
X019577Y009828D01*
X013630Y014583D02*
X011853Y014583D01*
X011890Y014741D02*
X013630Y014741D01*
X013630Y014900D02*
X011850Y014900D01*
X010377Y014900D02*
X010377Y014900D01*
X010377Y014741D02*
X010377Y014741D01*
X010377Y014712D02*
X010260Y014762D01*
X010852Y013156D02*
X011683Y013156D01*
X011841Y013315D02*
X011205Y013315D01*
X011524Y012998D02*
X010852Y012998D01*
X010852Y012839D02*
X011366Y012839D01*
X010967Y012681D02*
X010852Y012681D01*
X010852Y012522D02*
X010855Y012522D01*
X010377Y011877D02*
X009410Y011877D01*
X009410Y011887D01*
X009267Y012047D02*
X009901Y012047D01*
X009901Y012019D02*
X009905Y012015D01*
X009901Y011999D01*
X009901Y011877D01*
X009901Y011755D01*
X009905Y011739D01*
X009901Y011735D01*
X009901Y011403D01*
X009065Y010567D01*
X009020Y010522D01*
X009020Y011800D01*
X009497Y012277D01*
X009901Y012277D01*
X009901Y012019D01*
X009901Y011888D02*
X009108Y011888D01*
X009020Y011730D02*
X009901Y011730D01*
X009901Y011877D02*
X010377Y011877D01*
X010377Y011877D01*
X009901Y011877D01*
X009901Y012205D02*
X009425Y012205D01*
X009020Y011571D02*
X009901Y011571D01*
X009901Y011413D02*
X009020Y011413D01*
X009020Y011254D02*
X009752Y011254D01*
X009594Y011096D02*
X009020Y011096D01*
X009020Y010937D02*
X009435Y010937D01*
X009277Y010779D02*
X009020Y010779D01*
X009020Y010620D02*
X009118Y010620D01*
X013605Y015058D02*
X013605Y015058D01*
X013605Y015217D02*
X013605Y015217D01*
X013605Y015375D02*
X013605Y015375D01*
X013605Y015420D02*
X013605Y015896D01*
X013490Y015896D01*
X013490Y019632D01*
X013355Y019767D01*
X012090Y021032D01*
X012090Y021782D01*
X011781Y022091D01*
X011972Y022171D01*
X012126Y022325D01*
X012160Y022407D01*
X012190Y022349D01*
X012240Y022279D01*
X012302Y022217D01*
X012372Y022166D01*
X012449Y022127D01*
X012531Y022100D01*
X012617Y022087D01*
X012640Y022087D01*
X012640Y022617D01*
X012680Y022617D01*
X012680Y022657D01*
X013210Y022657D01*
X013640Y022657D01*
X013640Y022617D01*
X012680Y022617D01*
X012680Y022087D01*
X012703Y022087D01*
X012789Y022100D01*
X012871Y022127D01*
X012948Y022166D01*
X013018Y022217D01*
X013080Y022279D01*
X013130Y022349D01*
X013160Y022407D01*
X013190Y022349D01*
X013240Y022279D01*
X013302Y022217D01*
X013372Y022166D01*
X013449Y022127D01*
X013531Y022100D01*
X013617Y022087D01*
X013640Y022087D01*
X013640Y022617D01*
X013680Y022617D01*
X013680Y022087D01*
X013703Y022087D01*
X013789Y022100D01*
X013871Y022127D01*
X013948Y022166D01*
X014018Y022217D01*
X014080Y022279D01*
X014130Y022349D01*
X014160Y022407D01*
X014194Y022325D01*
X014348Y022171D01*
X014551Y022087D01*
X014623Y022087D01*
X015430Y021279D01*
X015430Y019311D01*
X015488Y019172D01*
X015595Y019065D01*
X015734Y019007D01*
X015886Y019007D01*
X016025Y019065D01*
X016132Y019172D01*
X016190Y019311D01*
X016190Y021512D01*
X016132Y021652D01*
X015697Y022087D01*
X015769Y022087D01*
X015972Y022171D01*
X016126Y022325D01*
X016160Y022407D01*
X016194Y022325D01*
X016348Y022171D01*
X016450Y022128D01*
X016450Y017000D01*
X016450Y017436D02*
X015744Y017436D01*
X015744Y017594D02*
X016450Y017594D01*
X016870Y017594D02*
X020171Y017594D01*
X020329Y017753D02*
X016870Y017753D01*
X016870Y017911D02*
X020488Y017911D01*
X020732Y017911D02*
X021330Y017911D01*
X021330Y017753D02*
X020891Y017753D01*
X021049Y017594D02*
X021330Y017594D01*
X021330Y018070D02*
X016870Y018070D01*
X016870Y018228D02*
X021330Y018228D01*
X021330Y018387D02*
X016870Y018387D01*
X016870Y018545D02*
X021287Y018545D01*
X021280Y018704D02*
X016870Y018704D01*
X016870Y018862D02*
X021348Y018862D01*
X021523Y019021D02*
X016870Y019021D01*
X016870Y019179D02*
X020580Y019179D01*
X020422Y019338D02*
X016870Y019338D01*
X016870Y019496D02*
X020263Y019496D01*
X020105Y019655D02*
X016870Y019655D01*
X016870Y019813D02*
X019946Y019813D01*
X019788Y019972D02*
X016870Y019972D01*
X016870Y020130D02*
X019629Y020130D01*
X019471Y020289D02*
X016870Y020289D01*
X016870Y020447D02*
X019312Y020447D01*
X019154Y020606D02*
X016870Y020606D01*
X016870Y020764D02*
X018995Y020764D01*
X018837Y020923D02*
X016870Y020923D01*
X016870Y021081D02*
X018678Y021081D01*
X018520Y021240D02*
X016870Y021240D01*
X016870Y021398D02*
X018361Y021398D01*
X018203Y021557D02*
X016870Y021557D01*
X016870Y021715D02*
X018044Y021715D01*
X017886Y021874D02*
X016870Y021874D01*
X016870Y022032D02*
X017727Y022032D01*
X017328Y022191D02*
X016992Y022191D01*
X017136Y022349D02*
X017184Y022349D01*
X016450Y022032D02*
X015752Y022032D01*
X015910Y021874D02*
X016450Y021874D01*
X016450Y021715D02*
X016069Y021715D01*
X016172Y021557D02*
X016450Y021557D01*
X016450Y021398D02*
X016190Y021398D01*
X016190Y021240D02*
X016450Y021240D01*
X016450Y021081D02*
X016190Y021081D01*
X016190Y020923D02*
X016450Y020923D01*
X016450Y020764D02*
X016190Y020764D01*
X016190Y020606D02*
X016450Y020606D01*
X016450Y020447D02*
X016190Y020447D01*
X016190Y020289D02*
X016450Y020289D01*
X016450Y020130D02*
X016190Y020130D01*
X016190Y019972D02*
X016450Y019972D01*
X016450Y019813D02*
X016190Y019813D01*
X016190Y019655D02*
X016450Y019655D01*
X016450Y019496D02*
X016190Y019496D01*
X016190Y019338D02*
X016450Y019338D01*
X016450Y019179D02*
X016135Y019179D01*
X015919Y019021D02*
X016450Y019021D01*
X016450Y018862D02*
X013490Y018862D01*
X013490Y018704D02*
X016450Y018704D01*
X016450Y018545D02*
X013490Y018545D01*
X013490Y018387D02*
X016450Y018387D01*
X016450Y018228D02*
X013490Y018228D01*
X013490Y018070D02*
X016450Y018070D01*
X016870Y017436D02*
X020012Y017436D01*
X017289Y016161D02*
X017210Y016240D01*
X017134Y016164D01*
X017134Y015714D01*
X017289Y015714D01*
X017289Y016161D01*
X017282Y016168D02*
X017138Y016168D01*
X017134Y016009D02*
X017289Y016009D01*
X017289Y015851D02*
X017134Y015851D01*
X017289Y015692D02*
X017757Y015692D01*
X017706Y015534D02*
X017916Y015534D01*
X017289Y015534D02*
X017134Y015534D01*
X017134Y015375D02*
X017289Y015375D01*
X017289Y015217D02*
X017134Y015217D01*
X014779Y015692D02*
X014741Y015692D01*
X013605Y015692D02*
X013605Y015692D01*
X013605Y015534D02*
X013605Y015534D01*
X013605Y015420D02*
X013605Y015420D01*
X013605Y015851D02*
X013605Y015851D01*
X013490Y019021D02*
X015701Y019021D01*
X015485Y019179D02*
X013490Y019179D01*
X013490Y019338D02*
X015430Y019338D01*
X015430Y019496D02*
X013490Y019496D01*
X013467Y019655D02*
X015430Y019655D01*
X015430Y019813D02*
X013309Y019813D01*
X013355Y019767D02*
X013355Y019767D01*
X013150Y019972D02*
X015430Y019972D01*
X015430Y020130D02*
X012992Y020130D01*
X012833Y020289D02*
X015430Y020289D01*
X015430Y020447D02*
X012675Y020447D01*
X012516Y020606D02*
X015430Y020606D01*
X015430Y020764D02*
X012358Y020764D01*
X012199Y020923D02*
X015430Y020923D01*
X015430Y021081D02*
X012090Y021081D01*
X012090Y021240D02*
X015430Y021240D01*
X015311Y021398D02*
X012090Y021398D01*
X012090Y021557D02*
X015153Y021557D01*
X014994Y021715D02*
X012090Y021715D01*
X011998Y021874D02*
X014836Y021874D01*
X014677Y022032D02*
X011840Y022032D01*
X011992Y022191D02*
X012338Y022191D01*
X012189Y022349D02*
X012136Y022349D01*
X012640Y022349D02*
X012680Y022349D01*
X012680Y022191D02*
X012640Y022191D01*
X012640Y022508D02*
X012680Y022508D01*
X012680Y022666D02*
X012640Y022666D01*
X012640Y022825D02*
X012680Y022825D01*
X012680Y022983D02*
X012640Y022983D01*
X012640Y023142D02*
X012680Y023142D01*
X012880Y023142D02*
X013440Y023142D01*
X013640Y023142D02*
X013680Y023142D01*
X013680Y022983D02*
X013640Y022983D01*
X013640Y022825D02*
X013680Y022825D01*
X013680Y022666D02*
X013640Y022666D01*
X013640Y022508D02*
X013680Y022508D01*
X013680Y022349D02*
X013640Y022349D01*
X013640Y022191D02*
X013680Y022191D01*
X013982Y022191D02*
X014328Y022191D01*
X014184Y022349D02*
X014131Y022349D01*
X013338Y022191D02*
X012982Y022191D01*
X013131Y022349D02*
X013189Y022349D01*
X013232Y022983D02*
X013088Y022983D01*
X012440Y023142D02*
X011878Y023142D01*
X012091Y022983D02*
X012232Y022983D01*
X011442Y023142D02*
X010730Y023142D01*
X010572Y023300D02*
X015786Y023300D01*
X015945Y023459D02*
X010413Y023459D01*
X010889Y022983D02*
X011229Y022983D01*
X011143Y022825D02*
X011047Y022825D01*
X013880Y023142D02*
X014442Y023142D01*
X014229Y022983D02*
X014088Y022983D01*
X014878Y023142D02*
X015442Y023142D01*
X015229Y022983D02*
X015091Y022983D01*
X016103Y023617D02*
X000940Y023617D01*
X000940Y023459D02*
X001457Y023459D01*
X001430Y023300D02*
X000940Y023300D01*
X000940Y023142D02*
X001430Y023142D01*
X001229Y022983D02*
X000940Y022983D01*
X000940Y022825D02*
X001143Y022825D01*
X001110Y022666D02*
X000940Y022666D01*
X000940Y022508D02*
X001118Y022508D01*
X001047Y022349D02*
X000940Y022349D01*
X000940Y023776D02*
X020062Y023776D01*
X020220Y023934D02*
X000940Y023934D01*
X000940Y024093D02*
X023806Y024093D01*
X023740Y023934D02*
X022600Y023934D01*
X022758Y023776D02*
X023740Y023776D01*
X023740Y023617D02*
X022917Y023617D01*
X023075Y023459D02*
X023740Y023459D01*
X023740Y023300D02*
X023234Y023300D01*
X023392Y023142D02*
X023728Y023142D01*
X023569Y022983D02*
X023551Y022983D01*
X022952Y022508D02*
X021386Y022508D01*
X021504Y022671D02*
X021686Y022671D01*
X021731Y022683D01*
X021772Y022707D01*
X021806Y022740D01*
X021830Y022781D01*
X021842Y022827D01*
X021842Y023087D01*
X021504Y023087D01*
X021504Y023087D01*
X021504Y022671D01*
X021504Y022825D02*
X021504Y022825D01*
X021504Y022983D02*
X021504Y022983D01*
X021167Y022983D02*
X021133Y022983D01*
X021133Y022825D02*
X021167Y022825D01*
X021227Y022666D02*
X022793Y022666D01*
X022635Y022825D02*
X021841Y022825D01*
X021842Y022983D02*
X022476Y022983D01*
X022318Y023142D02*
X021842Y023142D01*
X021167Y023142D02*
X021133Y023142D01*
X021968Y022349D02*
X023110Y022349D01*
X023269Y022191D02*
X022010Y022191D01*
X022010Y022032D02*
X023427Y022032D01*
X023586Y021874D02*
X022010Y021874D01*
X022010Y021715D02*
X023744Y021715D01*
X023712Y021652D02*
X023461Y021652D01*
X023416Y021640D01*
X023374Y021616D01*
X023341Y021582D01*
X023317Y021541D01*
X023305Y021496D01*
X023305Y021144D01*
X023712Y021144D01*
X023712Y021652D01*
X023712Y021557D02*
X023848Y021557D01*
X023848Y021398D02*
X023712Y021398D01*
X023712Y021240D02*
X023848Y021240D01*
X023848Y021081D02*
X024128Y021081D01*
X023848Y020923D02*
X023712Y020923D01*
X023712Y021081D02*
X023084Y021081D01*
X023090Y020923D02*
X023305Y020923D01*
X023305Y021240D02*
X023013Y021240D01*
X022798Y021398D02*
X023305Y021398D01*
X023326Y021557D02*
X021040Y021557D01*
X021040Y021398D02*
X021482Y021398D01*
X021267Y021240D02*
X021040Y021240D01*
X021084Y021081D02*
X021196Y021081D01*
X021190Y020923D02*
X021090Y020923D01*
X021090Y020764D02*
X021190Y020764D01*
X021190Y020606D02*
X021090Y020606D01*
X021090Y020447D02*
X021190Y020447D01*
X021214Y020289D02*
X021066Y020289D01*
X020970Y020130D02*
X021280Y020130D01*
X021280Y019972D02*
X020862Y019972D01*
X020190Y020644D02*
X018747Y022087D01*
X018769Y022087D01*
X018972Y022171D01*
X019126Y022325D01*
X019210Y022527D01*
X019210Y022746D01*
X019126Y022948D01*
X019118Y022957D01*
X019930Y022957D01*
X019930Y022511D01*
X019988Y022372D01*
X020314Y022045D01*
X020280Y021962D01*
X020280Y021253D01*
X020259Y021232D01*
X020190Y021066D01*
X020190Y020644D01*
X020190Y020764D02*
X020070Y020764D01*
X020190Y020923D02*
X019911Y020923D01*
X019753Y021081D02*
X020196Y021081D01*
X020267Y021240D02*
X019594Y021240D01*
X019436Y021398D02*
X020280Y021398D01*
X020280Y021557D02*
X019277Y021557D01*
X019119Y021715D02*
X020280Y021715D01*
X020280Y021874D02*
X018960Y021874D01*
X018802Y022032D02*
X020309Y022032D01*
X020169Y022191D02*
X018992Y022191D01*
X019136Y022349D02*
X020010Y022349D01*
X019931Y022508D02*
X019202Y022508D01*
X019210Y022666D02*
X019930Y022666D01*
X019930Y022825D02*
X019177Y022825D01*
X021798Y021398D02*
X022482Y021398D01*
X022267Y021240D02*
X022013Y021240D01*
X022084Y021081D02*
X022196Y021081D01*
X022190Y020923D02*
X022090Y020923D01*
X022090Y020764D02*
X022190Y020764D01*
X022190Y020606D02*
X022090Y020606D01*
X022090Y020447D02*
X022190Y020447D01*
X022214Y020289D02*
X022066Y020289D01*
X022040Y020130D02*
X022280Y020130D01*
X022280Y019972D02*
X022040Y019972D01*
X022040Y019813D02*
X022280Y019813D01*
X022280Y019655D02*
X022079Y019655D01*
X022238Y019496D02*
X022328Y019496D01*
X022396Y019338D02*
X022510Y019338D01*
X022555Y019179D02*
X022880Y019179D01*
X022880Y019021D02*
X022713Y019021D01*
X022872Y018862D02*
X022880Y018862D01*
X022880Y019338D02*
X022810Y019338D01*
X023640Y019655D02*
X025230Y019655D01*
X025230Y019813D02*
X023640Y019813D01*
X023640Y019972D02*
X025230Y019972D01*
X025230Y020130D02*
X023640Y020130D01*
X023640Y020289D02*
X025230Y020289D01*
X025230Y020447D02*
X023640Y020447D01*
X023712Y020606D02*
X023848Y020606D01*
X023848Y020764D02*
X023712Y020764D01*
X024768Y021715D02*
X025280Y021715D01*
X025285Y021874D02*
X024660Y021874D01*
X024502Y022032D02*
X025368Y022032D01*
X024343Y022191D02*
X027480Y022191D01*
X027480Y022349D02*
X024185Y022349D01*
X024168Y022508D02*
X027480Y022508D01*
X027480Y022666D02*
X024327Y022666D01*
X024485Y022825D02*
X027480Y022825D01*
X027374Y022983D02*
X025496Y022983D01*
X025600Y023142D02*
X027270Y023142D01*
X027270Y023300D02*
X025600Y023300D01*
X025600Y023459D02*
X027270Y023459D01*
X027270Y023617D02*
X025600Y023617D01*
X025600Y023776D02*
X027270Y023776D01*
X027270Y023934D02*
X025600Y023934D01*
X025534Y024093D02*
X027336Y024093D01*
X029064Y024093D02*
X033288Y024093D01*
X033269Y024091D02*
X033159Y024066D01*
X033052Y024028D01*
X032950Y023979D01*
X032854Y023919D01*
X032766Y023848D01*
X032686Y023768D01*
X032615Y023680D01*
X032555Y023584D01*
X032506Y023482D01*
X032469Y023376D01*
X032444Y023265D01*
X032434Y023177D01*
X033358Y023177D01*
X033358Y024101D01*
X033269Y024091D01*
X033358Y024093D02*
X033518Y024093D01*
X033518Y024101D02*
X033607Y024091D01*
X033717Y024066D01*
X033824Y024028D01*
X033925Y023979D01*
X034021Y023919D01*
X034110Y023848D01*
X034190Y023768D01*
X034260Y023680D01*
X034320Y023584D01*
X034369Y023482D01*
X034407Y023376D01*
X034432Y023265D01*
X034442Y023177D01*
X033518Y023177D01*
X033358Y023177D01*
X033358Y023017D01*
X032434Y023017D01*
X032444Y022928D01*
X032469Y022817D01*
X032506Y022711D01*
X032555Y022609D01*
X032615Y022513D01*
X032686Y022425D01*
X032766Y022345D01*
X032854Y022274D01*
X032950Y022214D01*
X033052Y022165D01*
X033159Y022128D01*
X033269Y022102D01*
X033358Y022092D01*
X033358Y023017D01*
X033518Y023017D01*
X033518Y023177D01*
X033518Y024101D01*
X033587Y024093D02*
X037380Y024093D01*
X037380Y024251D02*
X000940Y024251D01*
X015992Y022191D02*
X016328Y022191D01*
X016184Y022349D02*
X016136Y022349D01*
X023040Y018387D02*
X023073Y018387D01*
X023040Y018228D02*
X023231Y018228D01*
X023040Y018070D02*
X023487Y018070D01*
X023580Y017911D02*
X023040Y017911D01*
X023040Y017753D02*
X023580Y017753D01*
X023580Y017594D02*
X023040Y017594D01*
X023040Y017436D02*
X023580Y017436D01*
X023575Y017277D02*
X023040Y017277D01*
X023040Y017119D02*
X023575Y017119D01*
X023575Y016960D02*
X023040Y016960D01*
X023040Y016802D02*
X023872Y016802D01*
X024101Y016802D02*
X025320Y016802D01*
X025555Y016802D02*
X026581Y016802D01*
X026423Y016960D02*
X025865Y016960D01*
X025929Y017119D02*
X026311Y017119D01*
X026245Y017277D02*
X026088Y017277D01*
X025489Y017753D02*
X024340Y017753D01*
X024340Y017911D02*
X025647Y017911D01*
X025542Y017996D02*
X025542Y018384D01*
X025115Y018384D01*
X025115Y018153D01*
X025127Y018107D01*
X025151Y018066D01*
X025184Y018032D01*
X025225Y018009D01*
X025271Y017996D01*
X025542Y017996D01*
X025542Y018070D02*
X025638Y018070D01*
X025638Y018228D02*
X025542Y018228D01*
X025542Y018387D02*
X024405Y018387D01*
X024405Y018545D02*
X025115Y018545D01*
X025115Y018704D02*
X024405Y018704D01*
X024405Y018862D02*
X024647Y018862D01*
X024580Y019021D02*
X024405Y019021D01*
X024405Y019179D02*
X024587Y019179D01*
X024674Y019338D02*
X024405Y019338D01*
X024341Y019496D02*
X025179Y019496D01*
X025990Y019655D02*
X027025Y019655D01*
X027025Y019701D02*
X027025Y019469D01*
X027452Y019469D01*
X027452Y019857D01*
X027181Y019857D01*
X027135Y019845D01*
X027094Y019821D01*
X027061Y019788D01*
X027037Y019747D01*
X027025Y019701D01*
X027086Y019813D02*
X025990Y019813D01*
X025990Y019972D02*
X028880Y019972D01*
X028880Y020130D02*
X025990Y020130D01*
X025990Y020289D02*
X028880Y020289D01*
X028880Y020447D02*
X025990Y020447D01*
X026054Y020606D02*
X026851Y020606D01*
X026835Y020764D02*
X026055Y020764D01*
X026055Y020923D02*
X026835Y020923D01*
X026835Y021240D02*
X026055Y021240D01*
X026055Y021398D02*
X026835Y021398D01*
X027242Y021081D02*
X026055Y021081D01*
X027242Y020923D02*
X027378Y020923D01*
X027378Y020764D02*
X027242Y020764D01*
X027242Y020606D02*
X027378Y020606D01*
X027452Y019813D02*
X027548Y019813D01*
X027548Y019655D02*
X027452Y019655D01*
X027452Y019496D02*
X027548Y019496D01*
X027975Y019496D02*
X028815Y019496D01*
X028815Y019338D02*
X027975Y019338D01*
X027975Y019179D02*
X028815Y019179D01*
X028827Y019048D02*
X028827Y019048D01*
X028820Y019021D02*
X027975Y019021D01*
X027975Y018862D02*
X028815Y018862D01*
X028815Y018674D02*
X028815Y018443D01*
X028827Y018397D01*
X028851Y018356D01*
X028884Y018322D01*
X028925Y018299D01*
X028971Y018286D01*
X029242Y018286D01*
X029242Y018674D01*
X028815Y018674D01*
X028815Y018545D02*
X028239Y018545D01*
X028359Y018387D02*
X028833Y018387D01*
X029242Y018387D02*
X029338Y018387D01*
X029338Y018545D02*
X029242Y018545D01*
X029242Y018704D02*
X028080Y018704D01*
X028390Y018228D02*
X029530Y018228D01*
X029530Y018070D02*
X028390Y018070D01*
X028390Y017944D02*
X028390Y017944D01*
X028486Y017911D02*
X029314Y017911D01*
X029212Y017753D02*
X028588Y017753D01*
X028588Y017594D02*
X029212Y017594D01*
X029212Y017436D02*
X028588Y017436D01*
X028381Y017277D02*
X029420Y017277D01*
X029680Y017119D02*
X027820Y017119D01*
X027886Y017277D02*
X027964Y017277D01*
X027708Y016960D02*
X029701Y016960D01*
X029808Y016802D02*
X027550Y016802D01*
X025330Y017594D02*
X024340Y017594D01*
X024351Y017436D02*
X025089Y017436D01*
X025032Y017277D02*
X024408Y017277D01*
X024408Y017119D02*
X025032Y017119D01*
X025032Y016960D02*
X024408Y016960D01*
X023040Y016643D02*
X031458Y016643D01*
X031454Y016641D02*
X031421Y016608D01*
X031397Y016567D01*
X031385Y016521D01*
X031385Y016289D01*
X031812Y016289D01*
X031812Y016677D01*
X031541Y016677D01*
X031495Y016665D01*
X031454Y016641D01*
X031385Y016485D02*
X023040Y016485D01*
X023040Y016326D02*
X031385Y016326D01*
X031066Y016168D02*
X023040Y016168D01*
X023040Y016009D02*
X030920Y016009D01*
X030880Y015851D02*
X023040Y015851D01*
X023040Y015692D02*
X030880Y015692D01*
X030891Y015534D02*
X023040Y015534D01*
X023040Y015375D02*
X030984Y015375D01*
X031410Y015217D02*
X023040Y015217D01*
X024373Y018070D02*
X025148Y018070D01*
X025115Y018228D02*
X024405Y018228D01*
X023978Y019179D02*
X023882Y019179D01*
X023882Y019338D02*
X023978Y019338D01*
X023978Y019496D02*
X023882Y019496D01*
X026088Y019496D02*
X027025Y019496D01*
X027025Y019338D02*
X026246Y019338D01*
X026405Y019179D02*
X027025Y019179D01*
X027975Y019655D02*
X028815Y019655D01*
X028880Y019813D02*
X027914Y019813D01*
X029640Y019972D02*
X031930Y019972D01*
X031930Y020130D02*
X029640Y020130D01*
X029640Y020289D02*
X031656Y020289D01*
X031484Y020447D02*
X029640Y020447D01*
X029640Y020606D02*
X031364Y020606D01*
X031272Y020764D02*
X029640Y020764D01*
X029640Y020923D02*
X031227Y020923D01*
X031191Y021081D02*
X029591Y021081D01*
X029585Y021240D02*
X031191Y021240D01*
X031202Y021398D02*
X029585Y021398D01*
X029575Y021557D02*
X031245Y021557D01*
X031310Y021715D02*
X029269Y021715D01*
X029225Y021759D02*
X029225Y021759D01*
X029332Y021652D02*
X029332Y021652D01*
X029110Y021874D02*
X031402Y021874D01*
X031550Y022032D02*
X028952Y022032D01*
X028368Y022032D02*
X028240Y022032D01*
X028240Y021874D02*
X028285Y021874D01*
X028240Y022191D02*
X031770Y022191D01*
X032527Y022666D02*
X028240Y022666D01*
X028240Y022508D02*
X032620Y022508D01*
X032761Y022349D02*
X028240Y022349D01*
X028240Y022825D02*
X032467Y022825D01*
X032437Y022983D02*
X029026Y022983D01*
X029130Y023142D02*
X033358Y023142D01*
X033358Y023300D02*
X033518Y023300D01*
X033518Y023142D02*
X037380Y023142D01*
X037380Y023300D02*
X034424Y023300D01*
X034378Y023459D02*
X037380Y023459D01*
X037380Y023617D02*
X034300Y023617D01*
X034182Y023776D02*
X037380Y023776D01*
X037380Y023934D02*
X033997Y023934D01*
X033518Y023934D02*
X033358Y023934D01*
X033358Y023776D02*
X033518Y023776D01*
X033518Y023617D02*
X033358Y023617D01*
X033358Y023459D02*
X033518Y023459D01*
X032879Y023934D02*
X029130Y023934D01*
X029130Y023776D02*
X032693Y023776D01*
X032576Y023617D02*
X029130Y023617D01*
X029130Y023459D02*
X032498Y023459D01*
X032452Y023300D02*
X029130Y023300D01*
X032861Y022191D02*
X032998Y022191D01*
X033081Y022032D02*
X034198Y022032D01*
X034193Y022029D02*
X034104Y021959D01*
X034024Y021879D01*
X033954Y021790D01*
X033894Y021695D01*
X033845Y021593D01*
X033807Y021486D01*
X033782Y021376D01*
X033772Y021287D01*
X034696Y021287D01*
X034696Y021127D01*
X033772Y021127D01*
X033782Y021038D01*
X033807Y020928D01*
X033845Y020821D01*
X033894Y020719D01*
X033954Y020623D01*
X034024Y020535D01*
X034104Y020455D01*
X034193Y020384D01*
X034289Y020324D01*
X034390Y020275D01*
X034497Y020238D01*
X034607Y020213D01*
X034696Y020203D01*
X034696Y021127D01*
X034856Y021127D01*
X034856Y020203D01*
X034945Y020213D01*
X035055Y020238D01*
X035162Y020275D01*
X035264Y020324D01*
X035360Y020384D01*
X035448Y020455D01*
X035528Y020535D01*
X035599Y020623D01*
X035659Y020719D01*
X035708Y020821D01*
X035745Y020928D01*
X035770Y021038D01*
X035780Y021127D01*
X034856Y021127D01*
X034856Y021287D01*
X034696Y021287D01*
X034696Y022211D01*
X034607Y022201D01*
X034497Y022176D01*
X034390Y022138D01*
X034289Y022089D01*
X034193Y022029D01*
X034021Y021874D02*
X033229Y021874D01*
X033321Y021715D02*
X033907Y021715D01*
X033832Y021557D02*
X033386Y021557D01*
X033429Y021398D02*
X033787Y021398D01*
X033777Y021081D02*
X033441Y021081D01*
X033441Y021240D02*
X034696Y021240D01*
X034696Y021398D02*
X034856Y021398D01*
X034856Y021287D02*
X034856Y022211D01*
X034945Y022201D01*
X035055Y022176D01*
X035162Y022138D01*
X035264Y022089D01*
X035360Y022029D01*
X035448Y021959D01*
X035528Y021879D01*
X035599Y021790D01*
X035659Y021695D01*
X035708Y021593D01*
X035745Y021486D01*
X035770Y021376D01*
X035780Y021287D01*
X034856Y021287D01*
X034856Y021240D02*
X037380Y021240D01*
X037380Y021398D02*
X035765Y021398D01*
X035720Y021557D02*
X037380Y021557D01*
X037380Y021715D02*
X035646Y021715D01*
X035532Y021874D02*
X037380Y021874D01*
X037380Y022032D02*
X035355Y022032D01*
X034989Y022191D02*
X037380Y022191D01*
X037380Y022349D02*
X034114Y022349D01*
X034110Y022345D02*
X034190Y022425D01*
X034260Y022513D01*
X034320Y022609D01*
X034369Y022711D01*
X034407Y022817D01*
X034432Y022928D01*
X034442Y023017D01*
X033518Y023017D01*
X033518Y022092D01*
X033607Y022102D01*
X033717Y022128D01*
X033824Y022165D01*
X033925Y022214D01*
X034021Y022274D01*
X034110Y022345D01*
X034256Y022508D02*
X037380Y022508D01*
X037380Y022666D02*
X034348Y022666D01*
X034408Y022825D02*
X037380Y022825D01*
X037380Y022983D02*
X034438Y022983D01*
X033518Y022983D02*
X033358Y022983D01*
X033358Y022825D02*
X033518Y022825D01*
X033518Y022666D02*
X033358Y022666D01*
X033358Y022508D02*
X033518Y022508D01*
X033518Y022349D02*
X033358Y022349D01*
X033358Y022191D02*
X033518Y022191D01*
X033877Y022191D02*
X034563Y022191D01*
X034696Y022191D02*
X034856Y022191D01*
X034856Y022032D02*
X034696Y022032D01*
X034696Y021874D02*
X034856Y021874D01*
X034856Y021715D02*
X034696Y021715D01*
X034696Y021557D02*
X034856Y021557D01*
X034856Y021081D02*
X034696Y021081D01*
X034696Y020923D02*
X034856Y020923D01*
X034856Y020764D02*
X034696Y020764D01*
X034696Y020606D02*
X034856Y020606D01*
X034856Y020447D02*
X034696Y020447D01*
X034696Y020289D02*
X034856Y020289D01*
X035190Y020289D02*
X037380Y020289D01*
X037380Y020447D02*
X035439Y020447D01*
X035585Y020606D02*
X037380Y020606D01*
X037380Y020764D02*
X035681Y020764D01*
X035744Y020923D02*
X037380Y020923D01*
X037380Y021081D02*
X035775Y021081D01*
X034362Y020289D02*
X032975Y020289D01*
X033147Y020447D02*
X034114Y020447D01*
X033968Y020606D02*
X033268Y020606D01*
X033359Y020764D02*
X033872Y020764D01*
X033809Y020923D02*
X033404Y020923D01*
X032690Y020130D02*
X037380Y020130D01*
X037380Y019972D02*
X032690Y019972D01*
X032690Y019813D02*
X037380Y019813D01*
X037380Y019655D02*
X032690Y019655D01*
X032684Y019496D02*
X037380Y019496D01*
X037380Y019338D02*
X032598Y019338D01*
X032440Y019179D02*
X037380Y019179D01*
X037380Y019021D02*
X032281Y019021D01*
X032123Y018862D02*
X037380Y018862D01*
X037380Y018704D02*
X031964Y018704D01*
X032121Y018545D02*
X031806Y018545D01*
X031647Y018387D02*
X032076Y018387D01*
X032014Y018228D02*
X031489Y018228D01*
X031330Y018070D02*
X031856Y018070D01*
X031697Y017911D02*
X031244Y017911D01*
X031223Y017753D02*
X031539Y017753D01*
X031380Y017594D02*
X030440Y017594D01*
X030384Y018070D02*
X030321Y018070D01*
X030290Y018228D02*
X030384Y018228D01*
X030384Y018387D02*
X030290Y018387D01*
X030290Y018545D02*
X030428Y018545D01*
X030290Y018704D02*
X030890Y018704D01*
X031048Y018862D02*
X030290Y018862D01*
X030290Y019021D02*
X031207Y019021D01*
X031365Y019179D02*
X030283Y019179D01*
X030196Y019338D02*
X031524Y019338D01*
X031682Y019496D02*
X030038Y019496D01*
X029879Y019655D02*
X031841Y019655D01*
X031930Y019813D02*
X029674Y019813D01*
X032892Y018545D02*
X037380Y018545D01*
X037380Y018387D02*
X032936Y018387D01*
X032936Y018228D02*
X037380Y018228D01*
X037380Y018070D02*
X032936Y018070D01*
X032936Y017911D02*
X037380Y017911D01*
X037380Y017753D02*
X032916Y017753D01*
X032455Y017594D02*
X037380Y017594D01*
X037380Y017436D02*
X032296Y017436D01*
X032138Y017277D02*
X037380Y017277D01*
X037380Y017119D02*
X031979Y017119D01*
X031821Y016960D02*
X037380Y016960D01*
X037380Y016802D02*
X031662Y016802D01*
X031812Y016643D02*
X031908Y016643D01*
X031908Y016485D02*
X031812Y016485D01*
X031812Y016326D02*
X031908Y016326D01*
X032335Y016485D02*
X033225Y016485D01*
X033332Y016643D02*
X032262Y016643D01*
X036992Y014107D02*
X037380Y014107D01*
X037380Y013949D02*
X036992Y013949D01*
X036992Y013790D02*
X037380Y013790D01*
X037380Y013632D02*
X036968Y013632D01*
X036870Y013473D02*
X037380Y013473D01*
X037380Y013315D02*
X037102Y013315D01*
X037120Y013156D02*
X037380Y013156D01*
X037380Y012998D02*
X037120Y012998D01*
X037120Y012839D02*
X037380Y012839D01*
X037380Y012681D02*
X037120Y012681D01*
X036304Y013315D02*
X036276Y013315D01*
X033838Y012998D02*
X033702Y012998D01*
X033702Y012839D02*
X033838Y012839D01*
X033838Y012681D02*
X033702Y012681D01*
D42*
X035010Y012687D03*
X034510Y013687D03*
X032710Y014987D03*
X031010Y014187D03*
X029510Y013187D03*
X031110Y013087D03*
X031810Y011487D03*
X030210Y010187D03*
X029010Y010187D03*
X028710Y008837D03*
X027610Y008787D03*
X026560Y008787D03*
X025560Y008787D03*
X024460Y008787D03*
X023260Y008787D03*
X022460Y009537D03*
X021860Y010487D03*
X022510Y011487D03*
X023410Y012487D03*
X023810Y013387D03*
X025510Y013487D03*
X027310Y013487D03*
X027610Y014787D03*
X029110Y015587D03*
X030210Y015487D03*
X029310Y016787D03*
X028210Y016387D03*
X026610Y016187D03*
X025110Y016087D03*
X023710Y015987D03*
X023810Y014787D03*
X024910Y014787D03*
X026210Y014787D03*
X023310Y017487D03*
X024810Y017987D03*
X024510Y019987D03*
X026410Y020287D03*
X027210Y020087D03*
X030110Y021387D03*
X030610Y019987D03*
X033710Y019887D03*
X033710Y018687D03*
X035110Y018887D03*
X036610Y018887D03*
X036610Y017887D03*
X035010Y017487D03*
X033610Y017187D03*
X034610Y015187D03*
X036510Y015187D03*
X036910Y011687D03*
X034710Y010787D03*
X034410Y008787D03*
X033410Y008687D03*
X032310Y008787D03*
X031310Y008737D03*
X029910Y008787D03*
X035410Y008787D03*
X023310Y004387D03*
X022410Y004687D03*
X021810Y005887D03*
X022310Y006587D03*
X020810Y006587D03*
X020610Y007887D03*
X021810Y007887D03*
X020810Y008887D03*
X019610Y008587D03*
X018710Y010687D03*
X020210Y011887D03*
X019910Y013587D03*
X020910Y014487D03*
X019510Y015387D03*
X018210Y016787D03*
X017510Y017887D03*
X016110Y017787D03*
X014310Y017937D03*
X014110Y019287D03*
X014710Y020387D03*
X013310Y020487D03*
X012810Y021487D03*
X014510Y021487D03*
X017210Y021587D03*
X017310Y020187D03*
X019610Y021787D03*
X022610Y022387D03*
X024810Y022487D03*
X026210Y022587D03*
X026510Y023987D03*
X030110Y022687D03*
X030410Y023787D03*
X031810Y023787D03*
X035410Y023587D03*
X036710Y023387D03*
X036710Y022387D03*
X036510Y021287D03*
X036610Y020087D03*
X019610Y017887D03*
X013610Y016037D03*
X010260Y015087D03*
X007210Y014987D03*
X004710Y016387D03*
X004410Y017187D03*
X004710Y017887D03*
X005410Y017187D03*
X003210Y017187D03*
X001910Y016587D03*
X003210Y015387D03*
X002010Y014587D03*
X001910Y013187D03*
X002810Y013087D03*
X004110Y012787D03*
X004310Y013787D03*
X009360Y011837D03*
X003910Y008987D03*
X003510Y008087D03*
X005810Y006187D03*
X007010Y006687D03*
X007110Y007687D03*
X003810Y005687D03*
X005510Y005087D03*
X002610Y003387D03*
X002010Y004487D03*
X013310Y004787D03*
X013310Y006487D03*
X018310Y004587D03*
X023110Y003187D03*
X018310Y013587D03*
X004110Y020287D03*
X003110Y020787D03*
X002010Y019787D03*
X002810Y018987D03*
X001710Y018887D03*
X001410Y023887D03*
X002710Y023987D03*
X004110Y023987D03*
X005510Y023987D03*
X007310Y023987D03*
X009010Y023887D03*
X010810Y023787D03*
X012010Y023987D03*
X013010Y023987D03*
X014410Y024087D03*
X017310Y023987D03*
X019210Y023987D03*
D43*
X010260Y015037D02*
X010260Y014762D01*
D44*
X013920Y015420D02*
X014235Y015420D01*
X014260Y015420D01*
X013290Y010853D02*
X013290Y010853D01*
X013290Y010247D01*
X013970Y008907D02*
X013970Y008897D01*
X014120Y008737D02*
X013460Y008737D01*
X014120Y008737D02*
X014160Y008697D01*
X014160Y008688D01*
M02*
