G75*
G70*
%OFA0B0*%
%FSLAX24Y24*%
%IPPOS*%
%LPD*%
%AMOC8*
5,1,8,0,0,1.08239X$1,22.5*
%
%ADD10R,0.0591X0.0197*%
%ADD11R,0.0197X0.0591*%
%ADD12R,0.1100X0.0290*%
%ADD13R,0.0866X0.0945*%
%ADD14R,0.0630X0.0709*%
%ADD15R,0.0590X0.0790*%
%ADD16R,0.1500X0.0790*%
%ADD17R,0.0500X0.0579*%
%ADD18R,0.0591X0.0512*%
%ADD19R,0.0472X0.0315*%
%ADD20R,0.0315X0.0472*%
%ADD21R,0.0400X0.0250*%
%ADD22R,0.0472X0.1260*%
%ADD23R,0.0472X0.0472*%
%ADD24R,0.0394X0.0433*%
%ADD25R,0.0472X0.0276*%
%ADD26R,0.0709X0.0630*%
D10*
X010377Y011562D03*
X010377Y011877D03*
X010377Y012192D03*
X010377Y012507D03*
X010377Y012822D03*
X010377Y013137D03*
X010377Y013452D03*
X010377Y013767D03*
X010377Y014082D03*
X010377Y014397D03*
X010377Y014712D03*
X014943Y014712D03*
X014943Y014397D03*
X014943Y014082D03*
X014943Y013767D03*
X014943Y013452D03*
X014943Y013137D03*
X014943Y012822D03*
X014943Y012507D03*
X014943Y012192D03*
X014943Y011877D03*
X014943Y011562D03*
D11*
X014235Y010853D03*
X013920Y010853D03*
X013605Y010853D03*
X013290Y010853D03*
X012975Y010853D03*
X012660Y010853D03*
X012345Y010853D03*
X012030Y010853D03*
X011715Y010853D03*
X011400Y010853D03*
X011085Y010853D03*
X011085Y015420D03*
X011400Y015420D03*
X011715Y015420D03*
X012030Y015420D03*
X012345Y015420D03*
X012660Y015420D03*
X012975Y015420D03*
X013290Y015420D03*
X013605Y015420D03*
X013920Y015420D03*
X014235Y015420D03*
D12*
X006460Y011637D03*
X006460Y011137D03*
X006460Y010637D03*
X006460Y010137D03*
X006460Y009637D03*
X004860Y009637D03*
X004860Y010137D03*
X004860Y010637D03*
X004860Y011137D03*
X004860Y011637D03*
D13*
X004194Y015137D03*
X006126Y015137D03*
D14*
X006211Y013137D03*
X005109Y013137D03*
X016109Y015637D03*
X017211Y015637D03*
D15*
X023780Y021077D03*
X024680Y021077D03*
X025580Y021077D03*
X027310Y021077D03*
X028210Y021077D03*
X029110Y021077D03*
X031970Y012507D03*
X032870Y012507D03*
X033770Y012507D03*
D16*
X032880Y010027D03*
X028200Y023557D03*
X024670Y023557D03*
D17*
X030814Y018137D03*
X032506Y018137D03*
D18*
X031860Y016241D03*
X031860Y015572D03*
X033700Y015552D03*
X033700Y016221D03*
X029290Y018722D03*
X029290Y019391D03*
X027500Y019421D03*
X027500Y018752D03*
X025590Y018432D03*
X025590Y019101D03*
X023930Y019101D03*
X023930Y018432D03*
D19*
X001660Y005782D03*
X001660Y006491D03*
X002660Y006491D03*
X002660Y005782D03*
X018660Y006782D03*
X019660Y006782D03*
X019660Y007491D03*
X018660Y007491D03*
X020900Y009702D03*
X020900Y010411D03*
D20*
X022046Y013507D03*
X022754Y013507D03*
X021314Y015657D03*
X020606Y015657D03*
X020796Y023087D03*
X021504Y023087D03*
X035946Y013967D03*
X036654Y013967D03*
X002514Y007637D03*
X001806Y007637D03*
D21*
X019246Y010077D03*
X020034Y010451D03*
X020034Y009703D03*
D22*
X028603Y011528D03*
X030177Y011528D03*
X030177Y014205D03*
X028603Y014205D03*
D23*
X035877Y012987D03*
X036703Y012987D03*
X021433Y017127D03*
X020607Y017127D03*
X020767Y021997D03*
X021593Y021997D03*
D24*
X002896Y011188D03*
X002424Y011188D03*
X002424Y010086D03*
X002896Y010086D03*
D25*
X023992Y017167D03*
X025448Y017167D03*
X028172Y017597D03*
X029628Y017597D03*
X031932Y014157D03*
X033388Y014157D03*
D26*
X015210Y016186D03*
X014310Y016186D03*
X014310Y017288D03*
X015210Y017288D03*
X014160Y008688D03*
X012660Y008688D03*
X012660Y007586D03*
X014160Y007586D03*
M02*
