%
M48
M72
T01C0.0140
T02C0.0236
T03C0.0240
T04C0.0360
T05C0.0394
T06C0.0400
T07C0.1102
T08C0.1142
T09C0.1260
%
T01
X8810Y5737
X3510Y6537
X9810Y10137
X10560Y10137
X10260Y9437
X13460Y8737
X17060Y8987
X18610Y8187
X17960Y6987
X23110Y5087
X12260Y11837
X11060Y11837
X10960Y13537
X11560Y14737
X14010Y13837
X15460Y14437
X16160Y14337
X15860Y13137
X14360Y12787
X15460Y12237
X17760Y14737
X22010Y14237
X22510Y12937
X29110Y14237
X31260Y15837
X33360Y13187
X24960Y19087
X22660Y19687
X23260Y20437
X21660Y18637
X15810Y19387
X13760Y16737
X10960Y17337
X8860Y19037
X9110Y19737
X8160Y19737
X7210Y20787
X8160Y22087
X10960Y19737
X5360Y19137
X3560Y18537
X5360Y15637
X3560Y14437
X6610Y13787
X7260Y13787
X7760Y13937
X8610Y14187
X2360Y11737
X21660Y22537
X28660Y21787
T02
X2610Y3387
X2010Y4487
X3810Y5687
X5510Y5087
X5810Y6187
X7010Y6687
X7110Y7687
X3910Y8987
X3510Y8087
X9360Y11837
X4110Y12787
X2810Y13087
X1910Y13187
X2010Y14587
X3210Y15387
X1910Y16587
X3210Y17187
X4410Y17187
X4710Y17887
X5410Y17187
X4710Y16387
X7210Y14987
X10260Y15087
X13610Y16037
X16110Y17787
X17510Y17887
X18210Y16787
X19610Y17887
X19510Y15387
X20910Y14487
X19910Y13587
X18310Y13587
X20210Y11887
X18710Y10687
X20810Y8887
X19610Y8587
X20610Y7887
X21810Y7887
X23260Y8787
X22460Y9537
X21860Y10487
X22510Y11487
X23410Y12487
X23810Y13387
X25510Y13487
X27310Y13487
X27610Y14787
X29110Y15587
X30210Y15487
X31010Y14187
X29510Y13187
X31110Y13087
X31810Y11487
X30210Y10187
X29010Y10187
X28710Y8837
X27610Y8787
X26560Y8787
X25560Y8787
X24460Y8787
X22310Y6587
X21810Y5887
X20810Y6587
X22410Y4687
X23310Y4387
X23110Y3187
X18310Y4587
X13310Y4787
X13310Y6487
X4310Y13787
X1710Y18887
X2810Y18987
X2010Y19787
X3110Y20787
X4110Y20287
X1410Y23887
X2710Y23987
X4110Y23987
X5510Y23987
X7310Y23987
X9010Y23887
X10810Y23787
X12010Y23987
X13010Y23987
X14410Y24087
X17310Y23987
X19210Y23987
X22610Y22387
X24810Y22487
X26210Y22587
X26510Y23987
X30110Y22687
X30410Y23787
X31810Y23787
X35410Y23587
X36710Y23387
X36710Y22387
X36510Y21287
X36610Y20087
X36610Y18887
X35110Y18887
X33710Y18687
X33710Y19887
X30610Y19987
X30110Y21387
X27210Y20087
X26410Y20287
X24510Y19987
X24810Y17987
X23310Y17487
X23710Y15987
X25110Y16087
X26610Y16187
X28210Y16387
X29310Y16787
X26210Y14787
X24910Y14787
X23810Y14787
X32710Y14987
X34610Y15187
X36510Y15187
X34510Y13687
X35010Y12687
X36910Y11687
X34710Y10787
X34410Y8787
X33410Y8687
X32310Y8787
X31310Y8737
X29910Y8787
X35410Y8787
X33610Y17187
X35010Y17487
X36610Y17887
X19610Y21787
X17210Y21587
X17310Y20187
X14710Y20387
X14110Y19287
X14310Y17937
X13310Y20487
X12810Y21487
X14510Y21487
T03
X12010Y18387
X12910Y17987
X12010Y17337
X12360Y16587
X7660Y16637
X6610Y16987
X6610Y17687
X6610Y15937
X11210Y12387
X7860Y9087
X7860Y8587
X9160Y7137
X11260Y6737
X10510Y5487
X12010Y4487
X14310Y4787
X15060Y6037
X10860Y8437
X10860Y8937
X5510Y8837
X2760Y9387
X1460Y8087
X1460Y20587
T04
X20640Y20707
X21640Y20707
X22640Y20707
T05
X24160Y7637
X25160Y7637
X26160Y7637
X27160Y7637
X28160Y7637
X29160Y7637
X30160Y7637
X31160Y7637
X32160Y7637
X33160Y7637
X34160Y7637
X35160Y7637
X36160Y7637
X36160Y6637
X35160Y6637
X34160Y6637
X33160Y6637
X32160Y6637
X31160Y6637
X30160Y6637
X29160Y6637
X28160Y6637
X27160Y6637
X26160Y6637
X25160Y6637
X24160Y6637
X24160Y4637
X25160Y4637
X26160Y4637
X27160Y4637
X28160Y4637
X29160Y4637
X30160Y4637
X31160Y4637
X32160Y4637
X33160Y4637
X34160Y4637
X35160Y4637
X36160Y4637
X36160Y3637
X35160Y3637
X34160Y3637
X33160Y3637
X32160Y3637
X31160Y3637
X30160Y3637
X29160Y3637
X28160Y3637
X27160Y3637
X26160Y3637
X25160Y3637
X24160Y3637
T06
X22160Y3637
X21160Y3637
X20160Y3637
X19160Y3637
X18160Y3637
X17160Y3637
X16160Y3637
X15160Y3637
X14160Y3637
X13160Y3637
X11660Y3637
X10660Y3637
X9660Y3637
X8660Y3637
X7660Y3637
X6660Y3637
X5660Y3637
X4660Y3637
X4660Y21637
X3660Y21637
X2660Y21637
X1660Y21637
X1660Y22637
X2660Y22637
X3660Y22637
X4660Y22637
X5660Y22637
X6660Y22637
X7660Y22637
X8660Y22637
X9660Y22637
X9660Y21637
X8660Y21637
X7660Y21637
X6660Y21637
X5660Y21637
X11660Y22637
X12660Y22637
X13660Y22637
X14660Y22637
X15660Y22637
X16660Y22637
X17660Y22637
X18660Y22637
X36160Y10627
X36160Y9627
T07
X34776Y21207
X33438Y23097
T08
X27066Y17521
X5609Y7481
T09
X32316Y21207
M30
